<svg width="600" height="78" viewBox="0 0 600 78" fill="none" xmlns="http://www.w3.org/2000/svg">
<path d="M34 16H50" stroke="white" stroke-width="6"/>
<path d="M50 16H66" stroke="#00703C" stroke-width="6"/>
<circle cx="50" cy="16" r="16" fill="#00703C"/>
<path d="M47.1988 24L41 17.6988L43.9564 14.6939L47.1988 17.9896L56.0436 9L59 12.0049L47.1988 24Z" fill="white"/>
<path d="M66 16H100" stroke="#00703C" stroke-width="6"/>
<path d="M27.2344 53.3125H22.8359L22.0547 56H20.5938L24.0703 44.7969H26.0547L29.5547 56H28.0391L27.2344 53.3125ZM23.1719 52.1406H26.8984L25.0938 46.0312H24.9688L23.1719 52.1406ZM37.7734 54.4453L39.2188 48.0156H40.6094L38.6562 56H36.9766L35.3594 49.6016L33.7109 56H32.0938L30.1562 48.0156H31.5703L32.9609 54.4453L34.6406 48.0156H36.125L37.7734 54.4453ZM46.8438 55.2031C46.6094 55.474 46.2917 55.7005 45.8906 55.8828C45.4948 56.0651 45.0286 56.1562 44.4922 56.1562C44.0964 56.1562 43.7292 56.1016 43.3906 55.9922C43.0521 55.8776 42.7578 55.7161 42.5078 55.5078C42.2578 55.2995 42.0625 55.0469 41.9219 54.75C41.7812 54.4531 41.7109 54.1172 41.7109 53.7422C41.7109 53.4297 41.7604 53.1458 41.8594 52.8906C41.9635 52.6302 42.1068 52.4036 42.2891 52.2109C42.4766 52.0182 42.7005 51.862 42.9609 51.7422C43.2214 51.6172 43.513 51.5312 43.8359 51.4844L46.6562 51.1016V50.5938C46.6562 50.2917 46.6094 50.0391 46.5156 49.8359C46.4219 49.6276 46.2943 49.4635 46.1328 49.3438C45.9766 49.224 45.7891 49.138 45.5703 49.0859C45.3568 49.0339 45.125 49.0078 44.875 49.0078C44.4271 49.0078 44.0078 49.0703 43.6172 49.1953C43.2318 49.3203 42.8828 49.4661 42.5703 49.6328L42.0781 48.5938C42.5365 48.3333 43.0156 48.1458 43.5156 48.0312C44.0208 47.9167 44.5182 47.8594 45.0078 47.8594C45.9818 47.8594 46.7188 48.0807 47.2188 48.5234C47.7188 48.9609 47.9688 49.6016 47.9688 50.4453V54.125C47.9688 54.3906 48.0208 54.6146 48.125 54.7969C48.2292 54.974 48.3958 55.1146 48.625 55.2188L47.8828 56.1562C47.6328 56.0938 47.4167 55.9844 47.2344 55.8281C47.0573 55.6667 46.9323 55.474 46.8594 55.25L46.8438 55.2031ZM44.5078 52.4453C44.2891 52.4766 44.0885 52.5208 43.9062 52.5781C43.7292 52.6354 43.5781 52.7135 43.4531 52.8125C43.3281 52.9062 43.2292 53.0234 43.1562 53.1641C43.0885 53.3047 43.0547 53.4766 43.0547 53.6797C43.0547 53.9141 43.099 54.1224 43.1875 54.3047C43.276 54.487 43.3958 54.6406 43.5469 54.7656C43.6979 54.8906 43.8724 54.987 44.0703 55.0547C44.2734 55.1172 44.4844 55.1484 44.7031 55.1484C44.9479 55.1484 45.1875 55.1146 45.4219 55.0469C45.6562 54.9792 45.8646 54.8828 46.0469 54.7578C46.2292 54.6276 46.375 54.4714 46.4844 54.2891C46.599 54.1068 46.6562 53.8984 46.6562 53.6641V52.125L44.5078 52.4453ZM51.6641 56H50.3516V48.0156H51.6641V56ZM50.1094 45.7109C50.1094 45.5859 50.1328 45.4688 50.1797 45.3594C50.2318 45.25 50.2969 45.1536 50.375 45.0703C50.4583 44.987 50.5547 44.9219 50.6641 44.875C50.7786 44.8229 50.8984 44.7969 51.0234 44.7969C51.1484 44.7969 51.2656 44.8229 51.375 44.875C51.4844 44.9219 51.5781 44.987 51.6562 45.0703C51.7396 45.1536 51.8047 45.25 51.8516 45.3594C51.9036 45.4688 51.9297 45.5859 51.9297 45.7109C51.9297 45.8359 51.9036 45.9557 51.8516 46.0703C51.8047 46.1797 51.7396 46.276 51.6562 46.3594C51.5781 46.4375 51.4844 46.5026 51.375 46.5547C51.2656 46.6016 51.1484 46.625 51.0234 46.625C50.8984 46.625 50.7786 46.6016 50.6641 46.5547C50.5547 46.5026 50.4583 46.4375 50.375 46.3594C50.2969 46.276 50.2318 46.1797 50.1797 46.0703C50.1328 45.9557 50.1094 45.8359 50.1094 45.7109ZM56.1328 54.0156C56.1328 54.151 56.1406 54.2786 56.1562 54.3984C56.1771 54.513 56.2214 54.6146 56.2891 54.7031C56.362 54.7917 56.4661 54.862 56.6016 54.9141C56.737 54.9661 56.9219 54.9922 57.1562 54.9922C57.2188 54.9922 57.2917 54.9896 57.375 54.9844C57.4635 54.9792 57.5547 54.974 57.6484 54.9688C57.7422 54.9583 57.8333 54.9479 57.9219 54.9375C58.0104 54.9219 58.0859 54.9089 58.1484 54.8984L58.2891 56.0469C58.138 56.0677 57.9818 56.0859 57.8203 56.1016C57.6849 56.1172 57.5339 56.1302 57.3672 56.1406C57.2005 56.151 57.0339 56.1562 56.8672 56.1562C56.5495 56.1562 56.263 56.1224 56.0078 56.0547C55.7578 55.9922 55.5443 55.888 55.3672 55.7422C55.1901 55.5964 55.0547 55.4062 54.9609 55.1719C54.8672 54.9323 54.8203 54.6432 54.8203 54.3047V49.1719H53.3125V48.0156H54.8203V45.4062L56.1328 44.9453V48.0156H58.3516V49.1719H56.1328V54.0156ZM61.2891 56H59.9766V48.0156H61.2891V56ZM59.7344 45.7109C59.7344 45.5859 59.7578 45.4688 59.8047 45.3594C59.8568 45.25 59.9219 45.1536 60 45.0703C60.0833 44.987 60.1797 44.9219 60.2891 44.875C60.4036 44.8229 60.5234 44.7969 60.6484 44.7969C60.7734 44.7969 60.8906 44.8229 61 44.875C61.1094 44.9219 61.2031 44.987 61.2812 45.0703C61.3646 45.1536 61.4297 45.25 61.4766 45.3594C61.5286 45.4688 61.5547 45.5859 61.5547 45.7109C61.5547 45.8359 61.5286 45.9557 61.4766 46.0703C61.4297 46.1797 61.3646 46.276 61.2812 46.3594C61.2031 46.4375 61.1094 46.5026 61 46.5547C60.8906 46.6016 60.7734 46.625 60.6484 46.625C60.5234 46.625 60.4036 46.6016 60.2891 46.5547C60.1797 46.5026 60.0833 46.4375 60 46.3594C59.9219 46.276 59.8568 46.1797 59.8047 46.0703C59.7578 45.9557 59.7344 45.8359 59.7344 45.7109ZM63.6953 48.0156H65.0078V48.9297C65.2786 48.5599 65.612 48.2891 66.0078 48.1172C66.4089 47.9453 66.8542 47.8594 67.3438 47.8594C67.7865 47.8594 68.1745 47.9323 68.5078 48.0781C68.8411 48.224 69.1198 48.4219 69.3438 48.6719C69.5677 48.9219 69.7344 49.2109 69.8438 49.5391C69.9583 49.8672 70.0156 50.2135 70.0156 50.5781V56H68.7031V50.9922C68.7031 50.6432 68.6589 50.3464 68.5703 50.1016C68.487 49.8516 68.3698 49.651 68.2188 49.5C68.0729 49.3438 67.8984 49.2318 67.6953 49.1641C67.4974 49.0911 67.2839 49.0547 67.0547 49.0547C66.8047 49.0547 66.5573 49.1016 66.3125 49.1953C66.0729 49.2839 65.8542 49.4193 65.6562 49.6016C65.4635 49.7839 65.3073 50.013 65.1875 50.2891C65.0677 50.5651 65.0078 50.8906 65.0078 51.2656V56H63.6953V48.0156ZM71.8984 51.5703C71.8984 51.0443 71.974 50.5547 72.125 50.1016C72.276 49.6484 72.4922 49.2578 72.7734 48.9297C73.0547 48.5964 73.3932 48.3359 73.7891 48.1484C74.1901 47.9557 74.638 47.8594 75.1328 47.8594C75.5703 47.8594 75.987 47.9453 76.3828 48.1172C76.7786 48.2839 77.1146 48.5547 77.3906 48.9297V48.0156H78.7031V56C78.7031 56.4948 78.6016 56.9089 78.3984 57.2422C78.2005 57.5807 77.9401 57.8516 77.6172 58.0547C77.2943 58.2578 76.9271 58.4036 76.5156 58.4922C76.1094 58.5807 75.6953 58.625 75.2734 58.625C75.0391 58.625 74.7943 58.612 74.5391 58.5859C74.2891 58.5599 74.0365 58.5208 73.7812 58.4688C73.526 58.4167 73.2734 58.349 73.0234 58.2656C72.7786 58.1875 72.5443 58.0938 72.3203 57.9844L72.7969 56.8828C72.9531 56.9557 73.1172 57.026 73.2891 57.0938C73.4609 57.1667 73.6458 57.2318 73.8438 57.2891C74.0469 57.3464 74.263 57.3932 74.4922 57.4297C74.7214 57.4661 74.9714 57.4844 75.2422 57.4844C75.5755 57.4844 75.875 57.4505 76.1406 57.3828C76.4115 57.3151 76.638 57.2083 76.8203 57.0625C77.0026 56.9219 77.1432 56.7396 77.2422 56.5156C77.3411 56.2969 77.3906 56.0339 77.3906 55.7266V54.2109C77.1146 54.5859 76.7786 54.8594 76.3828 55.0312C75.987 55.1979 75.5703 55.2812 75.1328 55.2812C74.638 55.2812 74.1901 55.1875 73.7891 55C73.3932 54.8073 73.0547 54.5443 72.7734 54.2109C72.4922 53.8776 72.276 53.487 72.125 53.0391C71.974 52.5859 71.8984 52.0964 71.8984 51.5703ZM77.4219 51.5391C77.4219 51.1797 77.3828 50.849 77.3047 50.5469C77.2266 50.2396 77.1042 49.974 76.9375 49.75C76.7708 49.5208 76.5573 49.3438 76.2969 49.2188C76.0417 49.0885 75.7344 49.0234 75.375 49.0234C75.0104 49.0234 74.6953 49.0885 74.4297 49.2188C74.1641 49.349 73.9427 49.5286 73.7656 49.7578C73.5938 49.9818 73.4661 50.2474 73.3828 50.5547C73.2995 50.862 73.2578 51.1901 73.2578 51.5391V51.6016C73.2578 51.9505 73.2995 52.2786 73.3828 52.5859C73.4661 52.888 73.5938 53.1536 73.7656 53.3828C73.9427 53.6068 74.1641 53.7839 74.4297 53.9141C74.6953 54.0443 75.0104 54.1094 75.375 54.1094C75.7344 54.1094 76.0417 54.0469 76.2969 53.9219C76.5573 53.7917 76.7708 53.6146 76.9375 53.3906C77.1042 53.1667 77.2266 52.901 77.3047 52.5938C77.3828 52.2865 77.4219 51.9557 77.4219 51.6016V51.5391ZM17.7266 69.7891C17.7266 70.1641 17.6432 70.5 17.4766 70.7969C17.3151 71.0885 17.099 71.3359 16.8281 71.5391C16.5573 71.7422 16.2448 71.8958 15.8906 72C15.5417 72.1042 15.1823 72.1562 14.8125 72.1562C14.2292 72.1562 13.6667 72.0573 13.125 71.8594C12.5885 71.6562 12.112 71.3672 11.6953 70.9922L12.4141 70.0625C12.5391 70.1719 12.6823 70.2865 12.8438 70.4062C13.0104 70.526 13.1953 70.638 13.3984 70.7422C13.6016 70.8411 13.8203 70.9245 14.0547 70.9922C14.2891 71.0547 14.5365 71.0859 14.7969 71.0859C15.0104 71.0859 15.2135 71.0599 15.4062 71.0078C15.6042 70.9505 15.776 70.8698 15.9219 70.7656C16.0677 70.6562 16.1823 70.5286 16.2656 70.3828C16.3542 70.2318 16.3984 70.0625 16.3984 69.875C16.3984 69.6667 16.3516 69.4922 16.2578 69.3516C16.1693 69.2109 16.0469 69.0911 15.8906 68.9922C15.7344 68.8932 15.5521 68.8073 15.3438 68.7344C15.1354 68.6615 14.9167 68.5885 14.6875 68.5156L14.1875 68.3516C13.9062 68.2578 13.6354 68.151 13.375 68.0312C13.1146 67.9115 12.8828 67.7656 12.6797 67.5938C12.4818 67.4167 12.3229 67.2083 12.2031 66.9688C12.0885 66.7292 12.0312 66.4427 12.0312 66.1094C12.0312 65.8385 12.0885 65.5703 12.2031 65.3047C12.3177 65.0339 12.4922 64.7917 12.7266 64.5781C12.9661 64.3646 13.2682 64.1927 13.6328 64.0625C13.9974 63.9271 14.4271 63.8594 14.9219 63.8594C15.4688 63.8594 15.974 63.9505 16.4375 64.1328C16.9062 64.3151 17.3021 64.5417 17.625 64.8125L16.9375 65.7578C16.8229 65.6484 16.6875 65.5443 16.5312 65.4453C16.375 65.3464 16.2083 65.2604 16.0312 65.1875C15.8542 65.1094 15.6693 65.0469 15.4766 65C15.2839 64.9531 15.0938 64.9297 14.9062 64.9297C14.6198 64.9297 14.3776 64.9635 14.1797 65.0312C13.9818 65.0938 13.8229 65.1771 13.7031 65.2812C13.5833 65.3854 13.4948 65.5026 13.4375 65.6328C13.3854 65.763 13.3594 65.8906 13.3594 66.0156C13.3594 66.1979 13.3984 66.3516 13.4766 66.4766C13.5547 66.5964 13.6562 66.7005 13.7812 66.7891C13.9115 66.8776 14.0573 66.9531 14.2188 67.0156C14.3854 67.0781 14.5573 67.1406 14.7344 67.2031L15.3906 67.4219C15.7031 67.526 15.9896 67.638 16.25 67.7578C16.5104 67.8724 16.7396 68.0052 16.9375 68.1562C17.1875 68.3542 17.3802 68.5833 17.5156 68.8438C17.6562 69.1042 17.7266 69.4193 17.7266 69.7891ZM25.9922 72H24.6797V71.0859C24.4089 71.4557 24.0729 71.7266 23.6719 71.8984C23.276 72.0703 22.8333 72.1562 22.3438 72.1562C21.901 72.1562 21.513 72.0833 21.1797 71.9375C20.8464 71.7917 20.5677 71.5938 20.3438 71.3438C20.1198 71.0938 19.9505 70.8047 19.8359 70.4766C19.7266 70.1484 19.6719 69.8021 19.6719 69.4375V64.0156H20.9844V69.0234C20.9844 69.3776 21.026 69.6771 21.1094 69.9219C21.1979 70.1667 21.3151 70.3672 21.4609 70.5234C21.612 70.6745 21.7865 70.7865 21.9844 70.8594C22.1875 70.9271 22.4036 70.9609 22.6328 70.9609C22.9036 70.9609 23.1615 70.9167 23.4062 70.8281C23.6562 70.7344 23.875 70.5964 24.0625 70.4141C24.25 70.2318 24.3984 70.0026 24.5078 69.7266C24.6224 69.4505 24.6797 69.125 24.6797 68.75V64.0156H25.9922V72ZM29.7109 72H28.3984V60.7969H29.7109V64.9297C29.9453 64.6016 30.263 64.3411 30.6641 64.1484C31.0651 63.9557 31.526 63.8594 32.0469 63.8594C32.5625 63.8594 33.0286 63.9635 33.4453 64.1719C33.862 64.375 34.2188 64.6615 34.5156 65.0312C34.8125 65.401 35.0391 65.8411 35.1953 66.3516C35.3568 66.8568 35.4375 67.4115 35.4375 68.0156C35.4375 68.6198 35.3568 69.1745 35.1953 69.6797C35.0391 70.1849 34.8125 70.6224 34.5156 70.9922C34.2188 71.3568 33.862 71.6432 33.4453 71.8516C33.0286 72.0547 32.5625 72.1562 32.0469 72.1562C31.526 72.1562 31.0651 72.0599 30.6641 71.8672C30.263 71.6745 29.9453 71.4141 29.7109 71.0859V72ZM34.0781 67.9688C34.0781 67.5521 34.0286 67.1641 33.9297 66.8047C33.8307 66.4453 33.6849 66.1354 33.4922 65.875C33.2995 65.6094 33.0599 65.401 32.7734 65.25C32.4922 65.099 32.1693 65.0234 31.8047 65.0234C31.4557 65.0234 31.1484 65.0833 30.8828 65.2031C30.6224 65.3229 30.4036 65.487 30.2266 65.6953C30.0495 65.9036 29.9141 66.151 29.8203 66.4375C29.7318 66.7188 29.6875 67.026 29.6875 67.3594V68.6562C29.6875 68.9896 29.7318 69.2995 29.8203 69.5859C29.9141 69.8672 30.0495 70.112 30.2266 70.3203C30.4036 70.5286 30.6224 70.6927 30.8828 70.8125C31.1484 70.9323 31.4557 70.9922 31.8047 70.9922C32.1693 70.9922 32.4922 70.9167 32.7734 70.7656C33.0599 70.6146 33.2995 70.4089 33.4922 70.1484C33.6849 69.8828 33.8307 69.5703 33.9297 69.2109C34.0286 68.8516 34.0781 68.4635 34.0781 68.0469V67.9688ZM43.3672 72H42.0547V66.9766C42.0547 66.6224 42.0104 66.3229 41.9219 66.0781C41.8385 65.8333 41.724 65.6354 41.5781 65.4844C41.4375 65.3333 41.2682 65.224 41.0703 65.1562C40.8776 65.0885 40.6719 65.0547 40.4531 65.0547C40.2344 65.0547 40.0182 65.099 39.8047 65.1875C39.5964 65.2708 39.4089 65.4036 39.2422 65.5859C39.0807 65.7682 38.9479 66 38.8438 66.2812C38.7448 66.5573 38.6953 66.8906 38.6953 67.2812V72H37.3828V64.0156H38.6953V64.9297C38.9609 64.5599 39.2682 64.2891 39.6172 64.1172C39.9714 63.9453 40.362 63.8594 40.7891 63.8594C40.9661 63.8594 41.1589 63.8854 41.3672 63.9375C41.5755 63.9844 41.7786 64.0599 41.9766 64.1641C42.1797 64.2682 42.3646 64.4062 42.5312 64.5781C42.7031 64.7448 42.8411 64.9479 42.9453 65.1875C43.0911 64.9427 43.2578 64.737 43.4453 64.5703C43.638 64.3984 43.8385 64.2604 44.0469 64.1562C44.2604 64.0521 44.4792 63.9766 44.7031 63.9297C44.9323 63.8828 45.1589 63.8594 45.3828 63.8594C45.8151 63.8594 46.1979 63.9323 46.5312 64.0781C46.8646 64.224 47.1458 64.4193 47.375 64.6641C47.6042 64.9089 47.776 65.1927 47.8906 65.5156C48.0104 65.8385 48.0703 66.1771 48.0703 66.5312V72H46.7578V66.9766C46.7578 66.6224 46.7135 66.3229 46.625 66.0781C46.5365 65.8333 46.4167 65.6354 46.2656 65.4844C46.1146 65.3333 45.9401 65.224 45.7422 65.1562C45.5443 65.0885 45.3385 65.0547 45.125 65.0547C44.9062 65.0547 44.6901 65.099 44.4766 65.1875C44.2682 65.2708 44.0807 65.4036 43.9141 65.5859C43.7526 65.7682 43.6198 66 43.5156 66.2812C43.4167 66.5573 43.3672 66.8906 43.3672 67.2812V72ZM51.7266 72H50.4141V64.0156H51.7266V72ZM50.1719 61.7109C50.1719 61.5859 50.1953 61.4688 50.2422 61.3594C50.2943 61.25 50.3594 61.1536 50.4375 61.0703C50.5208 60.987 50.6172 60.9219 50.7266 60.875C50.8411 60.8229 50.9609 60.7969 51.0859 60.7969C51.2109 60.7969 51.3281 60.8229 51.4375 60.875C51.5469 60.9219 51.6406 60.987 51.7188 61.0703C51.8021 61.1536 51.8672 61.25 51.9141 61.3594C51.9661 61.4688 51.9922 61.5859 51.9922 61.7109C51.9922 61.8359 51.9661 61.9557 51.9141 62.0703C51.8672 62.1797 51.8021 62.276 51.7188 62.3594C51.6406 62.4375 51.5469 62.5026 51.4375 62.5547C51.3281 62.6016 51.2109 62.625 51.0859 62.625C50.9609 62.625 50.8411 62.6016 50.7266 62.5547C50.6172 62.5026 50.5208 62.4375 50.4375 62.3594C50.3594 62.276 50.2943 62.1797 50.2422 62.0703C50.1953 61.9557 50.1719 61.8359 50.1719 61.7109ZM59.4766 69.7891C59.4766 70.1641 59.3932 70.5 59.2266 70.7969C59.0651 71.0885 58.849 71.3359 58.5781 71.5391C58.3073 71.7422 57.9948 71.8958 57.6406 72C57.2917 72.1042 56.9323 72.1562 56.5625 72.1562C55.9792 72.1562 55.4167 72.0573 54.875 71.8594C54.3385 71.6562 53.862 71.3672 53.4453 70.9922L54.1641 70.0625C54.2891 70.1719 54.4323 70.2865 54.5938 70.4062C54.7604 70.526 54.9453 70.638 55.1484 70.7422C55.3516 70.8411 55.5703 70.9245 55.8047 70.9922C56.0391 71.0547 56.2865 71.0859 56.5469 71.0859C56.7604 71.0859 56.9635 71.0599 57.1562 71.0078C57.3542 70.9505 57.526 70.8698 57.6719 70.7656C57.8177 70.6562 57.9323 70.5286 58.0156 70.3828C58.1042 70.2318 58.1484 70.0625 58.1484 69.875C58.1484 69.6667 58.1016 69.4922 58.0078 69.3516C57.9193 69.2109 57.7969 69.0911 57.6406 68.9922C57.4844 68.8932 57.3021 68.8073 57.0938 68.7344C56.8854 68.6615 56.6667 68.5885 56.4375 68.5156L55.9375 68.3516C55.6562 68.2578 55.3854 68.151 55.125 68.0312C54.8646 67.9115 54.6328 67.7656 54.4297 67.5938C54.2318 67.4167 54.0729 67.2083 53.9531 66.9688C53.8385 66.7292 53.7812 66.4427 53.7812 66.1094C53.7812 65.8385 53.8385 65.5703 53.9531 65.3047C54.0677 65.0339 54.2422 64.7917 54.4766 64.5781C54.7161 64.3646 55.0182 64.1927 55.3828 64.0625C55.7474 63.9271 56.1771 63.8594 56.6719 63.8594C57.2188 63.8594 57.724 63.9505 58.1875 64.1328C58.6562 64.3151 59.0521 64.5417 59.375 64.8125L58.6875 65.7578C58.5729 65.6484 58.4375 65.5443 58.2812 65.4453C58.125 65.3464 57.9583 65.2604 57.7812 65.1875C57.6042 65.1094 57.4193 65.0469 57.2266 65C57.0339 64.9531 56.8438 64.9297 56.6562 64.9297C56.3698 64.9297 56.1276 64.9635 55.9297 65.0312C55.7318 65.0938 55.5729 65.1771 55.4531 65.2812C55.3333 65.3854 55.2448 65.5026 55.1875 65.6328C55.1354 65.763 55.1094 65.8906 55.1094 66.0156C55.1094 66.1979 55.1484 66.3516 55.2266 66.4766C55.3047 66.5964 55.4062 66.7005 55.5312 66.7891C55.6615 66.8776 55.8073 66.9531 55.9688 67.0156C56.1354 67.0781 56.3073 67.1406 56.4844 67.2031L57.1406 67.4219C57.4531 67.526 57.7396 67.638 58 67.7578C58.2604 67.8724 58.4896 68.0052 58.6875 68.1562C58.9375 68.3542 59.1302 68.5833 59.2656 68.8438C59.4062 69.1042 59.4766 69.4193 59.4766 69.7891ZM66.8359 69.7891C66.8359 70.1641 66.7526 70.5 66.5859 70.7969C66.4245 71.0885 66.2083 71.3359 65.9375 71.5391C65.6667 71.7422 65.3542 71.8958 65 72C64.651 72.1042 64.2917 72.1562 63.9219 72.1562C63.3385 72.1562 62.776 72.0573 62.2344 71.8594C61.6979 71.6562 61.2214 71.3672 60.8047 70.9922L61.5234 70.0625C61.6484 70.1719 61.7917 70.2865 61.9531 70.4062C62.1198 70.526 62.3047 70.638 62.5078 70.7422C62.7109 70.8411 62.9297 70.9245 63.1641 70.9922C63.3984 71.0547 63.6458 71.0859 63.9062 71.0859C64.1198 71.0859 64.3229 71.0599 64.5156 71.0078C64.7135 70.9505 64.8854 70.8698 65.0312 70.7656C65.1771 70.6562 65.2917 70.5286 65.375 70.3828C65.4635 70.2318 65.5078 70.0625 65.5078 69.875C65.5078 69.6667 65.4609 69.4922 65.3672 69.3516C65.2786 69.2109 65.1562 69.0911 65 68.9922C64.8438 68.8932 64.6615 68.8073 64.4531 68.7344C64.2448 68.6615 64.026 68.5885 63.7969 68.5156L63.2969 68.3516C63.0156 68.2578 62.7448 68.151 62.4844 68.0312C62.224 67.9115 61.9922 67.7656 61.7891 67.5938C61.5911 67.4167 61.4323 67.2083 61.3125 66.9688C61.1979 66.7292 61.1406 66.4427 61.1406 66.1094C61.1406 65.8385 61.1979 65.5703 61.3125 65.3047C61.4271 65.0339 61.6016 64.7917 61.8359 64.5781C62.0755 64.3646 62.3776 64.1927 62.7422 64.0625C63.1068 63.9271 63.5365 63.8594 64.0312 63.8594C64.5781 63.8594 65.0833 63.9505 65.5469 64.1328C66.0156 64.3151 66.4115 64.5417 66.7344 64.8125L66.0469 65.7578C65.9323 65.6484 65.7969 65.5443 65.6406 65.4453C65.4844 65.3464 65.3177 65.2604 65.1406 65.1875C64.9635 65.1094 64.7786 65.0469 64.5859 65C64.3932 64.9531 64.2031 64.9297 64.0156 64.9297C63.7292 64.9297 63.487 64.9635 63.2891 65.0312C63.0911 65.0938 62.9323 65.1771 62.8125 65.2812C62.6927 65.3854 62.6042 65.5026 62.5469 65.6328C62.4948 65.763 62.4688 65.8906 62.4688 66.0156C62.4688 66.1979 62.5078 66.3516 62.5859 66.4766C62.6641 66.5964 62.7656 66.7005 62.8906 66.7891C63.0208 66.8776 63.1667 66.9531 63.3281 67.0156C63.4948 67.0781 63.6667 67.1406 63.8438 67.2031L64.5 67.4219C64.8125 67.526 65.099 67.638 65.3594 67.7578C65.6198 67.8724 65.849 68.0052 66.0469 68.1562C66.2969 68.3542 66.4896 68.5833 66.625 68.8438C66.7656 69.1042 66.8359 69.4193 66.8359 69.7891ZM70.1641 72H68.8516V64.0156H70.1641V72ZM68.6094 61.7109C68.6094 61.5859 68.6328 61.4688 68.6797 61.3594C68.7318 61.25 68.7969 61.1536 68.875 61.0703C68.9583 60.987 69.0547 60.9219 69.1641 60.875C69.2786 60.8229 69.3984 60.7969 69.5234 60.7969C69.6484 60.7969 69.7656 60.8229 69.875 60.875C69.9844 60.9219 70.0781 60.987 70.1562 61.0703C70.2396 61.1536 70.3047 61.25 70.3516 61.3594C70.4036 61.4688 70.4297 61.5859 70.4297 61.7109C70.4297 61.8359 70.4036 61.9557 70.3516 62.0703C70.3047 62.1797 70.2396 62.276 70.1562 62.3594C70.0781 62.4375 69.9844 62.5026 69.875 62.5547C69.7656 62.6016 69.6484 62.625 69.5234 62.625C69.3984 62.625 69.2786 62.6016 69.1641 62.5547C69.0547 62.5026 68.9583 62.4375 68.875 62.3594C68.7969 62.276 68.7318 62.1797 68.6797 62.0703C68.6328 61.9557 68.6094 61.8359 68.6094 61.7109ZM75.7656 63.8594C76.3177 63.8594 76.8203 63.9635 77.2734 64.1719C77.7266 64.375 78.112 64.6615 78.4297 65.0312C78.7526 65.3958 79.0026 65.8333 79.1797 66.3438C79.3568 66.849 79.4453 67.4062 79.4453 68.0156C79.4453 68.6146 79.3568 69.1693 79.1797 69.6797C79.0026 70.1849 78.7526 70.6224 78.4297 70.9922C78.112 71.3568 77.7266 71.6432 77.2734 71.8516C76.8203 72.0547 76.3177 72.1562 75.7656 72.1562C75.2135 72.1562 74.7109 72.0547 74.2578 71.8516C73.8099 71.6432 73.4245 71.3568 73.1016 70.9922C72.7786 70.6224 72.5286 70.1849 72.3516 69.6797C72.1745 69.1693 72.0859 68.6146 72.0859 68.0156C72.0859 67.4062 72.1745 66.849 72.3516 66.3438C72.5286 65.8333 72.7786 65.3958 73.1016 65.0312C73.4245 64.6615 73.8099 64.375 74.2578 64.1719C74.7109 63.9635 75.2135 63.8594 75.7656 63.8594ZM75.7656 71.0078C76.1458 71.0078 76.4792 70.9297 76.7656 70.7734C77.0573 70.612 77.2995 70.3958 77.4922 70.125C77.6901 69.8542 77.8385 69.5417 77.9375 69.1875C78.0365 68.8281 78.0859 68.4531 78.0859 68.0625V67.9688C78.0859 67.5677 78.0365 67.1875 77.9375 66.8281C77.8385 66.4688 77.6901 66.1562 77.4922 65.8906C77.2995 65.6198 77.0573 65.4062 76.7656 65.25C76.4792 65.0885 76.1458 65.0078 75.7656 65.0078C75.3854 65.0078 75.0495 65.0885 74.7578 65.25C74.4714 65.4062 74.2292 65.6198 74.0312 65.8906C73.8385 66.1562 73.6927 66.4688 73.5938 66.8281C73.4948 67.1875 73.4453 67.5677 73.4453 67.9688V68.0625C73.4453 68.4531 73.4948 68.8281 73.5938 69.1875C73.6927 69.5417 73.8385 69.8542 74.0312 70.125C74.2292 70.3958 74.4714 70.612 74.7578 70.7734C75.0495 70.9297 75.3854 71.0078 75.7656 71.0078ZM81.3672 64.0156H82.6797V64.9297C82.9505 64.5599 83.2839 64.2891 83.6797 64.1172C84.0807 63.9453 84.526 63.8594 85.0156 63.8594C85.4583 63.8594 85.8464 63.9323 86.1797 64.0781C86.513 64.224 86.7917 64.4219 87.0156 64.6719C87.2396 64.9219 87.4062 65.2109 87.5156 65.5391C87.6302 65.8672 87.6875 66.2135 87.6875 66.5781V72H86.375V66.9922C86.375 66.6432 86.3307 66.3464 86.2422 66.1016C86.1589 65.8516 86.0417 65.651 85.8906 65.5C85.7448 65.3438 85.5703 65.2318 85.3672 65.1641C85.1693 65.0911 84.9557 65.0547 84.7266 65.0547C84.4766 65.0547 84.2292 65.1016 83.9844 65.1953C83.7448 65.2839 83.526 65.4193 83.3281 65.6016C83.1354 65.7839 82.9792 66.013 82.8594 66.2891C82.7396 66.5651 82.6797 66.8906 82.6797 67.2656V72H81.3672V64.0156Z" fill="#0B0C0C"/>
<path d="M100 16H134" stroke="#00703C" stroke-width="6"/>
<path d="M134 16H150" stroke="#00703C" stroke-width="6"/>
<path d="M150 16H166" stroke="#00703C" stroke-width="6"/>
<circle cx="150" cy="16" r="13" fill="#00703C" stroke="#00703C" stroke-width="6"/>
<path d="M166 16H200" stroke="#00703C" stroke-width="6"/>
<path d="M132.719 51.3984C132.719 50.5964 132.839 49.8464 133.078 49.1484C133.323 48.4453 133.672 47.8359 134.125 47.3203C134.578 46.7995 135.128 46.3906 135.773 46.0938C136.419 45.7917 137.146 45.6406 137.953 45.6406C138.536 45.6406 139.076 45.7161 139.57 45.8672C140.07 46.0182 140.518 46.2318 140.914 46.5078C141.315 46.7839 141.659 47.1172 141.945 47.5078C142.232 47.8984 142.458 48.3359 142.625 48.8203L140.445 49.5469C140.383 49.3385 140.284 49.125 140.148 48.9062C140.013 48.6823 139.841 48.4818 139.633 48.3047C139.424 48.1224 139.18 47.974 138.898 47.8594C138.622 47.7448 138.312 47.6875 137.969 47.6875C137.453 47.6875 137.01 47.7943 136.641 48.0078C136.276 48.2161 135.977 48.4948 135.742 48.8438C135.508 49.1875 135.333 49.5807 135.219 50.0234C135.109 50.4609 135.055 50.9089 135.055 51.3672V51.4297C135.055 51.8932 135.109 52.3464 135.219 52.7891C135.333 53.2266 135.508 53.6172 135.742 53.9609C135.977 54.3047 136.276 54.5833 136.641 54.7969C137.01 55.0052 137.453 55.1094 137.969 55.1094C138.312 55.1094 138.622 55.0521 138.898 54.9375C139.18 54.8229 139.424 54.6771 139.633 54.5C139.841 54.3177 140.013 54.1172 140.148 53.8984C140.284 53.6797 140.383 53.4661 140.445 53.2578L142.625 53.9766C142.458 54.4609 142.232 54.8984 141.945 55.2891C141.659 55.6797 141.315 56.0156 140.914 56.2969C140.518 56.5729 140.07 56.7865 139.57 56.9375C139.076 57.0833 138.536 57.1562 137.953 57.1562C137.146 57.1562 136.419 57.0078 135.773 56.7109C135.128 56.4141 134.578 56.0052 134.125 55.4844C133.672 54.9635 133.323 54.3542 133.078 53.6562C132.839 52.9583 132.719 52.2057 132.719 51.3984ZM146.727 53.6016C146.461 53.6432 146.247 53.737 146.086 53.8828C145.924 54.0234 145.844 54.2161 145.844 54.4609C145.844 54.7318 145.943 54.9661 146.141 55.1641C146.339 55.3568 146.63 55.4531 147.016 55.4531C147.422 55.4531 147.742 55.3359 147.977 55.1016C148.211 54.8672 148.328 54.5573 148.328 54.1719V53.3281L146.727 53.6016ZM148.68 56.2109C148.591 56.3099 148.482 56.4167 148.352 56.5312C148.227 56.6406 148.076 56.7422 147.898 56.8359C147.727 56.9245 147.523 57 147.289 57.0625C147.055 57.125 146.792 57.1562 146.5 57.1562C146.083 57.1562 145.698 57.0911 145.344 56.9609C144.995 56.8255 144.688 56.638 144.422 56.3984C144.156 56.1589 143.948 55.8828 143.797 55.5703C143.646 55.2526 143.57 54.9089 143.57 54.5391C143.57 53.8672 143.779 53.3177 144.195 52.8906C144.612 52.4635 145.188 52.1953 145.922 52.0859L148.328 51.7344V51.5781C148.328 51.2031 148.214 50.9062 147.984 50.6875C147.755 50.4688 147.383 50.3594 146.867 50.3594C146.654 50.3594 146.438 50.3854 146.219 50.4375C146 50.4844 145.789 50.5391 145.586 50.6016C145.388 50.6641 145.203 50.737 145.031 50.8203C144.859 50.8984 144.708 50.9688 144.578 51.0312L143.734 49.3828C144.214 49.1172 144.745 48.8984 145.328 48.7266C145.917 48.5547 146.526 48.4688 147.156 48.4688C147.542 48.4688 147.93 48.5104 148.32 48.5938C148.716 48.6719 149.073 48.8177 149.391 49.0312C149.714 49.2448 149.977 49.5365 150.18 49.9062C150.383 50.2708 150.484 50.737 150.484 51.3047V54.7422C150.484 54.987 150.547 55.1693 150.672 55.2891C150.802 55.4036 150.979 55.5104 151.203 55.6094L150.227 57.1562C149.831 57.1146 149.513 57.013 149.273 56.8516C149.034 56.6849 148.836 56.4714 148.68 56.2109ZM152.883 54.3281C153.19 54.6042 153.557 54.8411 153.984 55.0391C154.411 55.237 154.844 55.3359 155.281 55.3359C155.599 55.3359 155.849 55.276 156.031 55.1562C156.214 55.0312 156.305 54.8724 156.305 54.6797C156.305 54.3516 155.953 54.0964 155.25 53.9141L154.641 53.75C154.339 53.6771 154.034 53.5781 153.727 53.4531C153.419 53.3229 153.135 53.1536 152.875 52.9453C152.62 52.737 152.411 52.4844 152.25 52.1875C152.094 51.8854 152.016 51.5156 152.016 51.0781C152.016 50.7292 152.091 50.3984 152.242 50.0859C152.398 49.7682 152.617 49.4896 152.898 49.25C153.185 49.0104 153.531 48.8203 153.938 48.6797C154.344 48.5391 154.797 48.4688 155.297 48.4688C156.01 48.4688 156.646 48.5807 157.203 48.8047C157.766 49.0286 158.208 49.2812 158.531 49.5625L157.406 51C157.141 50.8073 156.826 50.6432 156.461 50.5078C156.102 50.3672 155.74 50.2969 155.375 50.2969C155.036 50.2969 154.773 50.3594 154.586 50.4844C154.398 50.6042 154.305 50.75 154.305 50.9219C154.305 51.1042 154.385 51.2526 154.547 51.3672C154.714 51.4766 154.953 51.5729 155.266 51.6562L156.172 51.9141C157.036 52.1589 157.656 52.4896 158.031 52.9062C158.406 53.3229 158.594 53.849 158.594 54.4844C158.594 54.8385 158.521 55.1771 158.375 55.5C158.229 55.8177 158.016 56.1016 157.734 56.3516C157.453 56.6016 157.104 56.7995 156.688 56.9453C156.271 57.0859 155.797 57.1562 155.266 57.1562C154.859 57.1562 154.477 57.1198 154.117 57.0469C153.763 56.974 153.432 56.875 153.125 56.75C152.823 56.6198 152.549 56.474 152.305 56.3125C152.06 56.151 151.852 55.9896 151.68 55.8281L152.883 54.3281ZM161.797 53.5625C161.833 53.8125 161.911 54.0417 162.031 54.25C162.156 54.4583 162.312 54.638 162.5 54.7891C162.688 54.9349 162.904 55.0495 163.148 55.1328C163.393 55.2161 163.654 55.2578 163.93 55.2578C164.247 55.2578 164.591 55.1979 164.961 55.0781C165.331 54.9531 165.669 54.7734 165.977 54.5391L167.016 56.0547C166.625 56.3828 166.146 56.6484 165.578 56.8516C165.01 57.0547 164.406 57.1562 163.766 57.1562C163.188 57.1562 162.643 57.0573 162.133 56.8594C161.622 56.6615 161.174 56.375 160.789 56C160.409 55.625 160.107 55.1693 159.883 54.6328C159.664 54.0964 159.555 53.4922 159.555 52.8203C159.555 52.2057 159.651 51.6328 159.844 51.1016C160.042 50.5703 160.315 50.1094 160.664 49.7188C161.018 49.3281 161.44 49.0234 161.93 48.8047C162.419 48.5807 162.961 48.4688 163.555 48.4688C164.107 48.4688 164.62 48.5703 165.094 48.7734C165.568 48.9714 165.979 49.2526 166.328 49.6172C166.677 49.9766 166.951 50.4089 167.148 50.9141C167.346 51.4193 167.445 51.9766 167.445 52.5859V53.5625H161.797ZM163.547 50.3438C163.083 50.3438 162.69 50.5 162.367 50.8125C162.049 51.1198 161.865 51.4922 161.812 51.9297H165.188C165.177 51.487 165.016 51.112 164.703 50.8047C164.391 50.4974 164.005 50.3438 163.547 50.3438ZM113.844 70.3281C114.151 70.6042 114.518 70.8411 114.945 71.0391C115.372 71.237 115.805 71.3359 116.242 71.3359C116.56 71.3359 116.81 71.276 116.992 71.1562C117.174 71.0312 117.266 70.8724 117.266 70.6797C117.266 70.3516 116.914 70.0964 116.211 69.9141L115.602 69.75C115.299 69.6771 114.995 69.5781 114.688 69.4531C114.38 69.3229 114.096 69.1536 113.836 68.9453C113.581 68.737 113.372 68.4844 113.211 68.1875C113.055 67.8854 112.977 67.5156 112.977 67.0781C112.977 66.7292 113.052 66.3984 113.203 66.0859C113.359 65.7682 113.578 65.4896 113.859 65.25C114.146 65.0104 114.492 64.8203 114.898 64.6797C115.305 64.5391 115.758 64.4688 116.258 64.4688C116.971 64.4688 117.607 64.5807 118.164 64.8047C118.727 65.0286 119.169 65.2812 119.492 65.5625L118.367 67C118.102 66.8073 117.786 66.6432 117.422 66.5078C117.062 66.3672 116.701 66.2969 116.336 66.2969C115.997 66.2969 115.734 66.3594 115.547 66.4844C115.359 66.6042 115.266 66.75 115.266 66.9219C115.266 67.1042 115.346 67.2526 115.508 67.3672C115.674 67.4766 115.914 67.5729 116.227 67.6562L117.133 67.9141C117.997 68.1589 118.617 68.4896 118.992 68.9062C119.367 69.3229 119.555 69.849 119.555 70.4844C119.555 70.8385 119.482 71.1771 119.336 71.5C119.19 71.8177 118.977 72.1016 118.695 72.3516C118.414 72.6016 118.065 72.7995 117.648 72.9453C117.232 73.0859 116.758 73.1562 116.227 73.1562C115.82 73.1562 115.438 73.1198 115.078 73.0469C114.724 72.974 114.393 72.875 114.086 72.75C113.784 72.6198 113.51 72.474 113.266 72.3125C113.021 72.151 112.812 71.9896 112.641 71.8281L113.844 70.3281ZM128.07 73H125.914V72.2812C125.794 72.3958 125.664 72.5078 125.523 72.6172C125.383 72.7214 125.227 72.8151 125.055 72.8984C124.883 72.9766 124.69 73.0391 124.477 73.0859C124.268 73.1328 124.036 73.1562 123.781 73.1562C123.328 73.1562 122.922 73.0833 122.562 72.9375C122.203 72.7865 121.898 72.5833 121.648 72.3281C121.404 72.0677 121.216 71.763 121.086 71.4141C120.956 71.0651 120.891 70.6875 120.891 70.2812V64.6328H123.047V69.4922C123.047 69.7891 123.078 70.0417 123.141 70.25C123.208 70.4583 123.299 70.6276 123.414 70.7578C123.534 70.8828 123.674 70.9766 123.836 71.0391C123.997 71.0964 124.172 71.125 124.359 71.125C124.578 71.125 124.781 71.0859 124.969 71.0078C125.161 70.9297 125.328 70.8125 125.469 70.6562C125.609 70.4948 125.719 70.2943 125.797 70.0547C125.875 69.8151 125.914 69.5339 125.914 69.2109V64.6328H128.07V73ZM137.891 68.8203C137.891 69.4401 137.799 70.0156 137.617 70.5469C137.435 71.0781 137.18 71.5365 136.852 71.9219C136.523 72.3073 136.13 72.6094 135.672 72.8281C135.214 73.0469 134.708 73.1562 134.156 73.1562C133.911 73.1562 133.688 73.1328 133.484 73.0859C133.286 73.0443 133.104 72.9844 132.938 72.9062C132.771 72.8281 132.617 72.737 132.477 72.6328C132.336 72.5234 132.208 72.4062 132.094 72.2812V73H129.938V61.7969H132.094V65.3516C132.328 65.1068 132.617 64.8984 132.961 64.7266C133.305 64.5547 133.721 64.4688 134.211 64.4688C134.763 64.4688 135.263 64.5807 135.711 64.8047C136.164 65.0234 136.552 65.3281 136.875 65.7188C137.198 66.1042 137.448 66.5625 137.625 67.0938C137.802 67.625 137.891 68.2005 137.891 68.8203ZM132.031 69.5938C132.031 69.8177 132.07 70.026 132.148 70.2188C132.232 70.4062 132.349 70.5703 132.5 70.7109C132.651 70.8516 132.831 70.9609 133.039 71.0391C133.253 71.1172 133.492 71.1562 133.758 71.1562C134.065 71.1562 134.336 71.1016 134.57 70.9922C134.81 70.8776 135.01 70.7188 135.172 70.5156C135.333 70.3125 135.456 70.0729 135.539 69.7969C135.622 69.5156 135.664 69.2083 135.664 68.875V68.7734C135.664 68.4401 135.622 68.1328 135.539 67.8516C135.456 67.5703 135.333 67.3281 135.172 67.125C135.01 66.9167 134.81 66.7552 134.57 66.6406C134.336 66.526 134.065 66.4688 133.758 66.4688C133.492 66.4688 133.253 66.5078 133.039 66.5859C132.831 66.6641 132.651 66.7734 132.5 66.9141C132.349 67.0547 132.232 67.2214 132.148 67.4141C132.07 67.6068 132.031 67.8151 132.031 68.0391V69.5938ZM146.383 73H144.219V68.1328C144.219 67.8359 144.185 67.5859 144.117 67.3828C144.055 67.1745 143.966 67.0078 143.852 66.8828C143.737 66.7526 143.604 66.6615 143.453 66.6094C143.302 66.5521 143.138 66.5234 142.961 66.5234C142.753 66.5234 142.557 66.5599 142.375 66.6328C142.198 66.7057 142.042 66.8203 141.906 66.9766C141.776 67.1328 141.672 67.3333 141.594 67.5781C141.521 67.8177 141.484 68.1042 141.484 68.4375V73H139.328V64.6328H141.484V65.3672C141.76 65.0599 142.081 64.8333 142.445 64.6875C142.815 64.5417 143.211 64.4688 143.633 64.4688C144.065 64.4688 144.469 64.5573 144.844 64.7344C145.224 64.9115 145.539 65.2031 145.789 65.6094C145.935 65.401 146.102 65.224 146.289 65.0781C146.482 64.9323 146.688 64.8151 146.906 64.7266C147.125 64.638 147.352 64.5729 147.586 64.5312C147.826 64.4896 148.07 64.4688 148.32 64.4688C148.789 64.4688 149.206 64.5469 149.57 64.7031C149.94 64.8542 150.253 65.0599 150.508 65.3203C150.763 65.5807 150.958 65.8802 151.094 66.2188C151.229 66.5573 151.297 66.9141 151.297 67.2891V73H149.117V68.1328C149.117 67.8359 149.083 67.5859 149.016 67.3828C148.953 67.1745 148.865 67.0078 148.75 66.8828C148.635 66.7526 148.5 66.6615 148.344 66.6094C148.193 66.5521 148.029 66.5234 147.852 66.5234C147.643 66.5234 147.451 66.5599 147.273 66.6328C147.096 66.7057 146.94 66.8203 146.805 66.9766C146.674 67.1328 146.57 67.3333 146.492 67.5781C146.419 67.8177 146.383 68.1042 146.383 68.4375V73ZM155.25 73H153.094V64.6328H155.25V73ZM152.867 62.4375C152.867 62.2604 152.901 62.0938 152.969 61.9375C153.036 61.776 153.128 61.638 153.242 61.5234C153.362 61.4036 153.5 61.3099 153.656 61.2422C153.812 61.1745 153.982 61.1406 154.164 61.1406C154.341 61.1406 154.508 61.1745 154.664 61.2422C154.826 61.3099 154.964 61.4036 155.078 61.5234C155.198 61.638 155.292 61.776 155.359 61.9375C155.427 62.0938 155.461 62.2604 155.461 62.4375C155.461 62.6198 155.427 62.7891 155.359 62.9453C155.292 63.1016 155.198 63.2396 155.078 63.3594C154.964 63.474 154.826 63.5651 154.664 63.6328C154.508 63.7005 154.341 63.7344 154.164 63.7344C153.982 63.7344 153.812 63.7005 153.656 63.6328C153.5 63.5651 153.362 63.474 153.242 63.3594C153.128 63.2396 153.036 63.1016 152.969 62.9453C152.901 62.7891 152.867 62.6198 152.867 62.4375ZM160.195 70.5078C160.195 70.6068 160.208 70.7005 160.234 70.7891C160.26 70.8776 160.305 70.9557 160.367 71.0234C160.435 71.0859 160.529 71.1354 160.648 71.1719C160.768 71.2083 160.922 71.2266 161.109 71.2266C161.188 71.2266 161.276 71.224 161.375 71.2188C161.474 71.2083 161.573 71.1979 161.672 71.1875C161.771 71.1771 161.862 71.1641 161.945 71.1484C162.034 71.1328 162.107 71.1198 162.164 71.1094L162.359 73.0156C162.156 73.0417 161.945 73.0651 161.727 73.0859C161.539 73.1068 161.331 73.1224 161.102 73.1328C160.872 73.1484 160.641 73.1562 160.406 73.1562C159.661 73.1562 159.081 72.987 158.664 72.6484C158.247 72.3099 158.039 71.7708 158.039 71.0312V66.5078H156.531V64.6328H158.039V62.2656L160.195 61.6875V64.6328H162.391V66.5078H160.195V70.5078ZM166.836 70.5078C166.836 70.6068 166.849 70.7005 166.875 70.7891C166.901 70.8776 166.945 70.9557 167.008 71.0234C167.076 71.0859 167.169 71.1354 167.289 71.1719C167.409 71.2083 167.562 71.2266 167.75 71.2266C167.828 71.2266 167.917 71.224 168.016 71.2188C168.115 71.2083 168.214 71.1979 168.312 71.1875C168.411 71.1771 168.503 71.1641 168.586 71.1484C168.674 71.1328 168.747 71.1198 168.805 71.1094L169 73.0156C168.797 73.0417 168.586 73.0651 168.367 73.0859C168.18 73.1068 167.971 73.1224 167.742 73.1328C167.513 73.1484 167.281 73.1562 167.047 73.1562C166.302 73.1562 165.721 72.987 165.305 72.6484C164.888 72.3099 164.68 71.7708 164.68 71.0312V66.5078H163.172V64.6328H164.68V62.2656L166.836 61.6875V64.6328H169.031V66.5078H166.836V70.5078ZM172.195 69.5625C172.232 69.8125 172.31 70.0417 172.43 70.25C172.555 70.4583 172.711 70.638 172.898 70.7891C173.086 70.9349 173.302 71.0495 173.547 71.1328C173.792 71.2161 174.052 71.2578 174.328 71.2578C174.646 71.2578 174.99 71.1979 175.359 71.0781C175.729 70.9531 176.068 70.7734 176.375 70.5391L177.414 72.0547C177.023 72.3828 176.544 72.6484 175.977 72.8516C175.409 73.0547 174.805 73.1562 174.164 73.1562C173.586 73.1562 173.042 73.0573 172.531 72.8594C172.021 72.6615 171.573 72.375 171.188 72C170.807 71.625 170.505 71.1693 170.281 70.6328C170.062 70.0964 169.953 69.4922 169.953 68.8203C169.953 68.2057 170.049 67.6328 170.242 67.1016C170.44 66.5703 170.714 66.1094 171.062 65.7188C171.417 65.3281 171.839 65.0234 172.328 64.8047C172.818 64.5807 173.359 64.4688 173.953 64.4688C174.505 64.4688 175.018 64.5703 175.492 64.7734C175.966 64.9714 176.378 65.2526 176.727 65.6172C177.076 65.9766 177.349 66.4089 177.547 66.9141C177.745 67.4193 177.844 67.9766 177.844 68.5859V69.5625H172.195ZM173.945 66.3438C173.482 66.3438 173.089 66.5 172.766 66.8125C172.448 67.1198 172.263 67.4922 172.211 67.9297H175.586C175.576 67.487 175.414 67.112 175.102 66.8047C174.789 66.4974 174.404 66.3438 173.945 66.3438ZM184.594 73V72.2812C184.479 72.4062 184.352 72.5234 184.211 72.6328C184.076 72.737 183.922 72.8281 183.75 72.9062C183.583 72.9844 183.398 73.0443 183.195 73.0859C182.997 73.1328 182.776 73.1562 182.531 73.1562C181.979 73.1562 181.474 73.0469 181.016 72.8281C180.557 72.6094 180.164 72.3073 179.836 71.9219C179.508 71.5365 179.253 71.0781 179.07 70.5469C178.893 70.0156 178.805 69.4401 178.805 68.8203C178.805 68.2005 178.893 67.625 179.07 67.0938C179.247 66.5625 179.495 66.1042 179.812 65.7188C180.135 65.3281 180.523 65.0234 180.977 64.8047C181.43 64.5807 181.932 64.4688 182.484 64.4688C182.974 64.4688 183.388 64.5547 183.727 64.7266C184.07 64.8932 184.359 65.1016 184.594 65.3516V61.7969H186.75V73H184.594ZM184.656 68.0391C184.656 67.8151 184.615 67.6068 184.531 67.4141C184.453 67.2214 184.339 67.0547 184.188 66.9141C184.036 66.7734 183.854 66.6641 183.641 66.5859C183.432 66.5078 183.195 66.4688 182.93 66.4688C182.622 66.4688 182.349 66.526 182.109 66.6406C181.875 66.7552 181.677 66.9167 181.516 67.125C181.354 67.3281 181.232 67.5703 181.148 67.8516C181.065 68.1328 181.023 68.4401 181.023 68.7734V68.875C181.023 69.2083 181.065 69.5156 181.148 69.7969C181.232 70.0729 181.354 70.3125 181.516 70.5156C181.677 70.7188 181.875 70.8776 182.109 70.9922C182.349 71.1016 182.622 71.1562 182.93 71.1562C183.195 71.1562 183.432 71.1172 183.641 71.0391C183.854 70.9609 184.036 70.8516 184.188 70.7109C184.339 70.5703 184.453 70.4062 184.531 70.2188C184.615 70.026 184.656 69.8177 184.656 69.5938V68.0391Z" fill="#0B0C0C"/>
<path d="M200 16H234" stroke="#00703C" stroke-width="6"/>
<path d="M234 16H250" stroke="#00703C" stroke-width="6"/>
<path d="M250 16H266" stroke="#00703C" stroke-width="6"/>
<circle cx="250" cy="16" r="13" fill="white" stroke="#00703C" stroke-width="6"/>
<path d="M266 16H300" stroke="#00703C" stroke-width="6"/>
<path d="M233.625 50.4141C233.625 49.612 233.737 48.862 233.961 48.1641C234.185 47.4609 234.508 46.8516 234.93 46.3359C235.352 45.8151 235.862 45.4062 236.461 45.1094C237.065 44.8073 237.745 44.6562 238.5 44.6562C239.026 44.6562 239.508 44.7266 239.945 44.8672C240.388 45.0026 240.784 45.1979 241.133 45.4531C241.482 45.7031 241.784 46.0078 242.039 46.3672C242.299 46.7214 242.513 47.1172 242.68 47.5547L241.367 48C241.284 47.7448 241.161 47.4896 241 47.2344C240.839 46.9792 240.638 46.75 240.398 46.5469C240.159 46.3438 239.88 46.1797 239.562 46.0547C239.245 45.9245 238.891 45.8594 238.5 45.8594C237.917 45.8594 237.409 45.9844 236.977 46.2344C236.549 46.4792 236.195 46.8073 235.914 47.2188C235.633 47.6302 235.422 48.1068 235.281 48.6484C235.146 49.1849 235.078 49.7422 235.078 50.3203V50.5156C235.078 51.0938 235.146 51.651 235.281 52.1875C235.422 52.724 235.633 53.1979 235.914 53.6094C236.195 54.0156 236.549 54.3438 236.977 54.5938C237.409 54.8385 237.917 54.9609 238.5 54.9609C238.891 54.9609 239.245 54.8984 239.562 54.7734C239.88 54.6432 240.159 54.4766 240.398 54.2734C240.638 54.0703 240.839 53.8411 241 53.5859C241.161 53.3307 241.284 53.0729 241.367 52.8125L242.68 53.2656C242.513 53.7031 242.299 54.099 242.039 54.4531C241.784 54.8073 241.482 55.112 241.133 55.3672C240.784 55.6172 240.388 55.8125 239.945 55.9531C239.508 56.0885 239.026 56.1562 238.5 56.1562C237.745 56.1562 237.065 56.0078 236.461 55.7109C235.862 55.4141 235.352 55.0078 234.93 54.4922C234.508 53.9766 234.185 53.3698 233.961 52.6719C233.737 51.974 233.625 51.2214 233.625 50.4141ZM249.203 55.2031C248.969 55.474 248.651 55.7005 248.25 55.8828C247.854 56.0651 247.388 56.1562 246.852 56.1562C246.456 56.1562 246.089 56.1016 245.75 55.9922C245.411 55.8776 245.117 55.7161 244.867 55.5078C244.617 55.2995 244.422 55.0469 244.281 54.75C244.141 54.4531 244.07 54.1172 244.07 53.7422C244.07 53.4297 244.12 53.1458 244.219 52.8906C244.323 52.6302 244.466 52.4036 244.648 52.2109C244.836 52.0182 245.06 51.862 245.32 51.7422C245.581 51.6172 245.872 51.5312 246.195 51.4844L249.016 51.1016V50.5938C249.016 50.2917 248.969 50.0391 248.875 49.8359C248.781 49.6276 248.654 49.4635 248.492 49.3438C248.336 49.224 248.148 49.138 247.93 49.0859C247.716 49.0339 247.484 49.0078 247.234 49.0078C246.786 49.0078 246.367 49.0703 245.977 49.1953C245.591 49.3203 245.242 49.4661 244.93 49.6328L244.438 48.5938C244.896 48.3333 245.375 48.1458 245.875 48.0312C246.38 47.9167 246.878 47.8594 247.367 47.8594C248.341 47.8594 249.078 48.0807 249.578 48.5234C250.078 48.9609 250.328 49.6016 250.328 50.4453V54.125C250.328 54.3906 250.38 54.6146 250.484 54.7969C250.589 54.974 250.755 55.1146 250.984 55.2188L250.242 56.1562C249.992 56.0938 249.776 55.9844 249.594 55.8281C249.417 55.6667 249.292 55.474 249.219 55.25L249.203 55.2031ZM246.867 52.4453C246.648 52.4766 246.448 52.5208 246.266 52.5781C246.089 52.6354 245.938 52.7135 245.812 52.8125C245.688 52.9062 245.589 53.0234 245.516 53.1641C245.448 53.3047 245.414 53.4766 245.414 53.6797C245.414 53.9141 245.458 54.1224 245.547 54.3047C245.635 54.487 245.755 54.6406 245.906 54.7656C246.057 54.8906 246.232 54.987 246.43 55.0547C246.633 55.1172 246.844 55.1484 247.062 55.1484C247.307 55.1484 247.547 55.1146 247.781 55.0469C248.016 54.9792 248.224 54.8828 248.406 54.7578C248.589 54.6276 248.734 54.4714 248.844 54.2891C248.958 54.1068 249.016 53.8984 249.016 53.6641V52.125L246.867 52.4453ZM258.055 53.7891C258.055 54.1641 257.971 54.5 257.805 54.7969C257.643 55.0885 257.427 55.3359 257.156 55.5391C256.885 55.7422 256.573 55.8958 256.219 56C255.87 56.1042 255.51 56.1562 255.141 56.1562C254.557 56.1562 253.995 56.0573 253.453 55.8594C252.917 55.6562 252.44 55.3672 252.023 54.9922L252.742 54.0625C252.867 54.1719 253.01 54.2865 253.172 54.4062C253.339 54.526 253.523 54.638 253.727 54.7422C253.93 54.8411 254.148 54.9245 254.383 54.9922C254.617 55.0547 254.865 55.0859 255.125 55.0859C255.339 55.0859 255.542 55.0599 255.734 55.0078C255.932 54.9505 256.104 54.8698 256.25 54.7656C256.396 54.6562 256.51 54.5286 256.594 54.3828C256.682 54.2318 256.727 54.0625 256.727 53.875C256.727 53.6667 256.68 53.4922 256.586 53.3516C256.497 53.2109 256.375 53.0911 256.219 52.9922C256.062 52.8932 255.88 52.8073 255.672 52.7344C255.464 52.6615 255.245 52.5885 255.016 52.5156L254.516 52.3516C254.234 52.2578 253.964 52.151 253.703 52.0312C253.443 51.9115 253.211 51.7656 253.008 51.5938C252.81 51.4167 252.651 51.2083 252.531 50.9688C252.417 50.7292 252.359 50.4427 252.359 50.1094C252.359 49.8385 252.417 49.5703 252.531 49.3047C252.646 49.0339 252.82 48.7917 253.055 48.5781C253.294 48.3646 253.596 48.1927 253.961 48.0625C254.326 47.9271 254.755 47.8594 255.25 47.8594C255.797 47.8594 256.302 47.9505 256.766 48.1328C257.234 48.3151 257.63 48.5417 257.953 48.8125L257.266 49.7578C257.151 49.6484 257.016 49.5443 256.859 49.4453C256.703 49.3464 256.536 49.2604 256.359 49.1875C256.182 49.1094 255.997 49.0469 255.805 49C255.612 48.9531 255.422 48.9297 255.234 48.9297C254.948 48.9297 254.706 48.9635 254.508 49.0312C254.31 49.0938 254.151 49.1771 254.031 49.2812C253.911 49.3854 253.823 49.5026 253.766 49.6328C253.714 49.763 253.688 49.8906 253.688 50.0156C253.688 50.1979 253.727 50.3516 253.805 50.4766C253.883 50.5964 253.984 50.7005 254.109 50.7891C254.24 50.8776 254.385 50.9531 254.547 51.0156C254.714 51.0781 254.885 51.1406 255.062 51.2031L255.719 51.4219C256.031 51.526 256.318 51.638 256.578 51.7578C256.839 51.8724 257.068 52.0052 257.266 52.1562C257.516 52.3542 257.708 52.5833 257.844 52.8438C257.984 53.1042 258.055 53.4193 258.055 53.7891ZM260.961 52.4141C260.987 52.7891 261.062 53.1354 261.188 53.4531C261.312 53.7708 261.482 54.0469 261.695 54.2812C261.914 54.5104 262.169 54.6901 262.461 54.8203C262.758 54.9453 263.086 55.0078 263.445 55.0078C263.888 55.0078 264.276 54.9349 264.609 54.7891C264.948 54.638 265.258 54.4505 265.539 54.2266L266.211 55.1719C265.852 55.4583 265.435 55.6953 264.961 55.8828C264.492 56.0651 263.966 56.1562 263.383 56.1562C262.805 56.1562 262.281 56.0547 261.812 55.8516C261.344 55.6432 260.943 55.3568 260.609 54.9922C260.281 54.6224 260.029 54.1849 259.852 53.6797C259.674 53.1693 259.586 52.6146 259.586 52.0156C259.586 51.4062 259.672 50.849 259.844 50.3438C260.021 49.8333 260.268 49.3958 260.586 49.0312C260.904 48.6615 261.284 48.375 261.727 48.1719C262.169 47.9635 262.661 47.8594 263.203 47.8594C263.729 47.8594 264.203 47.9635 264.625 48.1719C265.047 48.375 265.406 48.6615 265.703 49.0312C266 49.3958 266.227 49.8333 266.383 50.3438C266.544 50.849 266.625 51.401 266.625 52V52.4141H260.961ZM263.156 49.0078C262.823 49.0078 262.526 49.0729 262.266 49.2031C262.005 49.3333 261.781 49.5078 261.594 49.7266C261.411 49.9453 261.266 50.1979 261.156 50.4844C261.052 50.7656 260.992 51.0573 260.977 51.3594H265.203C265.193 51.0521 265.138 50.7578 265.039 50.4766C264.945 50.1901 264.81 49.9401 264.633 49.7266C264.461 49.5078 264.25 49.3333 264 49.2031C263.755 49.0729 263.474 49.0078 263.156 49.0078ZM230.281 72H228.969V64.0156H230.281V72ZM228.727 61.7109C228.727 61.5859 228.75 61.4688 228.797 61.3594C228.849 61.25 228.914 61.1536 228.992 61.0703C229.076 60.987 229.172 60.9219 229.281 60.875C229.396 60.8229 229.516 60.7969 229.641 60.7969C229.766 60.7969 229.883 60.8229 229.992 60.875C230.102 60.9219 230.195 60.987 230.273 61.0703C230.357 61.1536 230.422 61.25 230.469 61.3594C230.521 61.4688 230.547 61.5859 230.547 61.7109C230.547 61.8359 230.521 61.9557 230.469 62.0703C230.422 62.1797 230.357 62.276 230.273 62.3594C230.195 62.4375 230.102 62.5026 229.992 62.5547C229.883 62.6016 229.766 62.625 229.641 62.625C229.516 62.625 229.396 62.6016 229.281 62.5547C229.172 62.5026 229.076 62.4375 228.992 62.3594C228.914 62.276 228.849 62.1797 228.797 62.0703C228.75 61.9557 228.727 61.8359 228.727 61.7109ZM238.031 69.7891C238.031 70.1641 237.948 70.5 237.781 70.7969C237.62 71.0885 237.404 71.3359 237.133 71.5391C236.862 71.7422 236.549 71.8958 236.195 72C235.846 72.1042 235.487 72.1562 235.117 72.1562C234.534 72.1562 233.971 72.0573 233.43 71.8594C232.893 71.6562 232.417 71.3672 232 70.9922L232.719 70.0625C232.844 70.1719 232.987 70.2865 233.148 70.4062C233.315 70.526 233.5 70.638 233.703 70.7422C233.906 70.8411 234.125 70.9245 234.359 70.9922C234.594 71.0547 234.841 71.0859 235.102 71.0859C235.315 71.0859 235.518 71.0599 235.711 71.0078C235.909 70.9505 236.081 70.8698 236.227 70.7656C236.372 70.6562 236.487 70.5286 236.57 70.3828C236.659 70.2318 236.703 70.0625 236.703 69.875C236.703 69.6667 236.656 69.4922 236.562 69.3516C236.474 69.2109 236.352 69.0911 236.195 68.9922C236.039 68.8932 235.857 68.8073 235.648 68.7344C235.44 68.6615 235.221 68.5885 234.992 68.5156L234.492 68.3516C234.211 68.2578 233.94 68.151 233.68 68.0312C233.419 67.9115 233.188 67.7656 232.984 67.5938C232.786 67.4167 232.628 67.2083 232.508 66.9688C232.393 66.7292 232.336 66.4427 232.336 66.1094C232.336 65.8385 232.393 65.5703 232.508 65.3047C232.622 65.0339 232.797 64.7917 233.031 64.5781C233.271 64.3646 233.573 64.1927 233.938 64.0625C234.302 63.9271 234.732 63.8594 235.227 63.8594C235.773 63.8594 236.279 63.9505 236.742 64.1328C237.211 64.3151 237.607 64.5417 237.93 64.8125L237.242 65.7578C237.128 65.6484 236.992 65.5443 236.836 65.4453C236.68 65.3464 236.513 65.2604 236.336 65.1875C236.159 65.1094 235.974 65.0469 235.781 65C235.589 64.9531 235.398 64.9297 235.211 64.9297C234.924 64.9297 234.682 64.9635 234.484 65.0312C234.286 65.0938 234.128 65.1771 234.008 65.2812C233.888 65.3854 233.799 65.5026 233.742 65.6328C233.69 65.763 233.664 65.8906 233.664 66.0156C233.664 66.1979 233.703 66.3516 233.781 66.4766C233.859 66.5964 233.961 66.7005 234.086 66.7891C234.216 66.8776 234.362 66.9531 234.523 67.0156C234.69 67.0781 234.862 67.1406 235.039 67.2031L235.695 67.4219C236.008 67.526 236.294 67.638 236.555 67.7578C236.815 67.8724 237.044 68.0052 237.242 68.1562C237.492 68.3542 237.685 68.5833 237.82 68.8438C237.961 69.1042 238.031 69.4193 238.031 69.7891ZM245.391 69.7891C245.391 70.1641 245.307 70.5 245.141 70.7969C244.979 71.0885 244.763 71.3359 244.492 71.5391C244.221 71.7422 243.909 71.8958 243.555 72C243.206 72.1042 242.846 72.1562 242.477 72.1562C241.893 72.1562 241.331 72.0573 240.789 71.8594C240.253 71.6562 239.776 71.3672 239.359 70.9922L240.078 70.0625C240.203 70.1719 240.346 70.2865 240.508 70.4062C240.674 70.526 240.859 70.638 241.062 70.7422C241.266 70.8411 241.484 70.9245 241.719 70.9922C241.953 71.0547 242.201 71.0859 242.461 71.0859C242.674 71.0859 242.878 71.0599 243.07 71.0078C243.268 70.9505 243.44 70.8698 243.586 70.7656C243.732 70.6562 243.846 70.5286 243.93 70.3828C244.018 70.2318 244.062 70.0625 244.062 69.875C244.062 69.6667 244.016 69.4922 243.922 69.3516C243.833 69.2109 243.711 69.0911 243.555 68.9922C243.398 68.8932 243.216 68.8073 243.008 68.7344C242.799 68.6615 242.581 68.5885 242.352 68.5156L241.852 68.3516C241.57 68.2578 241.299 68.151 241.039 68.0312C240.779 67.9115 240.547 67.7656 240.344 67.5938C240.146 67.4167 239.987 67.2083 239.867 66.9688C239.753 66.7292 239.695 66.4427 239.695 66.1094C239.695 65.8385 239.753 65.5703 239.867 65.3047C239.982 65.0339 240.156 64.7917 240.391 64.5781C240.63 64.3646 240.932 64.1927 241.297 64.0625C241.661 63.9271 242.091 63.8594 242.586 63.8594C243.133 63.8594 243.638 63.9505 244.102 64.1328C244.57 64.3151 244.966 64.5417 245.289 64.8125L244.602 65.7578C244.487 65.6484 244.352 65.5443 244.195 65.4453C244.039 65.3464 243.872 65.2604 243.695 65.1875C243.518 65.1094 243.333 65.0469 243.141 65C242.948 64.9531 242.758 64.9297 242.57 64.9297C242.284 64.9297 242.042 64.9635 241.844 65.0312C241.646 65.0938 241.487 65.1771 241.367 65.2812C241.247 65.3854 241.159 65.5026 241.102 65.6328C241.049 65.763 241.023 65.8906 241.023 66.0156C241.023 66.1979 241.062 66.3516 241.141 66.4766C241.219 66.5964 241.32 66.7005 241.445 66.7891C241.576 66.8776 241.721 66.9531 241.883 67.0156C242.049 67.0781 242.221 67.1406 242.398 67.2031L243.055 67.4219C243.367 67.526 243.654 67.638 243.914 67.7578C244.174 67.8724 244.404 68.0052 244.602 68.1562C244.852 68.3542 245.044 68.5833 245.18 68.8438C245.32 69.1042 245.391 69.4193 245.391 69.7891ZM253.656 72H252.344V71.0859C252.073 71.4557 251.737 71.7266 251.336 71.8984C250.94 72.0703 250.497 72.1562 250.008 72.1562C249.565 72.1562 249.177 72.0833 248.844 71.9375C248.51 71.7917 248.232 71.5938 248.008 71.3438C247.784 71.0938 247.615 70.8047 247.5 70.4766C247.391 70.1484 247.336 69.8021 247.336 69.4375V64.0156H248.648V69.0234C248.648 69.3776 248.69 69.6771 248.773 69.9219C248.862 70.1667 248.979 70.3672 249.125 70.5234C249.276 70.6745 249.451 70.7865 249.648 70.8594C249.852 70.9271 250.068 70.9609 250.297 70.9609C250.568 70.9609 250.826 70.9167 251.07 70.8281C251.32 70.7344 251.539 70.5964 251.727 70.4141C251.914 70.2318 252.062 70.0026 252.172 69.7266C252.286 69.4505 252.344 69.125 252.344 68.75V64.0156H253.656V72ZM256.953 68.4141C256.979 68.7891 257.055 69.1354 257.18 69.4531C257.305 69.7708 257.474 70.0469 257.688 70.2812C257.906 70.5104 258.161 70.6901 258.453 70.8203C258.75 70.9453 259.078 71.0078 259.438 71.0078C259.88 71.0078 260.268 70.9349 260.602 70.7891C260.94 70.638 261.25 70.4505 261.531 70.2266L262.203 71.1719C261.844 71.4583 261.427 71.6953 260.953 71.8828C260.484 72.0651 259.958 72.1562 259.375 72.1562C258.797 72.1562 258.273 72.0547 257.805 71.8516C257.336 71.6432 256.935 71.3568 256.602 70.9922C256.273 70.6224 256.021 70.1849 255.844 69.6797C255.667 69.1693 255.578 68.6146 255.578 68.0156C255.578 67.4062 255.664 66.849 255.836 66.3438C256.013 65.8333 256.26 65.3958 256.578 65.0312C256.896 64.6615 257.276 64.375 257.719 64.1719C258.161 63.9635 258.654 63.8594 259.195 63.8594C259.721 63.8594 260.195 63.9635 260.617 64.1719C261.039 64.375 261.398 64.6615 261.695 65.0312C261.992 65.3958 262.219 65.8333 262.375 66.3438C262.536 66.849 262.617 67.401 262.617 68V68.4141H256.953ZM259.148 65.0078C258.815 65.0078 258.518 65.0729 258.258 65.2031C257.997 65.3333 257.773 65.5078 257.586 65.7266C257.404 65.9453 257.258 66.1979 257.148 66.4844C257.044 66.7656 256.984 67.0573 256.969 67.3594H261.195C261.185 67.0521 261.13 66.7578 261.031 66.4766C260.938 66.1901 260.802 65.9401 260.625 65.7266C260.453 65.5078 260.242 65.3333 259.992 65.2031C259.747 65.0729 259.466 65.0078 259.148 65.0078ZM269.711 71.0859C269.477 71.4141 269.156 71.6745 268.75 71.8672C268.349 72.0599 267.891 72.1562 267.375 72.1562C266.859 72.1562 266.393 72.0547 265.977 71.8516C265.56 71.6432 265.203 71.3568 264.906 70.9922C264.609 70.6224 264.38 70.1849 264.219 69.6797C264.062 69.1745 263.984 68.6198 263.984 68.0156C263.984 67.4115 264.062 66.8568 264.219 66.3516C264.38 65.8411 264.609 65.401 264.906 65.0312C265.203 64.6615 265.56 64.375 265.977 64.1719C266.393 63.9635 266.859 63.8594 267.375 63.8594C267.891 63.8594 268.349 63.9557 268.75 64.1484C269.156 64.3411 269.477 64.6016 269.711 64.9297V60.7969H271.023V72H269.711V71.0859ZM265.344 68.0469C265.344 68.4635 265.393 68.8516 265.492 69.2109C265.591 69.5703 265.737 69.8828 265.93 70.1484C266.122 70.4089 266.359 70.6146 266.641 70.7656C266.922 70.9167 267.247 70.9922 267.617 70.9922C267.966 70.9922 268.271 70.9323 268.531 70.8125C268.797 70.6927 269.018 70.5286 269.195 70.3203C269.372 70.112 269.505 69.8672 269.594 69.5859C269.682 69.2995 269.727 68.9896 269.727 68.6562V67.3594C269.727 67.026 269.682 66.7188 269.594 66.4375C269.505 66.151 269.372 65.9036 269.195 65.6953C269.018 65.487 268.797 65.3229 268.531 65.2031C268.271 65.0833 267.966 65.0234 267.617 65.0234C267.247 65.0234 266.922 65.099 266.641 65.25C266.359 65.401 266.122 65.6094 265.93 65.875C265.737 66.1354 265.591 66.4453 265.492 66.8047C265.393 67.1641 265.344 67.5521 265.344 67.9688V68.0469Z" fill="#0B0C0C"/>
<path d="M300 16H334" stroke="#00703C" stroke-width="6"/>
<path d="M334 16H350" stroke="#00703C" stroke-width="6"/>
<path d="M350 16H366" stroke="#00703C" stroke-width="6"/>
<circle cx="350" cy="16" r="13" fill="white" stroke="#00703C" stroke-width="6"/>
<path d="M366 16H400" stroke="#00703C" stroke-width="6"/>
<path d="M327.234 53.3125H322.836L322.055 56H320.594L324.07 44.7969H326.055L329.555 56H328.039L327.234 53.3125ZM323.172 52.1406H326.898L325.094 46.0312H324.969L323.172 52.1406ZM337.773 54.4453L339.219 48.0156H340.609L338.656 56H336.977L335.359 49.6016L333.711 56H332.094L330.156 48.0156H331.57L332.961 54.4453L334.641 48.0156H336.125L337.773 54.4453ZM346.844 55.2031C346.609 55.474 346.292 55.7005 345.891 55.8828C345.495 56.0651 345.029 56.1562 344.492 56.1562C344.096 56.1562 343.729 56.1016 343.391 55.9922C343.052 55.8776 342.758 55.7161 342.508 55.5078C342.258 55.2995 342.062 55.0469 341.922 54.75C341.781 54.4531 341.711 54.1172 341.711 53.7422C341.711 53.4297 341.76 53.1458 341.859 52.8906C341.964 52.6302 342.107 52.4036 342.289 52.2109C342.477 52.0182 342.701 51.862 342.961 51.7422C343.221 51.6172 343.513 51.5312 343.836 51.4844L346.656 51.1016V50.5938C346.656 50.2917 346.609 50.0391 346.516 49.8359C346.422 49.6276 346.294 49.4635 346.133 49.3438C345.977 49.224 345.789 49.138 345.57 49.0859C345.357 49.0339 345.125 49.0078 344.875 49.0078C344.427 49.0078 344.008 49.0703 343.617 49.1953C343.232 49.3203 342.883 49.4661 342.57 49.6328L342.078 48.5938C342.536 48.3333 343.016 48.1458 343.516 48.0312C344.021 47.9167 344.518 47.8594 345.008 47.8594C345.982 47.8594 346.719 48.0807 347.219 48.5234C347.719 48.9609 347.969 49.6016 347.969 50.4453V54.125C347.969 54.3906 348.021 54.6146 348.125 54.7969C348.229 54.974 348.396 55.1146 348.625 55.2188L347.883 56.1562C347.633 56.0938 347.417 55.9844 347.234 55.8281C347.057 55.6667 346.932 55.474 346.859 55.25L346.844 55.2031ZM344.508 52.4453C344.289 52.4766 344.089 52.5208 343.906 52.5781C343.729 52.6354 343.578 52.7135 343.453 52.8125C343.328 52.9062 343.229 53.0234 343.156 53.1641C343.089 53.3047 343.055 53.4766 343.055 53.6797C343.055 53.9141 343.099 54.1224 343.188 54.3047C343.276 54.487 343.396 54.6406 343.547 54.7656C343.698 54.8906 343.872 54.987 344.07 55.0547C344.273 55.1172 344.484 55.1484 344.703 55.1484C344.948 55.1484 345.188 55.1146 345.422 55.0469C345.656 54.9792 345.865 54.8828 346.047 54.7578C346.229 54.6276 346.375 54.4714 346.484 54.2891C346.599 54.1068 346.656 53.8984 346.656 53.6641V52.125L344.508 52.4453ZM351.664 56H350.352V48.0156H351.664V56ZM350.109 45.7109C350.109 45.5859 350.133 45.4688 350.18 45.3594C350.232 45.25 350.297 45.1536 350.375 45.0703C350.458 44.987 350.555 44.9219 350.664 44.875C350.779 44.8229 350.898 44.7969 351.023 44.7969C351.148 44.7969 351.266 44.8229 351.375 44.875C351.484 44.9219 351.578 44.987 351.656 45.0703C351.74 45.1536 351.805 45.25 351.852 45.3594C351.904 45.4688 351.93 45.5859 351.93 45.7109C351.93 45.8359 351.904 45.9557 351.852 46.0703C351.805 46.1797 351.74 46.276 351.656 46.3594C351.578 46.4375 351.484 46.5026 351.375 46.5547C351.266 46.6016 351.148 46.625 351.023 46.625C350.898 46.625 350.779 46.6016 350.664 46.5547C350.555 46.5026 350.458 46.4375 350.375 46.3594C350.297 46.276 350.232 46.1797 350.18 46.0703C350.133 45.9557 350.109 45.8359 350.109 45.7109ZM356.133 54.0156C356.133 54.151 356.141 54.2786 356.156 54.3984C356.177 54.513 356.221 54.6146 356.289 54.7031C356.362 54.7917 356.466 54.862 356.602 54.9141C356.737 54.9661 356.922 54.9922 357.156 54.9922C357.219 54.9922 357.292 54.9896 357.375 54.9844C357.464 54.9792 357.555 54.974 357.648 54.9688C357.742 54.9583 357.833 54.9479 357.922 54.9375C358.01 54.9219 358.086 54.9089 358.148 54.8984L358.289 56.0469C358.138 56.0677 357.982 56.0859 357.82 56.1016C357.685 56.1172 357.534 56.1302 357.367 56.1406C357.201 56.151 357.034 56.1562 356.867 56.1562C356.549 56.1562 356.263 56.1224 356.008 56.0547C355.758 55.9922 355.544 55.888 355.367 55.7422C355.19 55.5964 355.055 55.4062 354.961 55.1719C354.867 54.9323 354.82 54.6432 354.82 54.3047V49.1719H353.312V48.0156H354.82V45.4062L356.133 44.9453V48.0156H358.352V49.1719H356.133V54.0156ZM361.289 56H359.977V48.0156H361.289V56ZM359.734 45.7109C359.734 45.5859 359.758 45.4688 359.805 45.3594C359.857 45.25 359.922 45.1536 360 45.0703C360.083 44.987 360.18 44.9219 360.289 44.875C360.404 44.8229 360.523 44.7969 360.648 44.7969C360.773 44.7969 360.891 44.8229 361 44.875C361.109 44.9219 361.203 44.987 361.281 45.0703C361.365 45.1536 361.43 45.25 361.477 45.3594C361.529 45.4688 361.555 45.5859 361.555 45.7109C361.555 45.8359 361.529 45.9557 361.477 46.0703C361.43 46.1797 361.365 46.276 361.281 46.3594C361.203 46.4375 361.109 46.5026 361 46.5547C360.891 46.6016 360.773 46.625 360.648 46.625C360.523 46.625 360.404 46.6016 360.289 46.5547C360.18 46.5026 360.083 46.4375 360 46.3594C359.922 46.276 359.857 46.1797 359.805 46.0703C359.758 45.9557 359.734 45.8359 359.734 45.7109ZM363.695 48.0156H365.008V48.9297C365.279 48.5599 365.612 48.2891 366.008 48.1172C366.409 47.9453 366.854 47.8594 367.344 47.8594C367.786 47.8594 368.174 47.9323 368.508 48.0781C368.841 48.224 369.12 48.4219 369.344 48.6719C369.568 48.9219 369.734 49.2109 369.844 49.5391C369.958 49.8672 370.016 50.2135 370.016 50.5781V56H368.703V50.9922C368.703 50.6432 368.659 50.3464 368.57 50.1016C368.487 49.8516 368.37 49.651 368.219 49.5C368.073 49.3438 367.898 49.2318 367.695 49.1641C367.497 49.0911 367.284 49.0547 367.055 49.0547C366.805 49.0547 366.557 49.1016 366.312 49.1953C366.073 49.2839 365.854 49.4193 365.656 49.6016C365.464 49.7839 365.307 50.013 365.188 50.2891C365.068 50.5651 365.008 50.8906 365.008 51.2656V56H363.695V48.0156ZM371.898 51.5703C371.898 51.0443 371.974 50.5547 372.125 50.1016C372.276 49.6484 372.492 49.2578 372.773 48.9297C373.055 48.5964 373.393 48.3359 373.789 48.1484C374.19 47.9557 374.638 47.8594 375.133 47.8594C375.57 47.8594 375.987 47.9453 376.383 48.1172C376.779 48.2839 377.115 48.5547 377.391 48.9297V48.0156H378.703V56C378.703 56.4948 378.602 56.9089 378.398 57.2422C378.201 57.5807 377.94 57.8516 377.617 58.0547C377.294 58.2578 376.927 58.4036 376.516 58.4922C376.109 58.5807 375.695 58.625 375.273 58.625C375.039 58.625 374.794 58.612 374.539 58.5859C374.289 58.5599 374.036 58.5208 373.781 58.4688C373.526 58.4167 373.273 58.349 373.023 58.2656C372.779 58.1875 372.544 58.0938 372.32 57.9844L372.797 56.8828C372.953 56.9557 373.117 57.026 373.289 57.0938C373.461 57.1667 373.646 57.2318 373.844 57.2891C374.047 57.3464 374.263 57.3932 374.492 57.4297C374.721 57.4661 374.971 57.4844 375.242 57.4844C375.576 57.4844 375.875 57.4505 376.141 57.3828C376.411 57.3151 376.638 57.2083 376.82 57.0625C377.003 56.9219 377.143 56.7396 377.242 56.5156C377.341 56.2969 377.391 56.0339 377.391 55.7266V54.2109C377.115 54.5859 376.779 54.8594 376.383 55.0312C375.987 55.1979 375.57 55.2812 375.133 55.2812C374.638 55.2812 374.19 55.1875 373.789 55C373.393 54.8073 373.055 54.5443 372.773 54.2109C372.492 53.8776 372.276 53.487 372.125 53.0391C371.974 52.5859 371.898 52.0964 371.898 51.5703ZM377.422 51.5391C377.422 51.1797 377.383 50.849 377.305 50.5469C377.227 50.2396 377.104 49.974 376.938 49.75C376.771 49.5208 376.557 49.3438 376.297 49.2188C376.042 49.0885 375.734 49.0234 375.375 49.0234C375.01 49.0234 374.695 49.0885 374.43 49.2188C374.164 49.349 373.943 49.5286 373.766 49.7578C373.594 49.9818 373.466 50.2474 373.383 50.5547C373.299 50.862 373.258 51.1901 373.258 51.5391V51.6016C373.258 51.9505 373.299 52.2786 373.383 52.5859C373.466 52.888 373.594 53.1536 373.766 53.3828C373.943 53.6068 374.164 53.7839 374.43 53.9141C374.695 54.0443 375.01 54.1094 375.375 54.1094C375.734 54.1094 376.042 54.0469 376.297 53.9219C376.557 53.7917 376.771 53.6146 376.938 53.3906C377.104 53.1667 377.227 52.901 377.305 52.5938C377.383 52.2865 377.422 51.9557 377.422 51.6016V51.5391ZM323.602 65.1875H323.391C323.052 65.1875 322.729 65.2266 322.422 65.3047C322.115 65.3828 321.844 65.5234 321.609 65.7266C321.375 65.9297 321.188 66.2083 321.047 66.5625C320.906 66.9115 320.836 67.3594 320.836 67.9062V72H319.523V64.0156H320.836V65.2812C320.935 65.0469 321.068 64.8411 321.234 64.6641C321.401 64.487 321.589 64.3411 321.797 64.2266C322.01 64.1068 322.237 64.0182 322.477 63.9609C322.721 63.9036 322.969 63.875 323.219 63.875H323.602V65.1875ZM325.836 68.4141C325.862 68.7891 325.938 69.1354 326.062 69.4531C326.188 69.7708 326.357 70.0469 326.57 70.2812C326.789 70.5104 327.044 70.6901 327.336 70.8203C327.633 70.9453 327.961 71.0078 328.32 71.0078C328.763 71.0078 329.151 70.9349 329.484 70.7891C329.823 70.638 330.133 70.4505 330.414 70.2266L331.086 71.1719C330.727 71.4583 330.31 71.6953 329.836 71.8828C329.367 72.0651 328.841 72.1562 328.258 72.1562C327.68 72.1562 327.156 72.0547 326.688 71.8516C326.219 71.6432 325.818 71.3568 325.484 70.9922C325.156 70.6224 324.904 70.1849 324.727 69.6797C324.549 69.1693 324.461 68.6146 324.461 68.0156C324.461 67.4062 324.547 66.849 324.719 66.3438C324.896 65.8333 325.143 65.3958 325.461 65.0312C325.779 64.6615 326.159 64.375 326.602 64.1719C327.044 63.9635 327.536 63.8594 328.078 63.8594C328.604 63.8594 329.078 63.9635 329.5 64.1719C329.922 64.375 330.281 64.6615 330.578 65.0312C330.875 65.3958 331.102 65.8333 331.258 66.3438C331.419 66.849 331.5 67.401 331.5 68V68.4141H325.836ZM328.031 65.0078C327.698 65.0078 327.401 65.0729 327.141 65.2031C326.88 65.3333 326.656 65.5078 326.469 65.7266C326.286 65.9453 326.141 66.1979 326.031 66.4844C325.927 66.7656 325.867 67.0573 325.852 67.3594H330.078C330.068 67.0521 330.013 66.7578 329.914 66.4766C329.82 66.1901 329.685 65.9401 329.508 65.7266C329.336 65.5078 329.125 65.3333 328.875 65.2031C328.63 65.0729 328.349 65.0078 328.031 65.0078ZM338.68 69.7891C338.68 70.1641 338.596 70.5 338.43 70.7969C338.268 71.0885 338.052 71.3359 337.781 71.5391C337.51 71.7422 337.198 71.8958 336.844 72C336.495 72.1042 336.135 72.1562 335.766 72.1562C335.182 72.1562 334.62 72.0573 334.078 71.8594C333.542 71.6562 333.065 71.3672 332.648 70.9922L333.367 70.0625C333.492 70.1719 333.635 70.2865 333.797 70.4062C333.964 70.526 334.148 70.638 334.352 70.7422C334.555 70.8411 334.773 70.9245 335.008 70.9922C335.242 71.0547 335.49 71.0859 335.75 71.0859C335.964 71.0859 336.167 71.0599 336.359 71.0078C336.557 70.9505 336.729 70.8698 336.875 70.7656C337.021 70.6562 337.135 70.5286 337.219 70.3828C337.307 70.2318 337.352 70.0625 337.352 69.875C337.352 69.6667 337.305 69.4922 337.211 69.3516C337.122 69.2109 337 69.0911 336.844 68.9922C336.688 68.8932 336.505 68.8073 336.297 68.7344C336.089 68.6615 335.87 68.5885 335.641 68.5156L335.141 68.3516C334.859 68.2578 334.589 68.151 334.328 68.0312C334.068 67.9115 333.836 67.7656 333.633 67.5938C333.435 67.4167 333.276 67.2083 333.156 66.9688C333.042 66.7292 332.984 66.4427 332.984 66.1094C332.984 65.8385 333.042 65.5703 333.156 65.3047C333.271 65.0339 333.445 64.7917 333.68 64.5781C333.919 64.3646 334.221 64.1927 334.586 64.0625C334.951 63.9271 335.38 63.8594 335.875 63.8594C336.422 63.8594 336.927 63.9505 337.391 64.1328C337.859 64.3151 338.255 64.5417 338.578 64.8125L337.891 65.7578C337.776 65.6484 337.641 65.5443 337.484 65.4453C337.328 65.3464 337.161 65.2604 336.984 65.1875C336.807 65.1094 336.622 65.0469 336.43 65C336.237 64.9531 336.047 64.9297 335.859 64.9297C335.573 64.9297 335.331 64.9635 335.133 65.0312C334.935 65.0938 334.776 65.1771 334.656 65.2812C334.536 65.3854 334.448 65.5026 334.391 65.6328C334.339 65.763 334.312 65.8906 334.312 66.0156C334.312 66.1979 334.352 66.3516 334.43 66.4766C334.508 66.5964 334.609 66.7005 334.734 66.7891C334.865 66.8776 335.01 66.9531 335.172 67.0156C335.339 67.0781 335.51 67.1406 335.688 67.2031L336.344 67.4219C336.656 67.526 336.943 67.638 337.203 67.7578C337.464 67.8724 337.693 68.0052 337.891 68.1562C338.141 68.3542 338.333 68.5833 338.469 68.8438C338.609 69.1042 338.68 69.4193 338.68 69.7891ZM342.008 64.0156V64.9297C342.242 64.6016 342.56 64.3411 342.961 64.1484C343.362 63.9557 343.823 63.8594 344.344 63.8594C344.859 63.8594 345.326 63.9635 345.742 64.1719C346.159 64.375 346.516 64.6615 346.812 65.0312C347.109 65.401 347.336 65.8411 347.492 66.3516C347.654 66.8568 347.734 67.4115 347.734 68.0156C347.734 68.6198 347.654 69.1745 347.492 69.6797C347.336 70.1849 347.109 70.6224 346.812 70.9922C346.516 71.3568 346.159 71.6432 345.742 71.8516C345.326 72.0547 344.859 72.1562 344.344 72.1562C343.823 72.1562 343.362 72.0599 342.961 71.8672C342.56 71.6745 342.242 71.4141 342.008 71.0859V74.4297H340.695V64.0156H342.008ZM346.375 67.9688C346.375 67.5521 346.326 67.1641 346.227 66.8047C346.128 66.4453 345.982 66.1354 345.789 65.875C345.596 65.6094 345.357 65.401 345.07 65.25C344.789 65.099 344.466 65.0234 344.102 65.0234C343.753 65.0234 343.445 65.0833 343.18 65.2031C342.919 65.3229 342.701 65.487 342.523 65.6953C342.346 65.9036 342.211 66.151 342.117 66.4375C342.029 66.7188 341.984 67.026 341.984 67.3594V68.6562C341.984 68.9896 342.029 69.2995 342.117 69.5859C342.211 69.8672 342.346 70.112 342.523 70.3203C342.701 70.5286 342.919 70.6927 343.18 70.8125C343.445 70.9323 343.753 70.9922 344.102 70.9922C344.466 70.9922 344.789 70.9167 345.07 70.7656C345.357 70.6146 345.596 70.4089 345.789 70.1484C345.982 69.8828 346.128 69.5703 346.227 69.2109C346.326 68.8516 346.375 68.4635 346.375 68.0469V67.9688ZM352.875 63.8594C353.427 63.8594 353.93 63.9635 354.383 64.1719C354.836 64.375 355.221 64.6615 355.539 65.0312C355.862 65.3958 356.112 65.8333 356.289 66.3438C356.466 66.849 356.555 67.4062 356.555 68.0156C356.555 68.6146 356.466 69.1693 356.289 69.6797C356.112 70.1849 355.862 70.6224 355.539 70.9922C355.221 71.3568 354.836 71.6432 354.383 71.8516C353.93 72.0547 353.427 72.1562 352.875 72.1562C352.323 72.1562 351.82 72.0547 351.367 71.8516C350.919 71.6432 350.534 71.3568 350.211 70.9922C349.888 70.6224 349.638 70.1849 349.461 69.6797C349.284 69.1693 349.195 68.6146 349.195 68.0156C349.195 67.4062 349.284 66.849 349.461 66.3438C349.638 65.8333 349.888 65.3958 350.211 65.0312C350.534 64.6615 350.919 64.375 351.367 64.1719C351.82 63.9635 352.323 63.8594 352.875 63.8594ZM352.875 71.0078C353.255 71.0078 353.589 70.9297 353.875 70.7734C354.167 70.612 354.409 70.3958 354.602 70.125C354.799 69.8542 354.948 69.5417 355.047 69.1875C355.146 68.8281 355.195 68.4531 355.195 68.0625V67.9688C355.195 67.5677 355.146 67.1875 355.047 66.8281C354.948 66.4688 354.799 66.1562 354.602 65.8906C354.409 65.6198 354.167 65.4062 353.875 65.25C353.589 65.0885 353.255 65.0078 352.875 65.0078C352.495 65.0078 352.159 65.0885 351.867 65.25C351.581 65.4062 351.339 65.6198 351.141 65.8906C350.948 66.1562 350.802 66.4688 350.703 66.8281C350.604 67.1875 350.555 67.5677 350.555 67.9688V68.0625C350.555 68.4531 350.604 68.8281 350.703 69.1875C350.802 69.5417 350.948 69.8542 351.141 70.125C351.339 70.3958 351.581 70.612 351.867 70.7734C352.159 70.9297 352.495 71.0078 352.875 71.0078ZM358.477 64.0156H359.789V64.9297C360.06 64.5599 360.393 64.2891 360.789 64.1172C361.19 63.9453 361.635 63.8594 362.125 63.8594C362.568 63.8594 362.956 63.9323 363.289 64.0781C363.622 64.224 363.901 64.4219 364.125 64.6719C364.349 64.9219 364.516 65.2109 364.625 65.5391C364.74 65.8672 364.797 66.2135 364.797 66.5781V72H363.484V66.9922C363.484 66.6432 363.44 66.3464 363.352 66.1016C363.268 65.8516 363.151 65.651 363 65.5C362.854 65.3438 362.68 65.2318 362.477 65.1641C362.279 65.0911 362.065 65.0547 361.836 65.0547C361.586 65.0547 361.339 65.1016 361.094 65.1953C360.854 65.2839 360.635 65.4193 360.438 65.6016C360.245 65.7839 360.089 66.013 359.969 66.2891C359.849 66.5651 359.789 66.8906 359.789 67.2656V72H358.477V64.0156ZM372.477 69.7891C372.477 70.1641 372.393 70.5 372.227 70.7969C372.065 71.0885 371.849 71.3359 371.578 71.5391C371.307 71.7422 370.995 71.8958 370.641 72C370.292 72.1042 369.932 72.1562 369.562 72.1562C368.979 72.1562 368.417 72.0573 367.875 71.8594C367.339 71.6562 366.862 71.3672 366.445 70.9922L367.164 70.0625C367.289 70.1719 367.432 70.2865 367.594 70.4062C367.76 70.526 367.945 70.638 368.148 70.7422C368.352 70.8411 368.57 70.9245 368.805 70.9922C369.039 71.0547 369.286 71.0859 369.547 71.0859C369.76 71.0859 369.964 71.0599 370.156 71.0078C370.354 70.9505 370.526 70.8698 370.672 70.7656C370.818 70.6562 370.932 70.5286 371.016 70.3828C371.104 70.2318 371.148 70.0625 371.148 69.875C371.148 69.6667 371.102 69.4922 371.008 69.3516C370.919 69.2109 370.797 69.0911 370.641 68.9922C370.484 68.8932 370.302 68.8073 370.094 68.7344C369.885 68.6615 369.667 68.5885 369.438 68.5156L368.938 68.3516C368.656 68.2578 368.385 68.151 368.125 68.0312C367.865 67.9115 367.633 67.7656 367.43 67.5938C367.232 67.4167 367.073 67.2083 366.953 66.9688C366.839 66.7292 366.781 66.4427 366.781 66.1094C366.781 65.8385 366.839 65.5703 366.953 65.3047C367.068 65.0339 367.242 64.7917 367.477 64.5781C367.716 64.3646 368.018 64.1927 368.383 64.0625C368.747 63.9271 369.177 63.8594 369.672 63.8594C370.219 63.8594 370.724 63.9505 371.188 64.1328C371.656 64.3151 372.052 64.5417 372.375 64.8125L371.688 65.7578C371.573 65.6484 371.438 65.5443 371.281 65.4453C371.125 65.3464 370.958 65.2604 370.781 65.1875C370.604 65.1094 370.419 65.0469 370.227 65C370.034 64.9531 369.844 64.9297 369.656 64.9297C369.37 64.9297 369.128 64.9635 368.93 65.0312C368.732 65.0938 368.573 65.1771 368.453 65.2812C368.333 65.3854 368.245 65.5026 368.188 65.6328C368.135 65.763 368.109 65.8906 368.109 66.0156C368.109 66.1979 368.148 66.3516 368.227 66.4766C368.305 66.5964 368.406 66.7005 368.531 66.7891C368.661 66.8776 368.807 66.9531 368.969 67.0156C369.135 67.0781 369.307 67.1406 369.484 67.2031L370.141 67.4219C370.453 67.526 370.74 67.638 371 67.7578C371.26 67.8724 371.49 68.0052 371.688 68.1562C371.938 68.3542 372.13 68.5833 372.266 68.8438C372.406 69.1042 372.477 69.4193 372.477 69.7891ZM375.383 68.4141C375.409 68.7891 375.484 69.1354 375.609 69.4531C375.734 69.7708 375.904 70.0469 376.117 70.2812C376.336 70.5104 376.591 70.6901 376.883 70.8203C377.18 70.9453 377.508 71.0078 377.867 71.0078C378.31 71.0078 378.698 70.9349 379.031 70.7891C379.37 70.638 379.68 70.4505 379.961 70.2266L380.633 71.1719C380.273 71.4583 379.857 71.6953 379.383 71.8828C378.914 72.0651 378.388 72.1562 377.805 72.1562C377.227 72.1562 376.703 72.0547 376.234 71.8516C375.766 71.6432 375.365 71.3568 375.031 70.9922C374.703 70.6224 374.451 70.1849 374.273 69.6797C374.096 69.1693 374.008 68.6146 374.008 68.0156C374.008 67.4062 374.094 66.849 374.266 66.3438C374.443 65.8333 374.69 65.3958 375.008 65.0312C375.326 64.6615 375.706 64.375 376.148 64.1719C376.591 63.9635 377.083 63.8594 377.625 63.8594C378.151 63.8594 378.625 63.9635 379.047 64.1719C379.469 64.375 379.828 64.6615 380.125 65.0312C380.422 65.3958 380.648 65.8333 380.805 66.3438C380.966 66.849 381.047 67.401 381.047 68V68.4141H375.383ZM377.578 65.0078C377.245 65.0078 376.948 65.0729 376.688 65.2031C376.427 65.3333 376.203 65.5078 376.016 65.7266C375.833 65.9453 375.688 66.1979 375.578 66.4844C375.474 66.7656 375.414 67.0573 375.398 67.3594H379.625C379.615 67.0521 379.56 66.7578 379.461 66.4766C379.367 66.1901 379.232 65.9401 379.055 65.7266C378.883 65.5078 378.672 65.3333 378.422 65.2031C378.177 65.0729 377.896 65.0078 377.578 65.0078Z" fill="#0B0C0C"/>
<path d="M400 16H434" stroke="#00703C" stroke-width="6"/>
<path d="M434 16H450" stroke="#00703C" stroke-width="6"/>
<path d="M450 16H466" stroke="#00703C" stroke-width="6"/>
<circle cx="450" cy="16" r="13" fill="white" stroke="#00703C" stroke-width="6"/>
<path d="M466 16H500" stroke="#00703C" stroke-width="6"/>
<path d="M431.445 50.8516H425.547V56H424.172V44.7969H425.547V49.6641H431.445V44.7969H432.828V56H431.445V50.8516ZM436.273 52.4141C436.299 52.7891 436.375 53.1354 436.5 53.4531C436.625 53.7708 436.794 54.0469 437.008 54.2812C437.227 54.5104 437.482 54.6901 437.773 54.8203C438.07 54.9453 438.398 55.0078 438.758 55.0078C439.201 55.0078 439.589 54.9349 439.922 54.7891C440.26 54.638 440.57 54.4505 440.852 54.2266L441.523 55.1719C441.164 55.4583 440.747 55.6953 440.273 55.8828C439.805 56.0651 439.279 56.1562 438.695 56.1562C438.117 56.1562 437.594 56.0547 437.125 55.8516C436.656 55.6432 436.255 55.3568 435.922 54.9922C435.594 54.6224 435.341 54.1849 435.164 53.6797C434.987 53.1693 434.898 52.6146 434.898 52.0156C434.898 51.4062 434.984 50.849 435.156 50.3438C435.333 49.8333 435.581 49.3958 435.898 49.0312C436.216 48.6615 436.596 48.375 437.039 48.1719C437.482 47.9635 437.974 47.8594 438.516 47.8594C439.042 47.8594 439.516 47.9635 439.938 48.1719C440.359 48.375 440.719 48.6615 441.016 49.0312C441.312 49.3958 441.539 49.8333 441.695 50.3438C441.857 50.849 441.938 51.401 441.938 52V52.4141H436.273ZM438.469 49.0078C438.135 49.0078 437.839 49.0729 437.578 49.2031C437.318 49.3333 437.094 49.5078 436.906 49.7266C436.724 49.9453 436.578 50.1979 436.469 50.4844C436.365 50.7656 436.305 51.0573 436.289 51.3594H440.516C440.505 51.0521 440.451 50.7578 440.352 50.4766C440.258 50.1901 440.122 49.9401 439.945 49.7266C439.773 49.5078 439.562 49.3333 439.312 49.2031C439.068 49.0729 438.786 49.0078 438.469 49.0078ZM448.312 55.2031C448.078 55.474 447.76 55.7005 447.359 55.8828C446.964 56.0651 446.497 56.1562 445.961 56.1562C445.565 56.1562 445.198 56.1016 444.859 55.9922C444.521 55.8776 444.227 55.7161 443.977 55.5078C443.727 55.2995 443.531 55.0469 443.391 54.75C443.25 54.4531 443.18 54.1172 443.18 53.7422C443.18 53.4297 443.229 53.1458 443.328 52.8906C443.432 52.6302 443.576 52.4036 443.758 52.2109C443.945 52.0182 444.169 51.862 444.43 51.7422C444.69 51.6172 444.982 51.5312 445.305 51.4844L448.125 51.1016V50.5938C448.125 50.2917 448.078 50.0391 447.984 49.8359C447.891 49.6276 447.763 49.4635 447.602 49.3438C447.445 49.224 447.258 49.138 447.039 49.0859C446.826 49.0339 446.594 49.0078 446.344 49.0078C445.896 49.0078 445.477 49.0703 445.086 49.1953C444.701 49.3203 444.352 49.4661 444.039 49.6328L443.547 48.5938C444.005 48.3333 444.484 48.1458 444.984 48.0312C445.49 47.9167 445.987 47.8594 446.477 47.8594C447.451 47.8594 448.188 48.0807 448.688 48.5234C449.188 48.9609 449.438 49.6016 449.438 50.4453V54.125C449.438 54.3906 449.49 54.6146 449.594 54.7969C449.698 54.974 449.865 55.1146 450.094 55.2188L449.352 56.1562C449.102 56.0938 448.885 55.9844 448.703 55.8281C448.526 55.6667 448.401 55.474 448.328 55.25L448.312 55.2031ZM445.977 52.4453C445.758 52.4766 445.557 52.5208 445.375 52.5781C445.198 52.6354 445.047 52.7135 444.922 52.8125C444.797 52.9062 444.698 53.0234 444.625 53.1641C444.557 53.3047 444.523 53.4766 444.523 53.6797C444.523 53.9141 444.568 54.1224 444.656 54.3047C444.745 54.487 444.865 54.6406 445.016 54.7656C445.167 54.8906 445.341 54.987 445.539 55.0547C445.742 55.1172 445.953 55.1484 446.172 55.1484C446.417 55.1484 446.656 55.1146 446.891 55.0469C447.125 54.9792 447.333 54.8828 447.516 54.7578C447.698 54.6276 447.844 54.4714 447.953 54.2891C448.068 54.1068 448.125 53.8984 448.125 53.6641V52.125L445.977 52.4453ZM455.898 49.1875H455.688C455.349 49.1875 455.026 49.2266 454.719 49.3047C454.411 49.3828 454.141 49.5234 453.906 49.7266C453.672 49.9297 453.484 50.2083 453.344 50.5625C453.203 50.9115 453.133 51.3594 453.133 51.9062V56H451.82V48.0156H453.133V49.2812C453.232 49.0469 453.365 48.8411 453.531 48.6641C453.698 48.487 453.885 48.3411 454.094 48.2266C454.307 48.1068 454.534 48.0182 454.773 47.9609C455.018 47.9036 455.266 47.875 455.516 47.875H455.898V49.1875ZM458.758 56H457.445V48.0156H458.758V56ZM457.203 45.7109C457.203 45.5859 457.227 45.4688 457.273 45.3594C457.326 45.25 457.391 45.1536 457.469 45.0703C457.552 44.987 457.648 44.9219 457.758 44.875C457.872 44.8229 457.992 44.7969 458.117 44.7969C458.242 44.7969 458.359 44.8229 458.469 44.875C458.578 44.9219 458.672 44.987 458.75 45.0703C458.833 45.1536 458.898 45.25 458.945 45.3594C458.997 45.4688 459.023 45.5859 459.023 45.7109C459.023 45.8359 458.997 45.9557 458.945 46.0703C458.898 46.1797 458.833 46.276 458.75 46.3594C458.672 46.4375 458.578 46.5026 458.469 46.5547C458.359 46.6016 458.242 46.625 458.117 46.625C457.992 46.625 457.872 46.6016 457.758 46.5547C457.648 46.5026 457.552 46.4375 457.469 46.3594C457.391 46.276 457.326 46.1797 457.273 46.0703C457.227 45.9557 457.203 45.8359 457.203 45.7109ZM461.164 48.0156H462.477V48.9297C462.747 48.5599 463.081 48.2891 463.477 48.1172C463.878 47.9453 464.323 47.8594 464.812 47.8594C465.255 47.8594 465.643 47.9323 465.977 48.0781C466.31 48.224 466.589 48.4219 466.812 48.6719C467.036 48.9219 467.203 49.2109 467.312 49.5391C467.427 49.8672 467.484 50.2135 467.484 50.5781V56H466.172V50.9922C466.172 50.6432 466.128 50.3464 466.039 50.1016C465.956 49.8516 465.839 49.651 465.688 49.5C465.542 49.3438 465.367 49.2318 465.164 49.1641C464.966 49.0911 464.753 49.0547 464.523 49.0547C464.273 49.0547 464.026 49.1016 463.781 49.1953C463.542 49.2839 463.323 49.4193 463.125 49.6016C462.932 49.7839 462.776 50.013 462.656 50.2891C462.536 50.5651 462.477 50.8906 462.477 51.2656V56H461.164V48.0156ZM469.367 51.5703C469.367 51.0443 469.443 50.5547 469.594 50.1016C469.745 49.6484 469.961 49.2578 470.242 48.9297C470.523 48.5964 470.862 48.3359 471.258 48.1484C471.659 47.9557 472.107 47.8594 472.602 47.8594C473.039 47.8594 473.456 47.9453 473.852 48.1172C474.247 48.2839 474.583 48.5547 474.859 48.9297V48.0156H476.172V56C476.172 56.4948 476.07 56.9089 475.867 57.2422C475.669 57.5807 475.409 57.8516 475.086 58.0547C474.763 58.2578 474.396 58.4036 473.984 58.4922C473.578 58.5807 473.164 58.625 472.742 58.625C472.508 58.625 472.263 58.612 472.008 58.5859C471.758 58.5599 471.505 58.5208 471.25 58.4688C470.995 58.4167 470.742 58.349 470.492 58.2656C470.247 58.1875 470.013 58.0938 469.789 57.9844L470.266 56.8828C470.422 56.9557 470.586 57.026 470.758 57.0938C470.93 57.1667 471.115 57.2318 471.312 57.2891C471.516 57.3464 471.732 57.3932 471.961 57.4297C472.19 57.4661 472.44 57.4844 472.711 57.4844C473.044 57.4844 473.344 57.4505 473.609 57.3828C473.88 57.3151 474.107 57.2083 474.289 57.0625C474.471 56.9219 474.612 56.7396 474.711 56.5156C474.81 56.2969 474.859 56.0339 474.859 55.7266V54.2109C474.583 54.5859 474.247 54.8594 473.852 55.0312C473.456 55.1979 473.039 55.2812 472.602 55.2812C472.107 55.2812 471.659 55.1875 471.258 55C470.862 54.8073 470.523 54.5443 470.242 54.2109C469.961 53.8776 469.745 53.487 469.594 53.0391C469.443 52.5859 469.367 52.0964 469.367 51.5703ZM474.891 51.5391C474.891 51.1797 474.852 50.849 474.773 50.5469C474.695 50.2396 474.573 49.974 474.406 49.75C474.24 49.5208 474.026 49.3438 473.766 49.2188C473.51 49.0885 473.203 49.0234 472.844 49.0234C472.479 49.0234 472.164 49.0885 471.898 49.2188C471.633 49.349 471.411 49.5286 471.234 49.7578C471.062 49.9818 470.935 50.2474 470.852 50.5547C470.768 50.862 470.727 51.1901 470.727 51.5391V51.6016C470.727 51.9505 470.768 52.2786 470.852 52.5859C470.935 52.888 471.062 53.1536 471.234 53.3828C471.411 53.6068 471.633 53.7839 471.898 53.9141C472.164 54.0443 472.479 54.1094 472.844 54.1094C473.203 54.1094 473.51 54.0469 473.766 53.9219C474.026 53.7917 474.24 53.6146 474.406 53.3906C474.573 53.1667 474.695 52.901 474.773 52.5938C474.852 52.2865 474.891 51.9557 474.891 51.6016V51.5391Z" fill="#0B0C0C"/>
<path d="M500 16H534" stroke="#00703C" stroke-width="6"/>
<path d="M534 16H550" stroke="#00703C" stroke-width="6"/>
<path d="M550 16H566" stroke="white" stroke-width="6"/>
<circle cx="550" cy="16" r="13" fill="white" stroke="#00703C" stroke-width="6"/>
<path d="M531.344 50.3984C531.344 51.237 531.24 52.0026 531.031 52.6953C530.823 53.3828 530.505 53.9714 530.078 54.4609C529.651 54.9505 529.115 55.3307 528.469 55.6016C527.828 55.8672 527.073 56 526.203 56H522.609V44.7969H526.203C527.073 44.7969 527.828 44.9323 528.469 45.2031C529.115 45.4688 529.651 45.8464 530.078 46.3359C530.505 46.8255 530.823 47.4167 531.031 48.1094C531.24 48.7969 531.344 49.5599 531.344 50.3984ZM529.867 50.1797C529.867 49.5964 529.794 49.0495 529.648 48.5391C529.503 48.0286 529.279 47.5859 528.977 47.2109C528.68 46.8307 528.297 46.5312 527.828 46.3125C527.365 46.0938 526.812 45.9844 526.172 45.9844H523.984V54.8125H526.172C526.812 54.8125 527.365 54.7057 527.828 54.4922C528.297 54.2734 528.68 53.9766 528.977 53.6016C529.279 53.2214 529.503 52.776 529.648 52.2656C529.794 51.7552 529.867 51.2083 529.867 50.625V50.1797ZM534.367 52.4141C534.393 52.7891 534.469 53.1354 534.594 53.4531C534.719 53.7708 534.888 54.0469 535.102 54.2812C535.32 54.5104 535.576 54.6901 535.867 54.8203C536.164 54.9453 536.492 55.0078 536.852 55.0078C537.294 55.0078 537.682 54.9349 538.016 54.7891C538.354 54.638 538.664 54.4505 538.945 54.2266L539.617 55.1719C539.258 55.4583 538.841 55.6953 538.367 55.8828C537.898 56.0651 537.372 56.1562 536.789 56.1562C536.211 56.1562 535.688 56.0547 535.219 55.8516C534.75 55.6432 534.349 55.3568 534.016 54.9922C533.688 54.6224 533.435 54.1849 533.258 53.6797C533.081 53.1693 532.992 52.6146 532.992 52.0156C532.992 51.4062 533.078 50.849 533.25 50.3438C533.427 49.8333 533.674 49.3958 533.992 49.0312C534.31 48.6615 534.69 48.375 535.133 48.1719C535.576 47.9635 536.068 47.8594 536.609 47.8594C537.135 47.8594 537.609 47.9635 538.031 48.1719C538.453 48.375 538.812 48.6615 539.109 49.0312C539.406 49.3958 539.633 49.8333 539.789 50.3438C539.951 50.849 540.031 51.401 540.031 52V52.4141H534.367ZM536.562 49.0078C536.229 49.0078 535.932 49.0729 535.672 49.2031C535.411 49.3333 535.188 49.5078 535 49.7266C534.818 49.9453 534.672 50.1979 534.562 50.4844C534.458 50.7656 534.398 51.0573 534.383 51.3594H538.609C538.599 51.0521 538.544 50.7578 538.445 50.4766C538.352 50.1901 538.216 49.9401 538.039 49.7266C537.867 49.5078 537.656 49.3333 537.406 49.2031C537.161 49.0729 536.88 49.0078 536.562 49.0078ZM542.742 52.0469C542.742 52.4479 542.792 52.8281 542.891 53.1875C542.99 53.5469 543.135 53.862 543.328 54.1328C543.521 54.3984 543.76 54.612 544.047 54.7734C544.339 54.9297 544.677 55.0078 545.062 55.0078C545.312 55.0078 545.542 54.974 545.75 54.9062C545.964 54.8333 546.154 54.737 546.32 54.6172C546.492 54.4974 546.643 54.3568 546.773 54.1953C546.909 54.0286 547.026 53.8516 547.125 53.6641L548.219 54.2891C548.083 54.5703 547.909 54.8281 547.695 55.0625C547.487 55.2917 547.247 55.487 546.977 55.6484C546.706 55.8099 546.409 55.9349 546.086 56.0234C545.763 56.112 545.422 56.1562 545.062 56.1562C544.51 56.1562 544.008 56.0547 543.555 55.8516C543.107 55.6432 542.721 55.3568 542.398 54.9922C542.076 54.6224 541.826 54.1849 541.648 53.6797C541.471 53.1745 541.383 52.6198 541.383 52.0156C541.383 51.4062 541.471 50.849 541.648 50.3438C541.826 49.8333 542.076 49.3958 542.398 49.0312C542.721 48.6615 543.107 48.375 543.555 48.1719C544.008 47.9635 544.51 47.8594 545.062 47.8594C545.422 47.8594 545.763 47.9036 546.086 47.9922C546.409 48.0807 546.706 48.2057 546.977 48.3672C547.247 48.5286 547.487 48.7266 547.695 48.9609C547.909 49.1901 548.083 49.4453 548.219 49.7266L547.125 50.3516C547.026 50.1641 546.909 49.9896 546.773 49.8281C546.643 49.6615 546.492 49.5182 546.32 49.3984C546.154 49.2786 545.964 49.1849 545.75 49.1172C545.542 49.0443 545.312 49.0078 545.062 49.0078C544.677 49.0078 544.339 49.0885 544.047 49.25C543.76 49.4062 543.521 49.6198 543.328 49.8906C543.135 50.1562 542.99 50.4688 542.891 50.8281C542.792 51.1875 542.742 51.5677 542.742 51.9688V52.0469ZM551.367 56H550.055V48.0156H551.367V56ZM549.812 45.7109C549.812 45.5859 549.836 45.4688 549.883 45.3594C549.935 45.25 550 45.1536 550.078 45.0703C550.161 44.987 550.258 44.9219 550.367 44.875C550.482 44.8229 550.602 44.7969 550.727 44.7969C550.852 44.7969 550.969 44.8229 551.078 44.875C551.188 44.9219 551.281 44.987 551.359 45.0703C551.443 45.1536 551.508 45.25 551.555 45.3594C551.607 45.4688 551.633 45.5859 551.633 45.7109C551.633 45.8359 551.607 45.9557 551.555 46.0703C551.508 46.1797 551.443 46.276 551.359 46.3594C551.281 46.4375 551.188 46.5026 551.078 46.5547C550.969 46.6016 550.852 46.625 550.727 46.625C550.602 46.625 550.482 46.6016 550.367 46.5547C550.258 46.5026 550.161 46.4375 550.078 46.3594C550 46.276 549.935 46.1797 549.883 46.0703C549.836 45.9557 549.812 45.8359 549.812 45.7109ZM559.031 55.0859C558.797 55.4141 558.477 55.6745 558.07 55.8672C557.669 56.0599 557.211 56.1562 556.695 56.1562C556.18 56.1562 555.714 56.0547 555.297 55.8516C554.88 55.6432 554.523 55.3568 554.227 54.9922C553.93 54.6224 553.701 54.1849 553.539 53.6797C553.383 53.1745 553.305 52.6198 553.305 52.0156C553.305 51.4115 553.383 50.8568 553.539 50.3516C553.701 49.8411 553.93 49.401 554.227 49.0312C554.523 48.6615 554.88 48.375 555.297 48.1719C555.714 47.9635 556.18 47.8594 556.695 47.8594C557.211 47.8594 557.669 47.9557 558.07 48.1484C558.477 48.3411 558.797 48.6016 559.031 48.9297V44.7969H560.344V56H559.031V55.0859ZM554.664 52.0469C554.664 52.4635 554.714 52.8516 554.812 53.2109C554.911 53.5703 555.057 53.8828 555.25 54.1484C555.443 54.4089 555.68 54.6146 555.961 54.7656C556.242 54.9167 556.568 54.9922 556.938 54.9922C557.286 54.9922 557.591 54.9323 557.852 54.8125C558.117 54.6927 558.339 54.5286 558.516 54.3203C558.693 54.112 558.826 53.8672 558.914 53.5859C559.003 53.2995 559.047 52.9896 559.047 52.6562V51.3594C559.047 51.026 559.003 50.7188 558.914 50.4375C558.826 50.151 558.693 49.9036 558.516 49.6953C558.339 49.487 558.117 49.3229 557.852 49.2031C557.591 49.0833 557.286 49.0234 556.938 49.0234C556.568 49.0234 556.242 49.099 555.961 49.25C555.68 49.401 555.443 49.6094 555.25 49.875C555.057 50.1354 554.911 50.4453 554.812 50.8047C554.714 51.1641 554.664 51.5521 554.664 51.9688V52.0469ZM563.648 52.4141C563.674 52.7891 563.75 53.1354 563.875 53.4531C564 53.7708 564.169 54.0469 564.383 54.2812C564.602 54.5104 564.857 54.6901 565.148 54.8203C565.445 54.9453 565.773 55.0078 566.133 55.0078C566.576 55.0078 566.964 54.9349 567.297 54.7891C567.635 54.638 567.945 54.4505 568.227 54.2266L568.898 55.1719C568.539 55.4583 568.122 55.6953 567.648 55.8828C567.18 56.0651 566.654 56.1562 566.07 56.1562C565.492 56.1562 564.969 56.0547 564.5 55.8516C564.031 55.6432 563.63 55.3568 563.297 54.9922C562.969 54.6224 562.716 54.1849 562.539 53.6797C562.362 53.1693 562.273 52.6146 562.273 52.0156C562.273 51.4062 562.359 50.849 562.531 50.3438C562.708 49.8333 562.956 49.3958 563.273 49.0312C563.591 48.6615 563.971 48.375 564.414 48.1719C564.857 47.9635 565.349 47.8594 565.891 47.8594C566.417 47.8594 566.891 47.9635 567.312 48.1719C567.734 48.375 568.094 48.6615 568.391 49.0312C568.688 49.3958 568.914 49.8333 569.07 50.3438C569.232 50.849 569.312 51.401 569.312 52V52.4141H563.648ZM565.844 49.0078C565.51 49.0078 565.214 49.0729 564.953 49.2031C564.693 49.3333 564.469 49.5078 564.281 49.7266C564.099 49.9453 563.953 50.1979 563.844 50.4844C563.74 50.7656 563.68 51.0573 563.664 51.3594H567.891C567.88 51.0521 567.826 50.7578 567.727 50.4766C567.633 50.1901 567.497 49.9401 567.32 49.7266C567.148 49.5078 566.938 49.3333 566.688 49.2031C566.443 49.0729 566.161 49.0078 565.844 49.0078ZM576.406 55.0859C576.172 55.4141 575.852 55.6745 575.445 55.8672C575.044 56.0599 574.586 56.1562 574.07 56.1562C573.555 56.1562 573.089 56.0547 572.672 55.8516C572.255 55.6432 571.898 55.3568 571.602 54.9922C571.305 54.6224 571.076 54.1849 570.914 53.6797C570.758 53.1745 570.68 52.6198 570.68 52.0156C570.68 51.4115 570.758 50.8568 570.914 50.3516C571.076 49.8411 571.305 49.401 571.602 49.0312C571.898 48.6615 572.255 48.375 572.672 48.1719C573.089 47.9635 573.555 47.8594 574.07 47.8594C574.586 47.8594 575.044 47.9557 575.445 48.1484C575.852 48.3411 576.172 48.6016 576.406 48.9297V44.7969H577.719V56H576.406V55.0859ZM572.039 52.0469C572.039 52.4635 572.089 52.8516 572.188 53.2109C572.286 53.5703 572.432 53.8828 572.625 54.1484C572.818 54.4089 573.055 54.6146 573.336 54.7656C573.617 54.9167 573.943 54.9922 574.312 54.9922C574.661 54.9922 574.966 54.9323 575.227 54.8125C575.492 54.6927 575.714 54.5286 575.891 54.3203C576.068 54.112 576.201 53.8672 576.289 53.5859C576.378 53.2995 576.422 52.9896 576.422 52.6562V51.3594C576.422 51.026 576.378 50.7188 576.289 50.4375C576.201 50.151 576.068 49.9036 575.891 49.6953C575.714 49.487 575.492 49.3229 575.227 49.2031C574.966 49.0833 574.661 49.0234 574.312 49.0234C573.943 49.0234 573.617 49.099 573.336 49.25C573.055 49.401 572.818 49.6094 572.625 49.875C572.432 50.1354 572.286 50.4453 572.188 50.8047C572.089 51.1641 572.039 51.5521 572.039 51.9688V52.0469Z" fill="#0B0C0C"/>
</svg>
