<svg width="600" height="78" viewBox="0 0 600 78" fill="none" xmlns="http://www.w3.org/2000/svg">
<path d="M34 16H50" stroke="white" stroke-width="6"/>
<path d="M50 16H66" stroke="#00703C" stroke-width="6"/>
<circle cx="50" cy="16" r="16" fill="#00703C"/>
<path d="M47.1988 24L41 17.6988L43.9564 14.6939L47.1988 17.9896L56.0436 9L59 12.0049L47.1988 24Z" fill="white"/>
<path d="M66 16H100" stroke="#00703C" stroke-width="6"/>
<path d="M27.2344 53.3125H22.8359L22.0547 56H20.5938L24.0703 44.7969H26.0547L29.5547 56H28.0391L27.2344 53.3125ZM23.1719 52.1406H26.8984L25.0938 46.0312H24.9688L23.1719 52.1406ZM37.7734 54.4453L39.2188 48.0156H40.6094L38.6562 56H36.9766L35.3594 49.6016L33.7109 56H32.0938L30.1562 48.0156H31.5703L32.9609 54.4453L34.6406 48.0156H36.125L37.7734 54.4453ZM46.8438 55.2031C46.6094 55.474 46.2917 55.7005 45.8906 55.8828C45.4948 56.0651 45.0286 56.1562 44.4922 56.1562C44.0964 56.1562 43.7292 56.1016 43.3906 55.9922C43.0521 55.8776 42.7578 55.7161 42.5078 55.5078C42.2578 55.2995 42.0625 55.0469 41.9219 54.75C41.7812 54.4531 41.7109 54.1172 41.7109 53.7422C41.7109 53.4297 41.7604 53.1458 41.8594 52.8906C41.9635 52.6302 42.1068 52.4036 42.2891 52.2109C42.4766 52.0182 42.7005 51.862 42.9609 51.7422C43.2214 51.6172 43.513 51.5312 43.8359 51.4844L46.6562 51.1016V50.5938C46.6562 50.2917 46.6094 50.0391 46.5156 49.8359C46.4219 49.6276 46.2943 49.4635 46.1328 49.3438C45.9766 49.224 45.7891 49.138 45.5703 49.0859C45.3568 49.0339 45.125 49.0078 44.875 49.0078C44.4271 49.0078 44.0078 49.0703 43.6172 49.1953C43.2318 49.3203 42.8828 49.4661 42.5703 49.6328L42.0781 48.5938C42.5365 48.3333 43.0156 48.1458 43.5156 48.0312C44.0208 47.9167 44.5182 47.8594 45.0078 47.8594C45.9818 47.8594 46.7188 48.0807 47.2188 48.5234C47.7188 48.9609 47.9688 49.6016 47.9688 50.4453V54.125C47.9688 54.3906 48.0208 54.6146 48.125 54.7969C48.2292 54.974 48.3958 55.1146 48.625 55.2188L47.8828 56.1562C47.6328 56.0938 47.4167 55.9844 47.2344 55.8281C47.0573 55.6667 46.9323 55.474 46.8594 55.25L46.8438 55.2031ZM44.5078 52.4453C44.2891 52.4766 44.0885 52.5208 43.9062 52.5781C43.7292 52.6354 43.5781 52.7135 43.4531 52.8125C43.3281 52.9062 43.2292 53.0234 43.1562 53.1641C43.0885 53.3047 43.0547 53.4766 43.0547 53.6797C43.0547 53.9141 43.099 54.1224 43.1875 54.3047C43.276 54.487 43.3958 54.6406 43.5469 54.7656C43.6979 54.8906 43.8724 54.987 44.0703 55.0547C44.2734 55.1172 44.4844 55.1484 44.7031 55.1484C44.9479 55.1484 45.1875 55.1146 45.4219 55.0469C45.6562 54.9792 45.8646 54.8828 46.0469 54.7578C46.2292 54.6276 46.375 54.4714 46.4844 54.2891C46.599 54.1068 46.6562 53.8984 46.6562 53.6641V52.125L44.5078 52.4453ZM51.6641 56H50.3516V48.0156H51.6641V56ZM50.1094 45.7109C50.1094 45.5859 50.1328 45.4688 50.1797 45.3594C50.2318 45.25 50.2969 45.1536 50.375 45.0703C50.4583 44.987 50.5547 44.9219 50.6641 44.875C50.7786 44.8229 50.8984 44.7969 51.0234 44.7969C51.1484 44.7969 51.2656 44.8229 51.375 44.875C51.4844 44.9219 51.5781 44.987 51.6562 45.0703C51.7396 45.1536 51.8047 45.25 51.8516 45.3594C51.9036 45.4688 51.9297 45.5859 51.9297 45.7109C51.9297 45.8359 51.9036 45.9557 51.8516 46.0703C51.8047 46.1797 51.7396 46.276 51.6562 46.3594C51.5781 46.4375 51.4844 46.5026 51.375 46.5547C51.2656 46.6016 51.1484 46.625 51.0234 46.625C50.8984 46.625 50.7786 46.6016 50.6641 46.5547C50.5547 46.5026 50.4583 46.4375 50.375 46.3594C50.2969 46.276 50.2318 46.1797 50.1797 46.0703C50.1328 45.9557 50.1094 45.8359 50.1094 45.7109ZM56.1328 54.0156C56.1328 54.151 56.1406 54.2786 56.1562 54.3984C56.1771 54.513 56.2214 54.6146 56.2891 54.7031C56.362 54.7917 56.4661 54.862 56.6016 54.9141C56.737 54.9661 56.9219 54.9922 57.1562 54.9922C57.2188 54.9922 57.2917 54.9896 57.375 54.9844C57.4635 54.9792 57.5547 54.974 57.6484 54.9688C57.7422 54.9583 57.8333 54.9479 57.9219 54.9375C58.0104 54.9219 58.0859 54.9089 58.1484 54.8984L58.2891 56.0469C58.138 56.0677 57.9818 56.0859 57.8203 56.1016C57.6849 56.1172 57.5339 56.1302 57.3672 56.1406C57.2005 56.151 57.0339 56.1562 56.8672 56.1562C56.5495 56.1562 56.263 56.1224 56.0078 56.0547C55.7578 55.9922 55.5443 55.888 55.3672 55.7422C55.1901 55.5964 55.0547 55.4062 54.9609 55.1719C54.8672 54.9323 54.8203 54.6432 54.8203 54.3047V49.1719H53.3125V48.0156H54.8203V45.4062L56.1328 44.9453V48.0156H58.3516V49.1719H56.1328V54.0156ZM61.2891 56H59.9766V48.0156H61.2891V56ZM59.7344 45.7109C59.7344 45.5859 59.7578 45.4688 59.8047 45.3594C59.8568 45.25 59.9219 45.1536 60 45.0703C60.0833 44.987 60.1797 44.9219 60.2891 44.875C60.4036 44.8229 60.5234 44.7969 60.6484 44.7969C60.7734 44.7969 60.8906 44.8229 61 44.875C61.1094 44.9219 61.2031 44.987 61.2812 45.0703C61.3646 45.1536 61.4297 45.25 61.4766 45.3594C61.5286 45.4688 61.5547 45.5859 61.5547 45.7109C61.5547 45.8359 61.5286 45.9557 61.4766 46.0703C61.4297 46.1797 61.3646 46.276 61.2812 46.3594C61.2031 46.4375 61.1094 46.5026 61 46.5547C60.8906 46.6016 60.7734 46.625 60.6484 46.625C60.5234 46.625 60.4036 46.6016 60.2891 46.5547C60.1797 46.5026 60.0833 46.4375 60 46.3594C59.9219 46.276 59.8568 46.1797 59.8047 46.0703C59.7578 45.9557 59.7344 45.8359 59.7344 45.7109ZM63.6953 48.0156H65.0078V48.9297C65.2786 48.5599 65.612 48.2891 66.0078 48.1172C66.4089 47.9453 66.8542 47.8594 67.3438 47.8594C67.7865 47.8594 68.1745 47.9323 68.5078 48.0781C68.8411 48.224 69.1198 48.4219 69.3438 48.6719C69.5677 48.9219 69.7344 49.2109 69.8438 49.5391C69.9583 49.8672 70.0156 50.2135 70.0156 50.5781V56H68.7031V50.9922C68.7031 50.6432 68.6589 50.3464 68.5703 50.1016C68.487 49.8516 68.3698 49.651 68.2188 49.5C68.0729 49.3438 67.8984 49.2318 67.6953 49.1641C67.4974 49.0911 67.2839 49.0547 67.0547 49.0547C66.8047 49.0547 66.5573 49.1016 66.3125 49.1953C66.0729 49.2839 65.8542 49.4193 65.6562 49.6016C65.4635 49.7839 65.3073 50.013 65.1875 50.2891C65.0677 50.5651 65.0078 50.8906 65.0078 51.2656V56H63.6953V48.0156ZM71.8984 51.5703C71.8984 51.0443 71.974 50.5547 72.125 50.1016C72.276 49.6484 72.4922 49.2578 72.7734 48.9297C73.0547 48.5964 73.3932 48.3359 73.7891 48.1484C74.1901 47.9557 74.638 47.8594 75.1328 47.8594C75.5703 47.8594 75.987 47.9453 76.3828 48.1172C76.7786 48.2839 77.1146 48.5547 77.3906 48.9297V48.0156H78.7031V56C78.7031 56.4948 78.6016 56.9089 78.3984 57.2422C78.2005 57.5807 77.9401 57.8516 77.6172 58.0547C77.2943 58.2578 76.9271 58.4036 76.5156 58.4922C76.1094 58.5807 75.6953 58.625 75.2734 58.625C75.0391 58.625 74.7943 58.612 74.5391 58.5859C74.2891 58.5599 74.0365 58.5208 73.7812 58.4688C73.526 58.4167 73.2734 58.349 73.0234 58.2656C72.7786 58.1875 72.5443 58.0938 72.3203 57.9844L72.7969 56.8828C72.9531 56.9557 73.1172 57.026 73.2891 57.0938C73.4609 57.1667 73.6458 57.2318 73.8438 57.2891C74.0469 57.3464 74.263 57.3932 74.4922 57.4297C74.7214 57.4661 74.9714 57.4844 75.2422 57.4844C75.5755 57.4844 75.875 57.4505 76.1406 57.3828C76.4115 57.3151 76.638 57.2083 76.8203 57.0625C77.0026 56.9219 77.1432 56.7396 77.2422 56.5156C77.3411 56.2969 77.3906 56.0339 77.3906 55.7266V54.2109C77.1146 54.5859 76.7786 54.8594 76.3828 55.0312C75.987 55.1979 75.5703 55.2812 75.1328 55.2812C74.638 55.2812 74.1901 55.1875 73.7891 55C73.3932 54.8073 73.0547 54.5443 72.7734 54.2109C72.4922 53.8776 72.276 53.487 72.125 53.0391C71.974 52.5859 71.8984 52.0964 71.8984 51.5703ZM77.4219 51.5391C77.4219 51.1797 77.3828 50.849 77.3047 50.5469C77.2266 50.2396 77.1042 49.974 76.9375 49.75C76.7708 49.5208 76.5573 49.3438 76.2969 49.2188C76.0417 49.0885 75.7344 49.0234 75.375 49.0234C75.0104 49.0234 74.6953 49.0885 74.4297 49.2188C74.1641 49.349 73.9427 49.5286 73.7656 49.7578C73.5938 49.9818 73.4661 50.2474 73.3828 50.5547C73.2995 50.862 73.2578 51.1901 73.2578 51.5391V51.6016C73.2578 51.9505 73.2995 52.2786 73.3828 52.5859C73.4661 52.888 73.5938 53.1536 73.7656 53.3828C73.9427 53.6068 74.1641 53.7839 74.4297 53.9141C74.6953 54.0443 75.0104 54.1094 75.375 54.1094C75.7344 54.1094 76.0417 54.0469 76.2969 53.9219C76.5573 53.7917 76.7708 53.6146 76.9375 53.3906C77.1042 53.1667 77.2266 52.901 77.3047 52.5938C77.3828 52.2865 77.4219 51.9557 77.4219 51.6016V51.5391ZM17.7266 69.7891C17.7266 70.1641 17.6432 70.5 17.4766 70.7969C17.3151 71.0885 17.099 71.3359 16.8281 71.5391C16.5573 71.7422 16.2448 71.8958 15.8906 72C15.5417 72.1042 15.1823 72.1562 14.8125 72.1562C14.2292 72.1562 13.6667 72.0573 13.125 71.8594C12.5885 71.6562 12.112 71.3672 11.6953 70.9922L12.4141 70.0625C12.5391 70.1719 12.6823 70.2865 12.8438 70.4062C13.0104 70.526 13.1953 70.638 13.3984 70.7422C13.6016 70.8411 13.8203 70.9245 14.0547 70.9922C14.2891 71.0547 14.5365 71.0859 14.7969 71.0859C15.0104 71.0859 15.2135 71.0599 15.4062 71.0078C15.6042 70.9505 15.776 70.8698 15.9219 70.7656C16.0677 70.6562 16.1823 70.5286 16.2656 70.3828C16.3542 70.2318 16.3984 70.0625 16.3984 69.875C16.3984 69.6667 16.3516 69.4922 16.2578 69.3516C16.1693 69.2109 16.0469 69.0911 15.8906 68.9922C15.7344 68.8932 15.5521 68.8073 15.3438 68.7344C15.1354 68.6615 14.9167 68.5885 14.6875 68.5156L14.1875 68.3516C13.9062 68.2578 13.6354 68.151 13.375 68.0312C13.1146 67.9115 12.8828 67.7656 12.6797 67.5938C12.4818 67.4167 12.3229 67.2083 12.2031 66.9688C12.0885 66.7292 12.0312 66.4427 12.0312 66.1094C12.0312 65.8385 12.0885 65.5703 12.2031 65.3047C12.3177 65.0339 12.4922 64.7917 12.7266 64.5781C12.9661 64.3646 13.2682 64.1927 13.6328 64.0625C13.9974 63.9271 14.4271 63.8594 14.9219 63.8594C15.4688 63.8594 15.974 63.9505 16.4375 64.1328C16.9062 64.3151 17.3021 64.5417 17.625 64.8125L16.9375 65.7578C16.8229 65.6484 16.6875 65.5443 16.5312 65.4453C16.375 65.3464 16.2083 65.2604 16.0312 65.1875C15.8542 65.1094 15.6693 65.0469 15.4766 65C15.2839 64.9531 15.0938 64.9297 14.9062 64.9297C14.6198 64.9297 14.3776 64.9635 14.1797 65.0312C13.9818 65.0938 13.8229 65.1771 13.7031 65.2812C13.5833 65.3854 13.4948 65.5026 13.4375 65.6328C13.3854 65.763 13.3594 65.8906 13.3594 66.0156C13.3594 66.1979 13.3984 66.3516 13.4766 66.4766C13.5547 66.5964 13.6562 66.7005 13.7812 66.7891C13.9115 66.8776 14.0573 66.9531 14.2188 67.0156C14.3854 67.0781 14.5573 67.1406 14.7344 67.2031L15.3906 67.4219C15.7031 67.526 15.9896 67.638 16.25 67.7578C16.5104 67.8724 16.7396 68.0052 16.9375 68.1562C17.1875 68.3542 17.3802 68.5833 17.5156 68.8438C17.6562 69.1042 17.7266 69.4193 17.7266 69.7891ZM25.9922 72H24.6797V71.0859C24.4089 71.4557 24.0729 71.7266 23.6719 71.8984C23.276 72.0703 22.8333 72.1562 22.3438 72.1562C21.901 72.1562 21.513 72.0833 21.1797 71.9375C20.8464 71.7917 20.5677 71.5938 20.3438 71.3438C20.1198 71.0938 19.9505 70.8047 19.8359 70.4766C19.7266 70.1484 19.6719 69.8021 19.6719 69.4375V64.0156H20.9844V69.0234C20.9844 69.3776 21.026 69.6771 21.1094 69.9219C21.1979 70.1667 21.3151 70.3672 21.4609 70.5234C21.612 70.6745 21.7865 70.7865 21.9844 70.8594C22.1875 70.9271 22.4036 70.9609 22.6328 70.9609C22.9036 70.9609 23.1615 70.9167 23.4062 70.8281C23.6562 70.7344 23.875 70.5964 24.0625 70.4141C24.25 70.2318 24.3984 70.0026 24.5078 69.7266C24.6224 69.4505 24.6797 69.125 24.6797 68.75V64.0156H25.9922V72ZM29.7109 72H28.3984V60.7969H29.7109V64.9297C29.9453 64.6016 30.263 64.3411 30.6641 64.1484C31.0651 63.9557 31.526 63.8594 32.0469 63.8594C32.5625 63.8594 33.0286 63.9635 33.4453 64.1719C33.862 64.375 34.2188 64.6615 34.5156 65.0312C34.8125 65.401 35.0391 65.8411 35.1953 66.3516C35.3568 66.8568 35.4375 67.4115 35.4375 68.0156C35.4375 68.6198 35.3568 69.1745 35.1953 69.6797C35.0391 70.1849 34.8125 70.6224 34.5156 70.9922C34.2188 71.3568 33.862 71.6432 33.4453 71.8516C33.0286 72.0547 32.5625 72.1562 32.0469 72.1562C31.526 72.1562 31.0651 72.0599 30.6641 71.8672C30.263 71.6745 29.9453 71.4141 29.7109 71.0859V72ZM34.0781 67.9688C34.0781 67.5521 34.0286 67.1641 33.9297 66.8047C33.8307 66.4453 33.6849 66.1354 33.4922 65.875C33.2995 65.6094 33.0599 65.401 32.7734 65.25C32.4922 65.099 32.1693 65.0234 31.8047 65.0234C31.4557 65.0234 31.1484 65.0833 30.8828 65.2031C30.6224 65.3229 30.4036 65.487 30.2266 65.6953C30.0495 65.9036 29.9141 66.151 29.8203 66.4375C29.7318 66.7188 29.6875 67.026 29.6875 67.3594V68.6562C29.6875 68.9896 29.7318 69.2995 29.8203 69.5859C29.9141 69.8672 30.0495 70.112 30.2266 70.3203C30.4036 70.5286 30.6224 70.6927 30.8828 70.8125C31.1484 70.9323 31.4557 70.9922 31.8047 70.9922C32.1693 70.9922 32.4922 70.9167 32.7734 70.7656C33.0599 70.6146 33.2995 70.4089 33.4922 70.1484C33.6849 69.8828 33.8307 69.5703 33.9297 69.2109C34.0286 68.8516 34.0781 68.4635 34.0781 68.0469V67.9688ZM43.3672 72H42.0547V66.9766C42.0547 66.6224 42.0104 66.3229 41.9219 66.0781C41.8385 65.8333 41.724 65.6354 41.5781 65.4844C41.4375 65.3333 41.2682 65.224 41.0703 65.1562C40.8776 65.0885 40.6719 65.0547 40.4531 65.0547C40.2344 65.0547 40.0182 65.099 39.8047 65.1875C39.5964 65.2708 39.4089 65.4036 39.2422 65.5859C39.0807 65.7682 38.9479 66 38.8438 66.2812C38.7448 66.5573 38.6953 66.8906 38.6953 67.2812V72H37.3828V64.0156H38.6953V64.9297C38.9609 64.5599 39.2682 64.2891 39.6172 64.1172C39.9714 63.9453 40.362 63.8594 40.7891 63.8594C40.9661 63.8594 41.1589 63.8854 41.3672 63.9375C41.5755 63.9844 41.7786 64.0599 41.9766 64.1641C42.1797 64.2682 42.3646 64.4062 42.5312 64.5781C42.7031 64.7448 42.8411 64.9479 42.9453 65.1875C43.0911 64.9427 43.2578 64.737 43.4453 64.5703C43.638 64.3984 43.8385 64.2604 44.0469 64.1562C44.2604 64.0521 44.4792 63.9766 44.7031 63.9297C44.9323 63.8828 45.1589 63.8594 45.3828 63.8594C45.8151 63.8594 46.1979 63.9323 46.5312 64.0781C46.8646 64.224 47.1458 64.4193 47.375 64.6641C47.6042 64.9089 47.776 65.1927 47.8906 65.5156C48.0104 65.8385 48.0703 66.1771 48.0703 66.5312V72H46.7578V66.9766C46.7578 66.6224 46.7135 66.3229 46.625 66.0781C46.5365 65.8333 46.4167 65.6354 46.2656 65.4844C46.1146 65.3333 45.9401 65.224 45.7422 65.1562C45.5443 65.0885 45.3385 65.0547 45.125 65.0547C44.9062 65.0547 44.6901 65.099 44.4766 65.1875C44.2682 65.2708 44.0807 65.4036 43.9141 65.5859C43.7526 65.7682 43.6198 66 43.5156 66.2812C43.4167 66.5573 43.3672 66.8906 43.3672 67.2812V72ZM51.7266 72H50.4141V64.0156H51.7266V72ZM50.1719 61.7109C50.1719 61.5859 50.1953 61.4688 50.2422 61.3594C50.2943 61.25 50.3594 61.1536 50.4375 61.0703C50.5208 60.987 50.6172 60.9219 50.7266 60.875C50.8411 60.8229 50.9609 60.7969 51.0859 60.7969C51.2109 60.7969 51.3281 60.8229 51.4375 60.875C51.5469 60.9219 51.6406 60.987 51.7188 61.0703C51.8021 61.1536 51.8672 61.25 51.9141 61.3594C51.9661 61.4688 51.9922 61.5859 51.9922 61.7109C51.9922 61.8359 51.9661 61.9557 51.9141 62.0703C51.8672 62.1797 51.8021 62.276 51.7188 62.3594C51.6406 62.4375 51.5469 62.5026 51.4375 62.5547C51.3281 62.6016 51.2109 62.625 51.0859 62.625C50.9609 62.625 50.8411 62.6016 50.7266 62.5547C50.6172 62.5026 50.5208 62.4375 50.4375 62.3594C50.3594 62.276 50.2943 62.1797 50.2422 62.0703C50.1953 61.9557 50.1719 61.8359 50.1719 61.7109ZM59.4766 69.7891C59.4766 70.1641 59.3932 70.5 59.2266 70.7969C59.0651 71.0885 58.849 71.3359 58.5781 71.5391C58.3073 71.7422 57.9948 71.8958 57.6406 72C57.2917 72.1042 56.9323 72.1562 56.5625 72.1562C55.9792 72.1562 55.4167 72.0573 54.875 71.8594C54.3385 71.6562 53.862 71.3672 53.4453 70.9922L54.1641 70.0625C54.2891 70.1719 54.4323 70.2865 54.5938 70.4062C54.7604 70.526 54.9453 70.638 55.1484 70.7422C55.3516 70.8411 55.5703 70.9245 55.8047 70.9922C56.0391 71.0547 56.2865 71.0859 56.5469 71.0859C56.7604 71.0859 56.9635 71.0599 57.1562 71.0078C57.3542 70.9505 57.526 70.8698 57.6719 70.7656C57.8177 70.6562 57.9323 70.5286 58.0156 70.3828C58.1042 70.2318 58.1484 70.0625 58.1484 69.875C58.1484 69.6667 58.1016 69.4922 58.0078 69.3516C57.9193 69.2109 57.7969 69.0911 57.6406 68.9922C57.4844 68.8932 57.3021 68.8073 57.0938 68.7344C56.8854 68.6615 56.6667 68.5885 56.4375 68.5156L55.9375 68.3516C55.6562 68.2578 55.3854 68.151 55.125 68.0312C54.8646 67.9115 54.6328 67.7656 54.4297 67.5938C54.2318 67.4167 54.0729 67.2083 53.9531 66.9688C53.8385 66.7292 53.7812 66.4427 53.7812 66.1094C53.7812 65.8385 53.8385 65.5703 53.9531 65.3047C54.0677 65.0339 54.2422 64.7917 54.4766 64.5781C54.7161 64.3646 55.0182 64.1927 55.3828 64.0625C55.7474 63.9271 56.1771 63.8594 56.6719 63.8594C57.2188 63.8594 57.724 63.9505 58.1875 64.1328C58.6562 64.3151 59.0521 64.5417 59.375 64.8125L58.6875 65.7578C58.5729 65.6484 58.4375 65.5443 58.2812 65.4453C58.125 65.3464 57.9583 65.2604 57.7812 65.1875C57.6042 65.1094 57.4193 65.0469 57.2266 65C57.0339 64.9531 56.8438 64.9297 56.6562 64.9297C56.3698 64.9297 56.1276 64.9635 55.9297 65.0312C55.7318 65.0938 55.5729 65.1771 55.4531 65.2812C55.3333 65.3854 55.2448 65.5026 55.1875 65.6328C55.1354 65.763 55.1094 65.8906 55.1094 66.0156C55.1094 66.1979 55.1484 66.3516 55.2266 66.4766C55.3047 66.5964 55.4062 66.7005 55.5312 66.7891C55.6615 66.8776 55.8073 66.9531 55.9688 67.0156C56.1354 67.0781 56.3073 67.1406 56.4844 67.2031L57.1406 67.4219C57.4531 67.526 57.7396 67.638 58 67.7578C58.2604 67.8724 58.4896 68.0052 58.6875 68.1562C58.9375 68.3542 59.1302 68.5833 59.2656 68.8438C59.4062 69.1042 59.4766 69.4193 59.4766 69.7891ZM66.8359 69.7891C66.8359 70.1641 66.7526 70.5 66.5859 70.7969C66.4245 71.0885 66.2083 71.3359 65.9375 71.5391C65.6667 71.7422 65.3542 71.8958 65 72C64.651 72.1042 64.2917 72.1562 63.9219 72.1562C63.3385 72.1562 62.776 72.0573 62.2344 71.8594C61.6979 71.6562 61.2214 71.3672 60.8047 70.9922L61.5234 70.0625C61.6484 70.1719 61.7917 70.2865 61.9531 70.4062C62.1198 70.526 62.3047 70.638 62.5078 70.7422C62.7109 70.8411 62.9297 70.9245 63.1641 70.9922C63.3984 71.0547 63.6458 71.0859 63.9062 71.0859C64.1198 71.0859 64.3229 71.0599 64.5156 71.0078C64.7135 70.9505 64.8854 70.8698 65.0312 70.7656C65.1771 70.6562 65.2917 70.5286 65.375 70.3828C65.4635 70.2318 65.5078 70.0625 65.5078 69.875C65.5078 69.6667 65.4609 69.4922 65.3672 69.3516C65.2786 69.2109 65.1562 69.0911 65 68.9922C64.8438 68.8932 64.6615 68.8073 64.4531 68.7344C64.2448 68.6615 64.026 68.5885 63.7969 68.5156L63.2969 68.3516C63.0156 68.2578 62.7448 68.151 62.4844 68.0312C62.224 67.9115 61.9922 67.7656 61.7891 67.5938C61.5911 67.4167 61.4323 67.2083 61.3125 66.9688C61.1979 66.7292 61.1406 66.4427 61.1406 66.1094C61.1406 65.8385 61.1979 65.5703 61.3125 65.3047C61.4271 65.0339 61.6016 64.7917 61.8359 64.5781C62.0755 64.3646 62.3776 64.1927 62.7422 64.0625C63.1068 63.9271 63.5365 63.8594 64.0312 63.8594C64.5781 63.8594 65.0833 63.9505 65.5469 64.1328C66.0156 64.3151 66.4115 64.5417 66.7344 64.8125L66.0469 65.7578C65.9323 65.6484 65.7969 65.5443 65.6406 65.4453C65.4844 65.3464 65.3177 65.2604 65.1406 65.1875C64.9635 65.1094 64.7786 65.0469 64.5859 65C64.3932 64.9531 64.2031 64.9297 64.0156 64.9297C63.7292 64.9297 63.487 64.9635 63.2891 65.0312C63.0911 65.0938 62.9323 65.1771 62.8125 65.2812C62.6927 65.3854 62.6042 65.5026 62.5469 65.6328C62.4948 65.763 62.4688 65.8906 62.4688 66.0156C62.4688 66.1979 62.5078 66.3516 62.5859 66.4766C62.6641 66.5964 62.7656 66.7005 62.8906 66.7891C63.0208 66.8776 63.1667 66.9531 63.3281 67.0156C63.4948 67.0781 63.6667 67.1406 63.8438 67.2031L64.5 67.4219C64.8125 67.526 65.099 67.638 65.3594 67.7578C65.6198 67.8724 65.849 68.0052 66.0469 68.1562C66.2969 68.3542 66.4896 68.5833 66.625 68.8438C66.7656 69.1042 66.8359 69.4193 66.8359 69.7891ZM70.1641 72H68.8516V64.0156H70.1641V72ZM68.6094 61.7109C68.6094 61.5859 68.6328 61.4688 68.6797 61.3594C68.7318 61.25 68.7969 61.1536 68.875 61.0703C68.9583 60.987 69.0547 60.9219 69.1641 60.875C69.2786 60.8229 69.3984 60.7969 69.5234 60.7969C69.6484 60.7969 69.7656 60.8229 69.875 60.875C69.9844 60.9219 70.0781 60.987 70.1562 61.0703C70.2396 61.1536 70.3047 61.25 70.3516 61.3594C70.4036 61.4688 70.4297 61.5859 70.4297 61.7109C70.4297 61.8359 70.4036 61.9557 70.3516 62.0703C70.3047 62.1797 70.2396 62.276 70.1562 62.3594C70.0781 62.4375 69.9844 62.5026 69.875 62.5547C69.7656 62.6016 69.6484 62.625 69.5234 62.625C69.3984 62.625 69.2786 62.6016 69.1641 62.5547C69.0547 62.5026 68.9583 62.4375 68.875 62.3594C68.7969 62.276 68.7318 62.1797 68.6797 62.0703C68.6328 61.9557 68.6094 61.8359 68.6094 61.7109ZM75.7656 63.8594C76.3177 63.8594 76.8203 63.9635 77.2734 64.1719C77.7266 64.375 78.112 64.6615 78.4297 65.0312C78.7526 65.3958 79.0026 65.8333 79.1797 66.3438C79.3568 66.849 79.4453 67.4062 79.4453 68.0156C79.4453 68.6146 79.3568 69.1693 79.1797 69.6797C79.0026 70.1849 78.7526 70.6224 78.4297 70.9922C78.112 71.3568 77.7266 71.6432 77.2734 71.8516C76.8203 72.0547 76.3177 72.1562 75.7656 72.1562C75.2135 72.1562 74.7109 72.0547 74.2578 71.8516C73.8099 71.6432 73.4245 71.3568 73.1016 70.9922C72.7786 70.6224 72.5286 70.1849 72.3516 69.6797C72.1745 69.1693 72.0859 68.6146 72.0859 68.0156C72.0859 67.4062 72.1745 66.849 72.3516 66.3438C72.5286 65.8333 72.7786 65.3958 73.1016 65.0312C73.4245 64.6615 73.8099 64.375 74.2578 64.1719C74.7109 63.9635 75.2135 63.8594 75.7656 63.8594ZM75.7656 71.0078C76.1458 71.0078 76.4792 70.9297 76.7656 70.7734C77.0573 70.612 77.2995 70.3958 77.4922 70.125C77.6901 69.8542 77.8385 69.5417 77.9375 69.1875C78.0365 68.8281 78.0859 68.4531 78.0859 68.0625V67.9688C78.0859 67.5677 78.0365 67.1875 77.9375 66.8281C77.8385 66.4688 77.6901 66.1562 77.4922 65.8906C77.2995 65.6198 77.0573 65.4062 76.7656 65.25C76.4792 65.0885 76.1458 65.0078 75.7656 65.0078C75.3854 65.0078 75.0495 65.0885 74.7578 65.25C74.4714 65.4062 74.2292 65.6198 74.0312 65.8906C73.8385 66.1562 73.6927 66.4688 73.5938 66.8281C73.4948 67.1875 73.4453 67.5677 73.4453 67.9688V68.0625C73.4453 68.4531 73.4948 68.8281 73.5938 69.1875C73.6927 69.5417 73.8385 69.8542 74.0312 70.125C74.2292 70.3958 74.4714 70.612 74.7578 70.7734C75.0495 70.9297 75.3854 71.0078 75.7656 71.0078ZM81.3672 64.0156H82.6797V64.9297C82.9505 64.5599 83.2839 64.2891 83.6797 64.1172C84.0807 63.9453 84.526 63.8594 85.0156 63.8594C85.4583 63.8594 85.8464 63.9323 86.1797 64.0781C86.513 64.224 86.7917 64.4219 87.0156 64.6719C87.2396 64.9219 87.4062 65.2109 87.5156 65.5391C87.6302 65.8672 87.6875 66.2135 87.6875 66.5781V72H86.375V66.9922C86.375 66.6432 86.3307 66.3464 86.2422 66.1016C86.1589 65.8516 86.0417 65.651 85.8906 65.5C85.7448 65.3438 85.5703 65.2318 85.3672 65.1641C85.1693 65.0911 84.9557 65.0547 84.7266 65.0547C84.4766 65.0547 84.2292 65.1016 83.9844 65.1953C83.7448 65.2839 83.526 65.4193 83.3281 65.6016C83.1354 65.7839 82.9792 66.013 82.8594 66.2891C82.7396 66.5651 82.6797 66.8906 82.6797 67.2656V72H81.3672V64.0156Z" fill="#0B0C0C"/>
<path d="M100 16H134" stroke="#00703C" stroke-width="6"/>
<path d="M134 16H150" stroke="#00703C" stroke-width="6"/>
<path d="M150 16H166" stroke="#00703C" stroke-width="6"/>
<circle cx="150" cy="16" r="16" fill="#00703C"/>
<path d="M147.199 24L141 17.6988L143.956 14.6939L147.199 17.9896L156.044 9L159 12.0049L147.199 24Z" fill="white"/>
<path d="M166 16H200" stroke="#00703C" stroke-width="6"/>
<path d="M133.625 50.4141C133.625 49.612 133.737 48.862 133.961 48.1641C134.185 47.4609 134.508 46.8516 134.93 46.3359C135.352 45.8151 135.862 45.4062 136.461 45.1094C137.065 44.8073 137.745 44.6562 138.5 44.6562C139.026 44.6562 139.508 44.7266 139.945 44.8672C140.388 45.0026 140.784 45.1979 141.133 45.4531C141.482 45.7031 141.784 46.0078 142.039 46.3672C142.299 46.7214 142.513 47.1172 142.68 47.5547L141.367 48C141.284 47.7448 141.161 47.4896 141 47.2344C140.839 46.9792 140.638 46.75 140.398 46.5469C140.159 46.3438 139.88 46.1797 139.562 46.0547C139.245 45.9245 138.891 45.8594 138.5 45.8594C137.917 45.8594 137.409 45.9844 136.977 46.2344C136.549 46.4792 136.195 46.8073 135.914 47.2188C135.633 47.6302 135.422 48.1068 135.281 48.6484C135.146 49.1849 135.078 49.7422 135.078 50.3203V50.5156C135.078 51.0938 135.146 51.651 135.281 52.1875C135.422 52.724 135.633 53.1979 135.914 53.6094C136.195 54.0156 136.549 54.3438 136.977 54.5938C137.409 54.8385 137.917 54.9609 138.5 54.9609C138.891 54.9609 139.245 54.8984 139.562 54.7734C139.88 54.6432 140.159 54.4766 140.398 54.2734C140.638 54.0703 140.839 53.8411 141 53.5859C141.161 53.3307 141.284 53.0729 141.367 52.8125L142.68 53.2656C142.513 53.7031 142.299 54.099 142.039 54.4531C141.784 54.8073 141.482 55.112 141.133 55.3672C140.784 55.6172 140.388 55.8125 139.945 55.9531C139.508 56.0885 139.026 56.1562 138.5 56.1562C137.745 56.1562 137.065 56.0078 136.461 55.7109C135.862 55.4141 135.352 55.0078 134.93 54.4922C134.508 53.9766 134.185 53.3698 133.961 52.6719C133.737 51.974 133.625 51.2214 133.625 50.4141ZM149.203 55.2031C148.969 55.474 148.651 55.7005 148.25 55.8828C147.854 56.0651 147.388 56.1562 146.852 56.1562C146.456 56.1562 146.089 56.1016 145.75 55.9922C145.411 55.8776 145.117 55.7161 144.867 55.5078C144.617 55.2995 144.422 55.0469 144.281 54.75C144.141 54.4531 144.07 54.1172 144.07 53.7422C144.07 53.4297 144.12 53.1458 144.219 52.8906C144.323 52.6302 144.466 52.4036 144.648 52.2109C144.836 52.0182 145.06 51.862 145.32 51.7422C145.581 51.6172 145.872 51.5312 146.195 51.4844L149.016 51.1016V50.5938C149.016 50.2917 148.969 50.0391 148.875 49.8359C148.781 49.6276 148.654 49.4635 148.492 49.3438C148.336 49.224 148.148 49.138 147.93 49.0859C147.716 49.0339 147.484 49.0078 147.234 49.0078C146.786 49.0078 146.367 49.0703 145.977 49.1953C145.591 49.3203 145.242 49.4661 144.93 49.6328L144.438 48.5938C144.896 48.3333 145.375 48.1458 145.875 48.0312C146.38 47.9167 146.878 47.8594 147.367 47.8594C148.341 47.8594 149.078 48.0807 149.578 48.5234C150.078 48.9609 150.328 49.6016 150.328 50.4453V54.125C150.328 54.3906 150.38 54.6146 150.484 54.7969C150.589 54.974 150.755 55.1146 150.984 55.2188L150.242 56.1562C149.992 56.0938 149.776 55.9844 149.594 55.8281C149.417 55.6667 149.292 55.474 149.219 55.25L149.203 55.2031ZM146.867 52.4453C146.648 52.4766 146.448 52.5208 146.266 52.5781C146.089 52.6354 145.938 52.7135 145.812 52.8125C145.688 52.9062 145.589 53.0234 145.516 53.1641C145.448 53.3047 145.414 53.4766 145.414 53.6797C145.414 53.9141 145.458 54.1224 145.547 54.3047C145.635 54.487 145.755 54.6406 145.906 54.7656C146.057 54.8906 146.232 54.987 146.43 55.0547C146.633 55.1172 146.844 55.1484 147.062 55.1484C147.307 55.1484 147.547 55.1146 147.781 55.0469C148.016 54.9792 148.224 54.8828 148.406 54.7578C148.589 54.6276 148.734 54.4714 148.844 54.2891C148.958 54.1068 149.016 53.8984 149.016 53.6641V52.125L146.867 52.4453ZM158.055 53.7891C158.055 54.1641 157.971 54.5 157.805 54.7969C157.643 55.0885 157.427 55.3359 157.156 55.5391C156.885 55.7422 156.573 55.8958 156.219 56C155.87 56.1042 155.51 56.1562 155.141 56.1562C154.557 56.1562 153.995 56.0573 153.453 55.8594C152.917 55.6562 152.44 55.3672 152.023 54.9922L152.742 54.0625C152.867 54.1719 153.01 54.2865 153.172 54.4062C153.339 54.526 153.523 54.638 153.727 54.7422C153.93 54.8411 154.148 54.9245 154.383 54.9922C154.617 55.0547 154.865 55.0859 155.125 55.0859C155.339 55.0859 155.542 55.0599 155.734 55.0078C155.932 54.9505 156.104 54.8698 156.25 54.7656C156.396 54.6562 156.51 54.5286 156.594 54.3828C156.682 54.2318 156.727 54.0625 156.727 53.875C156.727 53.6667 156.68 53.4922 156.586 53.3516C156.497 53.2109 156.375 53.0911 156.219 52.9922C156.062 52.8932 155.88 52.8073 155.672 52.7344C155.464 52.6615 155.245 52.5885 155.016 52.5156L154.516 52.3516C154.234 52.2578 153.964 52.151 153.703 52.0312C153.443 51.9115 153.211 51.7656 153.008 51.5938C152.81 51.4167 152.651 51.2083 152.531 50.9688C152.417 50.7292 152.359 50.4427 152.359 50.1094C152.359 49.8385 152.417 49.5703 152.531 49.3047C152.646 49.0339 152.82 48.7917 153.055 48.5781C153.294 48.3646 153.596 48.1927 153.961 48.0625C154.326 47.9271 154.755 47.8594 155.25 47.8594C155.797 47.8594 156.302 47.9505 156.766 48.1328C157.234 48.3151 157.63 48.5417 157.953 48.8125L157.266 49.7578C157.151 49.6484 157.016 49.5443 156.859 49.4453C156.703 49.3464 156.536 49.2604 156.359 49.1875C156.182 49.1094 155.997 49.0469 155.805 49C155.612 48.9531 155.422 48.9297 155.234 48.9297C154.948 48.9297 154.706 48.9635 154.508 49.0312C154.31 49.0938 154.151 49.1771 154.031 49.2812C153.911 49.3854 153.823 49.5026 153.766 49.6328C153.714 49.763 153.688 49.8906 153.688 50.0156C153.688 50.1979 153.727 50.3516 153.805 50.4766C153.883 50.5964 153.984 50.7005 154.109 50.7891C154.24 50.8776 154.385 50.9531 154.547 51.0156C154.714 51.0781 154.885 51.1406 155.062 51.2031L155.719 51.4219C156.031 51.526 156.318 51.638 156.578 51.7578C156.839 51.8724 157.068 52.0052 157.266 52.1562C157.516 52.3542 157.708 52.5833 157.844 52.8438C157.984 53.1042 158.055 53.4193 158.055 53.7891ZM160.961 52.4141C160.987 52.7891 161.062 53.1354 161.188 53.4531C161.312 53.7708 161.482 54.0469 161.695 54.2812C161.914 54.5104 162.169 54.6901 162.461 54.8203C162.758 54.9453 163.086 55.0078 163.445 55.0078C163.888 55.0078 164.276 54.9349 164.609 54.7891C164.948 54.638 165.258 54.4505 165.539 54.2266L166.211 55.1719C165.852 55.4583 165.435 55.6953 164.961 55.8828C164.492 56.0651 163.966 56.1562 163.383 56.1562C162.805 56.1562 162.281 56.0547 161.812 55.8516C161.344 55.6432 160.943 55.3568 160.609 54.9922C160.281 54.6224 160.029 54.1849 159.852 53.6797C159.674 53.1693 159.586 52.6146 159.586 52.0156C159.586 51.4062 159.672 50.849 159.844 50.3438C160.021 49.8333 160.268 49.3958 160.586 49.0312C160.904 48.6615 161.284 48.375 161.727 48.1719C162.169 47.9635 162.661 47.8594 163.203 47.8594C163.729 47.8594 164.203 47.9635 164.625 48.1719C165.047 48.375 165.406 48.6615 165.703 49.0312C166 49.3958 166.227 49.8333 166.383 50.3438C166.544 50.849 166.625 51.401 166.625 52V52.4141H160.961ZM163.156 49.0078C162.823 49.0078 162.526 49.0729 162.266 49.2031C162.005 49.3333 161.781 49.5078 161.594 49.7266C161.411 49.9453 161.266 50.1979 161.156 50.4844C161.052 50.7656 160.992 51.0573 160.977 51.3594H165.203C165.193 51.0521 165.138 50.7578 165.039 50.4766C164.945 50.1901 164.81 49.9401 164.633 49.7266C164.461 49.5078 164.25 49.3333 164 49.2031C163.755 49.0729 163.474 49.0078 163.156 49.0078ZM121.078 69.7891C121.078 70.1641 120.995 70.5 120.828 70.7969C120.667 71.0885 120.451 71.3359 120.18 71.5391C119.909 71.7422 119.596 71.8958 119.242 72C118.893 72.1042 118.534 72.1562 118.164 72.1562C117.581 72.1562 117.018 72.0573 116.477 71.8594C115.94 71.6562 115.464 71.3672 115.047 70.9922L115.766 70.0625C115.891 70.1719 116.034 70.2865 116.195 70.4062C116.362 70.526 116.547 70.638 116.75 70.7422C116.953 70.8411 117.172 70.9245 117.406 70.9922C117.641 71.0547 117.888 71.0859 118.148 71.0859C118.362 71.0859 118.565 71.0599 118.758 71.0078C118.956 70.9505 119.128 70.8698 119.273 70.7656C119.419 70.6562 119.534 70.5286 119.617 70.3828C119.706 70.2318 119.75 70.0625 119.75 69.875C119.75 69.6667 119.703 69.4922 119.609 69.3516C119.521 69.2109 119.398 69.0911 119.242 68.9922C119.086 68.8932 118.904 68.8073 118.695 68.7344C118.487 68.6615 118.268 68.5885 118.039 68.5156L117.539 68.3516C117.258 68.2578 116.987 68.151 116.727 68.0312C116.466 67.9115 116.234 67.7656 116.031 67.5938C115.833 67.4167 115.674 67.2083 115.555 66.9688C115.44 66.7292 115.383 66.4427 115.383 66.1094C115.383 65.8385 115.44 65.5703 115.555 65.3047C115.669 65.0339 115.844 64.7917 116.078 64.5781C116.318 64.3646 116.62 64.1927 116.984 64.0625C117.349 63.9271 117.779 63.8594 118.273 63.8594C118.82 63.8594 119.326 63.9505 119.789 64.1328C120.258 64.3151 120.654 64.5417 120.977 64.8125L120.289 65.7578C120.174 65.6484 120.039 65.5443 119.883 65.4453C119.727 65.3464 119.56 65.2604 119.383 65.1875C119.206 65.1094 119.021 65.0469 118.828 65C118.635 64.9531 118.445 64.9297 118.258 64.9297C117.971 64.9297 117.729 64.9635 117.531 65.0312C117.333 65.0938 117.174 65.1771 117.055 65.2812C116.935 65.3854 116.846 65.5026 116.789 65.6328C116.737 65.763 116.711 65.8906 116.711 66.0156C116.711 66.1979 116.75 66.3516 116.828 66.4766C116.906 66.5964 117.008 66.7005 117.133 66.7891C117.263 66.8776 117.409 66.9531 117.57 67.0156C117.737 67.0781 117.909 67.1406 118.086 67.2031L118.742 67.4219C119.055 67.526 119.341 67.638 119.602 67.7578C119.862 67.8724 120.091 68.0052 120.289 68.1562C120.539 68.3542 120.732 68.5833 120.867 68.8438C121.008 69.1042 121.078 69.4193 121.078 69.7891ZM129.344 72H128.031V71.0859C127.76 71.4557 127.424 71.7266 127.023 71.8984C126.628 72.0703 126.185 72.1562 125.695 72.1562C125.253 72.1562 124.865 72.0833 124.531 71.9375C124.198 71.7917 123.919 71.5938 123.695 71.3438C123.471 71.0938 123.302 70.8047 123.188 70.4766C123.078 70.1484 123.023 69.8021 123.023 69.4375V64.0156H124.336V69.0234C124.336 69.3776 124.378 69.6771 124.461 69.9219C124.549 70.1667 124.667 70.3672 124.812 70.5234C124.964 70.6745 125.138 70.7865 125.336 70.8594C125.539 70.9271 125.755 70.9609 125.984 70.9609C126.255 70.9609 126.513 70.9167 126.758 70.8281C127.008 70.7344 127.227 70.5964 127.414 70.4141C127.602 70.2318 127.75 70.0026 127.859 69.7266C127.974 69.4505 128.031 69.125 128.031 68.75V64.0156H129.344V72ZM133.062 72H131.75V60.7969H133.062V64.9297C133.297 64.6016 133.615 64.3411 134.016 64.1484C134.417 63.9557 134.878 63.8594 135.398 63.8594C135.914 63.8594 136.38 63.9635 136.797 64.1719C137.214 64.375 137.57 64.6615 137.867 65.0312C138.164 65.401 138.391 65.8411 138.547 66.3516C138.708 66.8568 138.789 67.4115 138.789 68.0156C138.789 68.6198 138.708 69.1745 138.547 69.6797C138.391 70.1849 138.164 70.6224 137.867 70.9922C137.57 71.3568 137.214 71.6432 136.797 71.8516C136.38 72.0547 135.914 72.1562 135.398 72.1562C134.878 72.1562 134.417 72.0599 134.016 71.8672C133.615 71.6745 133.297 71.4141 133.062 71.0859V72ZM137.43 67.9688C137.43 67.5521 137.38 67.1641 137.281 66.8047C137.182 66.4453 137.036 66.1354 136.844 65.875C136.651 65.6094 136.411 65.401 136.125 65.25C135.844 65.099 135.521 65.0234 135.156 65.0234C134.807 65.0234 134.5 65.0833 134.234 65.2031C133.974 65.3229 133.755 65.487 133.578 65.6953C133.401 65.9036 133.266 66.151 133.172 66.4375C133.083 66.7188 133.039 67.026 133.039 67.3594V68.6562C133.039 68.9896 133.083 69.2995 133.172 69.5859C133.266 69.8672 133.401 70.112 133.578 70.3203C133.755 70.5286 133.974 70.6927 134.234 70.8125C134.5 70.9323 134.807 70.9922 135.156 70.9922C135.521 70.9922 135.844 70.9167 136.125 70.7656C136.411 70.6146 136.651 70.4089 136.844 70.1484C137.036 69.8828 137.182 69.5703 137.281 69.2109C137.38 68.8516 137.43 68.4635 137.43 68.0469V67.9688ZM146.719 72H145.406V66.9766C145.406 66.6224 145.362 66.3229 145.273 66.0781C145.19 65.8333 145.076 65.6354 144.93 65.4844C144.789 65.3333 144.62 65.224 144.422 65.1562C144.229 65.0885 144.023 65.0547 143.805 65.0547C143.586 65.0547 143.37 65.099 143.156 65.1875C142.948 65.2708 142.76 65.4036 142.594 65.5859C142.432 65.7682 142.299 66 142.195 66.2812C142.096 66.5573 142.047 66.8906 142.047 67.2812V72H140.734V64.0156H142.047V64.9297C142.312 64.5599 142.62 64.2891 142.969 64.1172C143.323 63.9453 143.714 63.8594 144.141 63.8594C144.318 63.8594 144.51 63.8854 144.719 63.9375C144.927 63.9844 145.13 64.0599 145.328 64.1641C145.531 64.2682 145.716 64.4062 145.883 64.5781C146.055 64.7448 146.193 64.9479 146.297 65.1875C146.443 64.9427 146.609 64.737 146.797 64.5703C146.99 64.3984 147.19 64.2604 147.398 64.1562C147.612 64.0521 147.831 63.9766 148.055 63.9297C148.284 63.8828 148.51 63.8594 148.734 63.8594C149.167 63.8594 149.549 63.9323 149.883 64.0781C150.216 64.224 150.497 64.4193 150.727 64.6641C150.956 64.9089 151.128 65.1927 151.242 65.5156C151.362 65.8385 151.422 66.1771 151.422 66.5312V72H150.109V66.9766C150.109 66.6224 150.065 66.3229 149.977 66.0781C149.888 65.8333 149.768 65.6354 149.617 65.4844C149.466 65.3333 149.292 65.224 149.094 65.1562C148.896 65.0885 148.69 65.0547 148.477 65.0547C148.258 65.0547 148.042 65.099 147.828 65.1875C147.62 65.2708 147.432 65.4036 147.266 65.5859C147.104 65.7682 146.971 66 146.867 66.2812C146.768 66.5573 146.719 66.8906 146.719 67.2812V72ZM155.078 72H153.766V64.0156H155.078V72ZM153.523 61.7109C153.523 61.5859 153.547 61.4688 153.594 61.3594C153.646 61.25 153.711 61.1536 153.789 61.0703C153.872 60.987 153.969 60.9219 154.078 60.875C154.193 60.8229 154.312 60.7969 154.438 60.7969C154.562 60.7969 154.68 60.8229 154.789 60.875C154.898 60.9219 154.992 60.987 155.07 61.0703C155.154 61.1536 155.219 61.25 155.266 61.3594C155.318 61.4688 155.344 61.5859 155.344 61.7109C155.344 61.8359 155.318 61.9557 155.266 62.0703C155.219 62.1797 155.154 62.276 155.07 62.3594C154.992 62.4375 154.898 62.5026 154.789 62.5547C154.68 62.6016 154.562 62.625 154.438 62.625C154.312 62.625 154.193 62.6016 154.078 62.5547C153.969 62.5026 153.872 62.4375 153.789 62.3594C153.711 62.276 153.646 62.1797 153.594 62.0703C153.547 61.9557 153.523 61.8359 153.523 61.7109ZM159.547 70.0156C159.547 70.151 159.555 70.2786 159.57 70.3984C159.591 70.513 159.635 70.6146 159.703 70.7031C159.776 70.7917 159.88 70.862 160.016 70.9141C160.151 70.9661 160.336 70.9922 160.57 70.9922C160.633 70.9922 160.706 70.9896 160.789 70.9844C160.878 70.9792 160.969 70.974 161.062 70.9688C161.156 70.9583 161.247 70.9479 161.336 70.9375C161.424 70.9219 161.5 70.9089 161.562 70.8984L161.703 72.0469C161.552 72.0677 161.396 72.0859 161.234 72.1016C161.099 72.1172 160.948 72.1302 160.781 72.1406C160.615 72.151 160.448 72.1562 160.281 72.1562C159.964 72.1562 159.677 72.1224 159.422 72.0547C159.172 71.9922 158.958 71.888 158.781 71.7422C158.604 71.5964 158.469 71.4062 158.375 71.1719C158.281 70.9323 158.234 70.6432 158.234 70.3047V65.1719H156.727V64.0156H158.234V61.4062L159.547 60.9453V64.0156H161.766V65.1719H159.547V70.0156ZM165.453 70.0156C165.453 70.151 165.461 70.2786 165.477 70.3984C165.497 70.513 165.542 70.6146 165.609 70.7031C165.682 70.7917 165.786 70.862 165.922 70.9141C166.057 70.9661 166.242 70.9922 166.477 70.9922C166.539 70.9922 166.612 70.9896 166.695 70.9844C166.784 70.9792 166.875 70.974 166.969 70.9688C167.062 70.9583 167.154 70.9479 167.242 70.9375C167.331 70.9219 167.406 70.9089 167.469 70.8984L167.609 72.0469C167.458 72.0677 167.302 72.0859 167.141 72.1016C167.005 72.1172 166.854 72.1302 166.688 72.1406C166.521 72.151 166.354 72.1562 166.188 72.1562C165.87 72.1562 165.583 72.1224 165.328 72.0547C165.078 71.9922 164.865 71.888 164.688 71.7422C164.51 71.5964 164.375 71.4062 164.281 71.1719C164.188 70.9323 164.141 70.6432 164.141 70.3047V65.1719H162.633V64.0156H164.141V61.4062L165.453 60.9453V64.0156H167.672V65.1719H165.453V70.0156ZM170.188 68.4141C170.214 68.7891 170.289 69.1354 170.414 69.4531C170.539 69.7708 170.708 70.0469 170.922 70.2812C171.141 70.5104 171.396 70.6901 171.688 70.8203C171.984 70.9453 172.312 71.0078 172.672 71.0078C173.115 71.0078 173.503 70.9349 173.836 70.7891C174.174 70.638 174.484 70.4505 174.766 70.2266L175.438 71.1719C175.078 71.4583 174.661 71.6953 174.188 71.8828C173.719 72.0651 173.193 72.1562 172.609 72.1562C172.031 72.1562 171.508 72.0547 171.039 71.8516C170.57 71.6432 170.169 71.3568 169.836 70.9922C169.508 70.6224 169.255 70.1849 169.078 69.6797C168.901 69.1693 168.812 68.6146 168.812 68.0156C168.812 67.4062 168.898 66.849 169.07 66.3438C169.247 65.8333 169.495 65.3958 169.812 65.0312C170.13 64.6615 170.51 64.375 170.953 64.1719C171.396 63.9635 171.888 63.8594 172.43 63.8594C172.956 63.8594 173.43 63.9635 173.852 64.1719C174.273 64.375 174.633 64.6615 174.93 65.0312C175.227 65.3958 175.453 65.8333 175.609 66.3438C175.771 66.849 175.852 67.401 175.852 68V68.4141H170.188ZM172.383 65.0078C172.049 65.0078 171.753 65.0729 171.492 65.2031C171.232 65.3333 171.008 65.5078 170.82 65.7266C170.638 65.9453 170.492 66.1979 170.383 66.4844C170.279 66.7656 170.219 67.0573 170.203 67.3594H174.43C174.419 67.0521 174.365 66.7578 174.266 66.4766C174.172 66.1901 174.036 65.9401 173.859 65.7266C173.688 65.5078 173.477 65.3333 173.227 65.2031C172.982 65.0729 172.701 65.0078 172.383 65.0078ZM182.945 71.0859C182.711 71.4141 182.391 71.6745 181.984 71.8672C181.583 72.0599 181.125 72.1562 180.609 72.1562C180.094 72.1562 179.628 72.0547 179.211 71.8516C178.794 71.6432 178.438 71.3568 178.141 70.9922C177.844 70.6224 177.615 70.1849 177.453 69.6797C177.297 69.1745 177.219 68.6198 177.219 68.0156C177.219 67.4115 177.297 66.8568 177.453 66.3516C177.615 65.8411 177.844 65.401 178.141 65.0312C178.438 64.6615 178.794 64.375 179.211 64.1719C179.628 63.9635 180.094 63.8594 180.609 63.8594C181.125 63.8594 181.583 63.9557 181.984 64.1484C182.391 64.3411 182.711 64.6016 182.945 64.9297V60.7969H184.258V72H182.945V71.0859ZM178.578 68.0469C178.578 68.4635 178.628 68.8516 178.727 69.2109C178.826 69.5703 178.971 69.8828 179.164 70.1484C179.357 70.4089 179.594 70.6146 179.875 70.7656C180.156 70.9167 180.482 70.9922 180.852 70.9922C181.201 70.9922 181.505 70.9323 181.766 70.8125C182.031 70.6927 182.253 70.5286 182.43 70.3203C182.607 70.112 182.74 69.8672 182.828 69.5859C182.917 69.2995 182.961 68.9896 182.961 68.6562V67.3594C182.961 67.026 182.917 66.7188 182.828 66.4375C182.74 66.151 182.607 65.9036 182.43 65.6953C182.253 65.487 182.031 65.3229 181.766 65.2031C181.505 65.0833 181.201 65.0234 180.852 65.0234C180.482 65.0234 180.156 65.099 179.875 65.25C179.594 65.401 179.357 65.6094 179.164 65.875C178.971 66.1354 178.826 66.4453 178.727 66.8047C178.628 67.1641 178.578 67.5521 178.578 67.9688V68.0469Z" fill="#0B0C0C"/>
<path d="M200 16H234" stroke="#00703C" stroke-width="6"/>
<path d="M234 16H250" stroke="#00703C" stroke-width="6"/>
<path d="M250 16H266" stroke="#00703C" stroke-width="6"/>
<circle cx="250" cy="16" r="13" fill="#00703C" stroke="#00703C" stroke-width="6"/>
<path d="M266 16H300" stroke="#00703C" stroke-width="6"/>
<path d="M232.719 51.3984C232.719 50.5964 232.839 49.8464 233.078 49.1484C233.323 48.4453 233.672 47.8359 234.125 47.3203C234.578 46.7995 235.128 46.3906 235.773 46.0938C236.419 45.7917 237.146 45.6406 237.953 45.6406C238.536 45.6406 239.076 45.7161 239.57 45.8672C240.07 46.0182 240.518 46.2318 240.914 46.5078C241.315 46.7839 241.659 47.1172 241.945 47.5078C242.232 47.8984 242.458 48.3359 242.625 48.8203L240.445 49.5469C240.383 49.3385 240.284 49.125 240.148 48.9062C240.013 48.6823 239.841 48.4818 239.633 48.3047C239.424 48.1224 239.18 47.974 238.898 47.8594C238.622 47.7448 238.312 47.6875 237.969 47.6875C237.453 47.6875 237.01 47.7943 236.641 48.0078C236.276 48.2161 235.977 48.4948 235.742 48.8438C235.508 49.1875 235.333 49.5807 235.219 50.0234C235.109 50.4609 235.055 50.9089 235.055 51.3672V51.4297C235.055 51.8932 235.109 52.3464 235.219 52.7891C235.333 53.2266 235.508 53.6172 235.742 53.9609C235.977 54.3047 236.276 54.5833 236.641 54.7969C237.01 55.0052 237.453 55.1094 237.969 55.1094C238.312 55.1094 238.622 55.0521 238.898 54.9375C239.18 54.8229 239.424 54.6771 239.633 54.5C239.841 54.3177 240.013 54.1172 240.148 53.8984C240.284 53.6797 240.383 53.4661 240.445 53.2578L242.625 53.9766C242.458 54.4609 242.232 54.8984 241.945 55.2891C241.659 55.6797 241.315 56.0156 240.914 56.2969C240.518 56.5729 240.07 56.7865 239.57 56.9375C239.076 57.0833 238.536 57.1562 237.953 57.1562C237.146 57.1562 236.419 57.0078 235.773 56.7109C235.128 56.4141 234.578 56.0052 234.125 55.4844C233.672 54.9635 233.323 54.3542 233.078 53.6562C232.839 52.9583 232.719 52.2057 232.719 51.3984ZM246.727 53.6016C246.461 53.6432 246.247 53.737 246.086 53.8828C245.924 54.0234 245.844 54.2161 245.844 54.4609C245.844 54.7318 245.943 54.9661 246.141 55.1641C246.339 55.3568 246.63 55.4531 247.016 55.4531C247.422 55.4531 247.742 55.3359 247.977 55.1016C248.211 54.8672 248.328 54.5573 248.328 54.1719V53.3281L246.727 53.6016ZM248.68 56.2109C248.591 56.3099 248.482 56.4167 248.352 56.5312C248.227 56.6406 248.076 56.7422 247.898 56.8359C247.727 56.9245 247.523 57 247.289 57.0625C247.055 57.125 246.792 57.1562 246.5 57.1562C246.083 57.1562 245.698 57.0911 245.344 56.9609C244.995 56.8255 244.688 56.638 244.422 56.3984C244.156 56.1589 243.948 55.8828 243.797 55.5703C243.646 55.2526 243.57 54.9089 243.57 54.5391C243.57 53.8672 243.779 53.3177 244.195 52.8906C244.612 52.4635 245.188 52.1953 245.922 52.0859L248.328 51.7344V51.5781C248.328 51.2031 248.214 50.9062 247.984 50.6875C247.755 50.4688 247.383 50.3594 246.867 50.3594C246.654 50.3594 246.438 50.3854 246.219 50.4375C246 50.4844 245.789 50.5391 245.586 50.6016C245.388 50.6641 245.203 50.737 245.031 50.8203C244.859 50.8984 244.708 50.9688 244.578 51.0312L243.734 49.3828C244.214 49.1172 244.745 48.8984 245.328 48.7266C245.917 48.5547 246.526 48.4688 247.156 48.4688C247.542 48.4688 247.93 48.5104 248.32 48.5938C248.716 48.6719 249.073 48.8177 249.391 49.0312C249.714 49.2448 249.977 49.5365 250.18 49.9062C250.383 50.2708 250.484 50.737 250.484 51.3047V54.7422C250.484 54.987 250.547 55.1693 250.672 55.2891C250.802 55.4036 250.979 55.5104 251.203 55.6094L250.227 57.1562C249.831 57.1146 249.513 57.013 249.273 56.8516C249.034 56.6849 248.836 56.4714 248.68 56.2109ZM252.883 54.3281C253.19 54.6042 253.557 54.8411 253.984 55.0391C254.411 55.237 254.844 55.3359 255.281 55.3359C255.599 55.3359 255.849 55.276 256.031 55.1562C256.214 55.0312 256.305 54.8724 256.305 54.6797C256.305 54.3516 255.953 54.0964 255.25 53.9141L254.641 53.75C254.339 53.6771 254.034 53.5781 253.727 53.4531C253.419 53.3229 253.135 53.1536 252.875 52.9453C252.62 52.737 252.411 52.4844 252.25 52.1875C252.094 51.8854 252.016 51.5156 252.016 51.0781C252.016 50.7292 252.091 50.3984 252.242 50.0859C252.398 49.7682 252.617 49.4896 252.898 49.25C253.185 49.0104 253.531 48.8203 253.938 48.6797C254.344 48.5391 254.797 48.4688 255.297 48.4688C256.01 48.4688 256.646 48.5807 257.203 48.8047C257.766 49.0286 258.208 49.2812 258.531 49.5625L257.406 51C257.141 50.8073 256.826 50.6432 256.461 50.5078C256.102 50.3672 255.74 50.2969 255.375 50.2969C255.036 50.2969 254.773 50.3594 254.586 50.4844C254.398 50.6042 254.305 50.75 254.305 50.9219C254.305 51.1042 254.385 51.2526 254.547 51.3672C254.714 51.4766 254.953 51.5729 255.266 51.6562L256.172 51.9141C257.036 52.1589 257.656 52.4896 258.031 52.9062C258.406 53.3229 258.594 53.849 258.594 54.4844C258.594 54.8385 258.521 55.1771 258.375 55.5C258.229 55.8177 258.016 56.1016 257.734 56.3516C257.453 56.6016 257.104 56.7995 256.688 56.9453C256.271 57.0859 255.797 57.1562 255.266 57.1562C254.859 57.1562 254.477 57.1198 254.117 57.0469C253.763 56.974 253.432 56.875 253.125 56.75C252.823 56.6198 252.549 56.474 252.305 56.3125C252.06 56.151 251.852 55.9896 251.68 55.8281L252.883 54.3281ZM261.797 53.5625C261.833 53.8125 261.911 54.0417 262.031 54.25C262.156 54.4583 262.312 54.638 262.5 54.7891C262.688 54.9349 262.904 55.0495 263.148 55.1328C263.393 55.2161 263.654 55.2578 263.93 55.2578C264.247 55.2578 264.591 55.1979 264.961 55.0781C265.331 54.9531 265.669 54.7734 265.977 54.5391L267.016 56.0547C266.625 56.3828 266.146 56.6484 265.578 56.8516C265.01 57.0547 264.406 57.1562 263.766 57.1562C263.188 57.1562 262.643 57.0573 262.133 56.8594C261.622 56.6615 261.174 56.375 260.789 56C260.409 55.625 260.107 55.1693 259.883 54.6328C259.664 54.0964 259.555 53.4922 259.555 52.8203C259.555 52.2057 259.651 51.6328 259.844 51.1016C260.042 50.5703 260.315 50.1094 260.664 49.7188C261.018 49.3281 261.44 49.0234 261.93 48.8047C262.419 48.5807 262.961 48.4688 263.555 48.4688C264.107 48.4688 264.62 48.5703 265.094 48.7734C265.568 48.9714 265.979 49.2526 266.328 49.6172C266.677 49.9766 266.951 50.4089 267.148 50.9141C267.346 51.4193 267.445 51.9766 267.445 52.5859V53.5625H261.797ZM263.547 50.3438C263.083 50.3438 262.69 50.5 262.367 50.8125C262.049 51.1198 261.865 51.4922 261.812 51.9297H265.188C265.177 51.487 265.016 51.112 264.703 50.8047C264.391 50.4974 264.005 50.3438 263.547 50.3438ZM229.773 73H227.617V64.6328H229.773V73ZM227.391 62.4375C227.391 62.2604 227.424 62.0938 227.492 61.9375C227.56 61.776 227.651 61.638 227.766 61.5234C227.885 61.4036 228.023 61.3099 228.18 61.2422C228.336 61.1745 228.505 61.1406 228.688 61.1406C228.865 61.1406 229.031 61.1745 229.188 61.2422C229.349 61.3099 229.487 61.4036 229.602 61.5234C229.721 61.638 229.815 61.776 229.883 61.9375C229.951 62.0938 229.984 62.2604 229.984 62.4375C229.984 62.6198 229.951 62.7891 229.883 62.9453C229.815 63.1016 229.721 63.2396 229.602 63.3594C229.487 63.474 229.349 63.5651 229.188 63.6328C229.031 63.7005 228.865 63.7344 228.688 63.7344C228.505 63.7344 228.336 63.7005 228.18 63.6328C228.023 63.5651 227.885 63.474 227.766 63.3594C227.651 63.2396 227.56 63.1016 227.492 62.9453C227.424 62.7891 227.391 62.6198 227.391 62.4375ZM232.227 70.3281C232.534 70.6042 232.901 70.8411 233.328 71.0391C233.755 71.237 234.188 71.3359 234.625 71.3359C234.943 71.3359 235.193 71.276 235.375 71.1562C235.557 71.0312 235.648 70.8724 235.648 70.6797C235.648 70.3516 235.297 70.0964 234.594 69.9141L233.984 69.75C233.682 69.6771 233.378 69.5781 233.07 69.4531C232.763 69.3229 232.479 69.1536 232.219 68.9453C231.964 68.737 231.755 68.4844 231.594 68.1875C231.438 67.8854 231.359 67.5156 231.359 67.0781C231.359 66.7292 231.435 66.3984 231.586 66.0859C231.742 65.7682 231.961 65.4896 232.242 65.25C232.529 65.0104 232.875 64.8203 233.281 64.6797C233.688 64.5391 234.141 64.4688 234.641 64.4688C235.354 64.4688 235.99 64.5807 236.547 64.8047C237.109 65.0286 237.552 65.2812 237.875 65.5625L236.75 67C236.484 66.8073 236.169 66.6432 235.805 66.5078C235.445 66.3672 235.083 66.2969 234.719 66.2969C234.38 66.2969 234.117 66.3594 233.93 66.4844C233.742 66.6042 233.648 66.75 233.648 66.9219C233.648 67.1042 233.729 67.2526 233.891 67.3672C234.057 67.4766 234.297 67.5729 234.609 67.6562L235.516 67.9141C236.38 68.1589 237 68.4896 237.375 68.9062C237.75 69.3229 237.938 69.849 237.938 70.4844C237.938 70.8385 237.865 71.1771 237.719 71.5C237.573 71.8177 237.359 72.1016 237.078 72.3516C236.797 72.6016 236.448 72.7995 236.031 72.9453C235.615 73.0859 235.141 73.1562 234.609 73.1562C234.203 73.1562 233.82 73.1198 233.461 73.0469C233.107 72.974 232.776 72.875 232.469 72.75C232.167 72.6198 231.893 72.474 231.648 72.3125C231.404 72.151 231.195 71.9896 231.023 71.8281L232.227 70.3281ZM239.93 70.3281C240.237 70.6042 240.604 70.8411 241.031 71.0391C241.458 71.237 241.891 71.3359 242.328 71.3359C242.646 71.3359 242.896 71.276 243.078 71.1562C243.26 71.0312 243.352 70.8724 243.352 70.6797C243.352 70.3516 243 70.0964 242.297 69.9141L241.688 69.75C241.385 69.6771 241.081 69.5781 240.773 69.4531C240.466 69.3229 240.182 69.1536 239.922 68.9453C239.667 68.737 239.458 68.4844 239.297 68.1875C239.141 67.8854 239.062 67.5156 239.062 67.0781C239.062 66.7292 239.138 66.3984 239.289 66.0859C239.445 65.7682 239.664 65.4896 239.945 65.25C240.232 65.0104 240.578 64.8203 240.984 64.6797C241.391 64.5391 241.844 64.4688 242.344 64.4688C243.057 64.4688 243.693 64.5807 244.25 64.8047C244.812 65.0286 245.255 65.2812 245.578 65.5625L244.453 67C244.188 66.8073 243.872 66.6432 243.508 66.5078C243.148 66.3672 242.786 66.2969 242.422 66.2969C242.083 66.2969 241.82 66.3594 241.633 66.4844C241.445 66.6042 241.352 66.75 241.352 66.9219C241.352 67.1042 241.432 67.2526 241.594 67.3672C241.76 67.4766 242 67.5729 242.312 67.6562L243.219 67.9141C244.083 68.1589 244.703 68.4896 245.078 68.9062C245.453 69.3229 245.641 69.849 245.641 70.4844C245.641 70.8385 245.568 71.1771 245.422 71.5C245.276 71.8177 245.062 72.1016 244.781 72.3516C244.5 72.6016 244.151 72.7995 243.734 72.9453C243.318 73.0859 242.844 73.1562 242.312 73.1562C241.906 73.1562 241.523 73.1198 241.164 73.0469C240.81 72.974 240.479 72.875 240.172 72.75C239.87 72.6198 239.596 72.474 239.352 72.3125C239.107 72.151 238.898 71.9896 238.727 71.8281L239.93 70.3281ZM254.156 73H252V72.2812C251.88 72.3958 251.75 72.5078 251.609 72.6172C251.469 72.7214 251.312 72.8151 251.141 72.8984C250.969 72.9766 250.776 73.0391 250.562 73.0859C250.354 73.1328 250.122 73.1562 249.867 73.1562C249.414 73.1562 249.008 73.0833 248.648 72.9375C248.289 72.7865 247.984 72.5833 247.734 72.3281C247.49 72.0677 247.302 71.763 247.172 71.4141C247.042 71.0651 246.977 70.6875 246.977 70.2812V64.6328H249.133V69.4922C249.133 69.7891 249.164 70.0417 249.227 70.25C249.294 70.4583 249.385 70.6276 249.5 70.7578C249.62 70.8828 249.76 70.9766 249.922 71.0391C250.083 71.0964 250.258 71.125 250.445 71.125C250.664 71.125 250.867 71.0859 251.055 71.0078C251.247 70.9297 251.414 70.8125 251.555 70.6562C251.695 70.4948 251.805 70.2943 251.883 70.0547C251.961 69.8151 252 69.5339 252 69.2109V64.6328H254.156V73ZM257.828 69.5625C257.865 69.8125 257.943 70.0417 258.062 70.25C258.188 70.4583 258.344 70.638 258.531 70.7891C258.719 70.9349 258.935 71.0495 259.18 71.1328C259.424 71.2161 259.685 71.2578 259.961 71.2578C260.279 71.2578 260.622 71.1979 260.992 71.0781C261.362 70.9531 261.701 70.7734 262.008 70.5391L263.047 72.0547C262.656 72.3828 262.177 72.6484 261.609 72.8516C261.042 73.0547 260.438 73.1562 259.797 73.1562C259.219 73.1562 258.674 73.0573 258.164 72.8594C257.654 72.6615 257.206 72.375 256.82 72C256.44 71.625 256.138 71.1693 255.914 70.6328C255.695 70.0964 255.586 69.4922 255.586 68.8203C255.586 68.2057 255.682 67.6328 255.875 67.1016C256.073 66.5703 256.346 66.1094 256.695 65.7188C257.049 65.3281 257.471 65.0234 257.961 64.8047C258.451 64.5807 258.992 64.4688 259.586 64.4688C260.138 64.4688 260.651 64.5703 261.125 64.7734C261.599 64.9714 262.01 65.2526 262.359 65.6172C262.708 65.9766 262.982 66.4089 263.18 66.9141C263.378 67.4193 263.477 67.9766 263.477 68.5859V69.5625H257.828ZM259.578 66.3438C259.115 66.3438 258.721 66.5 258.398 66.8125C258.081 67.1198 257.896 67.4922 257.844 67.9297H261.219C261.208 67.487 261.047 67.112 260.734 66.8047C260.422 66.4974 260.036 66.3438 259.578 66.3438ZM270.227 73V72.2812C270.112 72.4062 269.984 72.5234 269.844 72.6328C269.708 72.737 269.555 72.8281 269.383 72.9062C269.216 72.9844 269.031 73.0443 268.828 73.0859C268.63 73.1328 268.409 73.1562 268.164 73.1562C267.612 73.1562 267.107 73.0469 266.648 72.8281C266.19 72.6094 265.797 72.3073 265.469 71.9219C265.141 71.5365 264.885 71.0781 264.703 70.5469C264.526 70.0156 264.438 69.4401 264.438 68.8203C264.438 68.2005 264.526 67.625 264.703 67.0938C264.88 66.5625 265.128 66.1042 265.445 65.7188C265.768 65.3281 266.156 65.0234 266.609 64.8047C267.062 64.5807 267.565 64.4688 268.117 64.4688C268.607 64.4688 269.021 64.5547 269.359 64.7266C269.703 64.8932 269.992 65.1016 270.227 65.3516V61.7969H272.383V73H270.227ZM270.289 68.0391C270.289 67.8151 270.247 67.6068 270.164 67.4141C270.086 67.2214 269.971 67.0547 269.82 66.9141C269.669 66.7734 269.487 66.6641 269.273 66.5859C269.065 66.5078 268.828 66.4688 268.562 66.4688C268.255 66.4688 267.982 66.526 267.742 66.6406C267.508 66.7552 267.31 66.9167 267.148 67.125C266.987 67.3281 266.865 67.5703 266.781 67.8516C266.698 68.1328 266.656 68.4401 266.656 68.7734V68.875C266.656 69.2083 266.698 69.5156 266.781 69.7969C266.865 70.0729 266.987 70.3125 267.148 70.5156C267.31 70.7188 267.508 70.8776 267.742 70.9922C267.982 71.1016 268.255 71.1562 268.562 71.1562C268.828 71.1562 269.065 71.1172 269.273 71.0391C269.487 70.9609 269.669 70.8516 269.82 70.7109C269.971 70.5703 270.086 70.4062 270.164 70.2188C270.247 70.026 270.289 69.8177 270.289 69.5938V68.0391Z" fill="#0B0C0C"/>
<path d="M300 16H334" stroke="#00703C" stroke-width="6"/>
<path d="M334 16H350" stroke="#00703C" stroke-width="6"/>
<path d="M350 16H366" stroke="#00703C" stroke-width="6"/>
<circle cx="350" cy="16" r="13" fill="white" stroke="#00703C" stroke-width="6"/>
<path d="M366 16H400" stroke="#00703C" stroke-width="6"/>
<path d="M327.234 53.3125H322.836L322.055 56H320.594L324.07 44.7969H326.055L329.555 56H328.039L327.234 53.3125ZM323.172 52.1406H326.898L325.094 46.0312H324.969L323.172 52.1406ZM337.773 54.4453L339.219 48.0156H340.609L338.656 56H336.977L335.359 49.6016L333.711 56H332.094L330.156 48.0156H331.57L332.961 54.4453L334.641 48.0156H336.125L337.773 54.4453ZM346.844 55.2031C346.609 55.474 346.292 55.7005 345.891 55.8828C345.495 56.0651 345.029 56.1562 344.492 56.1562C344.096 56.1562 343.729 56.1016 343.391 55.9922C343.052 55.8776 342.758 55.7161 342.508 55.5078C342.258 55.2995 342.062 55.0469 341.922 54.75C341.781 54.4531 341.711 54.1172 341.711 53.7422C341.711 53.4297 341.76 53.1458 341.859 52.8906C341.964 52.6302 342.107 52.4036 342.289 52.2109C342.477 52.0182 342.701 51.862 342.961 51.7422C343.221 51.6172 343.513 51.5312 343.836 51.4844L346.656 51.1016V50.5938C346.656 50.2917 346.609 50.0391 346.516 49.8359C346.422 49.6276 346.294 49.4635 346.133 49.3438C345.977 49.224 345.789 49.138 345.57 49.0859C345.357 49.0339 345.125 49.0078 344.875 49.0078C344.427 49.0078 344.008 49.0703 343.617 49.1953C343.232 49.3203 342.883 49.4661 342.57 49.6328L342.078 48.5938C342.536 48.3333 343.016 48.1458 343.516 48.0312C344.021 47.9167 344.518 47.8594 345.008 47.8594C345.982 47.8594 346.719 48.0807 347.219 48.5234C347.719 48.9609 347.969 49.6016 347.969 50.4453V54.125C347.969 54.3906 348.021 54.6146 348.125 54.7969C348.229 54.974 348.396 55.1146 348.625 55.2188L347.883 56.1562C347.633 56.0938 347.417 55.9844 347.234 55.8281C347.057 55.6667 346.932 55.474 346.859 55.25L346.844 55.2031ZM344.508 52.4453C344.289 52.4766 344.089 52.5208 343.906 52.5781C343.729 52.6354 343.578 52.7135 343.453 52.8125C343.328 52.9062 343.229 53.0234 343.156 53.1641C343.089 53.3047 343.055 53.4766 343.055 53.6797C343.055 53.9141 343.099 54.1224 343.188 54.3047C343.276 54.487 343.396 54.6406 343.547 54.7656C343.698 54.8906 343.872 54.987 344.07 55.0547C344.273 55.1172 344.484 55.1484 344.703 55.1484C344.948 55.1484 345.188 55.1146 345.422 55.0469C345.656 54.9792 345.865 54.8828 346.047 54.7578C346.229 54.6276 346.375 54.4714 346.484 54.2891C346.599 54.1068 346.656 53.8984 346.656 53.6641V52.125L344.508 52.4453ZM351.664 56H350.352V48.0156H351.664V56ZM350.109 45.7109C350.109 45.5859 350.133 45.4688 350.18 45.3594C350.232 45.25 350.297 45.1536 350.375 45.0703C350.458 44.987 350.555 44.9219 350.664 44.875C350.779 44.8229 350.898 44.7969 351.023 44.7969C351.148 44.7969 351.266 44.8229 351.375 44.875C351.484 44.9219 351.578 44.987 351.656 45.0703C351.74 45.1536 351.805 45.25 351.852 45.3594C351.904 45.4688 351.93 45.5859 351.93 45.7109C351.93 45.8359 351.904 45.9557 351.852 46.0703C351.805 46.1797 351.74 46.276 351.656 46.3594C351.578 46.4375 351.484 46.5026 351.375 46.5547C351.266 46.6016 351.148 46.625 351.023 46.625C350.898 46.625 350.779 46.6016 350.664 46.5547C350.555 46.5026 350.458 46.4375 350.375 46.3594C350.297 46.276 350.232 46.1797 350.18 46.0703C350.133 45.9557 350.109 45.8359 350.109 45.7109ZM356.133 54.0156C356.133 54.151 356.141 54.2786 356.156 54.3984C356.177 54.513 356.221 54.6146 356.289 54.7031C356.362 54.7917 356.466 54.862 356.602 54.9141C356.737 54.9661 356.922 54.9922 357.156 54.9922C357.219 54.9922 357.292 54.9896 357.375 54.9844C357.464 54.9792 357.555 54.974 357.648 54.9688C357.742 54.9583 357.833 54.9479 357.922 54.9375C358.01 54.9219 358.086 54.9089 358.148 54.8984L358.289 56.0469C358.138 56.0677 357.982 56.0859 357.82 56.1016C357.685 56.1172 357.534 56.1302 357.367 56.1406C357.201 56.151 357.034 56.1562 356.867 56.1562C356.549 56.1562 356.263 56.1224 356.008 56.0547C355.758 55.9922 355.544 55.888 355.367 55.7422C355.19 55.5964 355.055 55.4062 354.961 55.1719C354.867 54.9323 354.82 54.6432 354.82 54.3047V49.1719H353.312V48.0156H354.82V45.4062L356.133 44.9453V48.0156H358.352V49.1719H356.133V54.0156ZM361.289 56H359.977V48.0156H361.289V56ZM359.734 45.7109C359.734 45.5859 359.758 45.4688 359.805 45.3594C359.857 45.25 359.922 45.1536 360 45.0703C360.083 44.987 360.18 44.9219 360.289 44.875C360.404 44.8229 360.523 44.7969 360.648 44.7969C360.773 44.7969 360.891 44.8229 361 44.875C361.109 44.9219 361.203 44.987 361.281 45.0703C361.365 45.1536 361.43 45.25 361.477 45.3594C361.529 45.4688 361.555 45.5859 361.555 45.7109C361.555 45.8359 361.529 45.9557 361.477 46.0703C361.43 46.1797 361.365 46.276 361.281 46.3594C361.203 46.4375 361.109 46.5026 361 46.5547C360.891 46.6016 360.773 46.625 360.648 46.625C360.523 46.625 360.404 46.6016 360.289 46.5547C360.18 46.5026 360.083 46.4375 360 46.3594C359.922 46.276 359.857 46.1797 359.805 46.0703C359.758 45.9557 359.734 45.8359 359.734 45.7109ZM363.695 48.0156H365.008V48.9297C365.279 48.5599 365.612 48.2891 366.008 48.1172C366.409 47.9453 366.854 47.8594 367.344 47.8594C367.786 47.8594 368.174 47.9323 368.508 48.0781C368.841 48.224 369.12 48.4219 369.344 48.6719C369.568 48.9219 369.734 49.2109 369.844 49.5391C369.958 49.8672 370.016 50.2135 370.016 50.5781V56H368.703V50.9922C368.703 50.6432 368.659 50.3464 368.57 50.1016C368.487 49.8516 368.37 49.651 368.219 49.5C368.073 49.3438 367.898 49.2318 367.695 49.1641C367.497 49.0911 367.284 49.0547 367.055 49.0547C366.805 49.0547 366.557 49.1016 366.312 49.1953C366.073 49.2839 365.854 49.4193 365.656 49.6016C365.464 49.7839 365.307 50.013 365.188 50.2891C365.068 50.5651 365.008 50.8906 365.008 51.2656V56H363.695V48.0156ZM371.898 51.5703C371.898 51.0443 371.974 50.5547 372.125 50.1016C372.276 49.6484 372.492 49.2578 372.773 48.9297C373.055 48.5964 373.393 48.3359 373.789 48.1484C374.19 47.9557 374.638 47.8594 375.133 47.8594C375.57 47.8594 375.987 47.9453 376.383 48.1172C376.779 48.2839 377.115 48.5547 377.391 48.9297V48.0156H378.703V56C378.703 56.4948 378.602 56.9089 378.398 57.2422C378.201 57.5807 377.94 57.8516 377.617 58.0547C377.294 58.2578 376.927 58.4036 376.516 58.4922C376.109 58.5807 375.695 58.625 375.273 58.625C375.039 58.625 374.794 58.612 374.539 58.5859C374.289 58.5599 374.036 58.5208 373.781 58.4688C373.526 58.4167 373.273 58.349 373.023 58.2656C372.779 58.1875 372.544 58.0938 372.32 57.9844L372.797 56.8828C372.953 56.9557 373.117 57.026 373.289 57.0938C373.461 57.1667 373.646 57.2318 373.844 57.2891C374.047 57.3464 374.263 57.3932 374.492 57.4297C374.721 57.4661 374.971 57.4844 375.242 57.4844C375.576 57.4844 375.875 57.4505 376.141 57.3828C376.411 57.3151 376.638 57.2083 376.82 57.0625C377.003 56.9219 377.143 56.7396 377.242 56.5156C377.341 56.2969 377.391 56.0339 377.391 55.7266V54.2109C377.115 54.5859 376.779 54.8594 376.383 55.0312C375.987 55.1979 375.57 55.2812 375.133 55.2812C374.638 55.2812 374.19 55.1875 373.789 55C373.393 54.8073 373.055 54.5443 372.773 54.2109C372.492 53.8776 372.276 53.487 372.125 53.0391C371.974 52.5859 371.898 52.0964 371.898 51.5703ZM377.422 51.5391C377.422 51.1797 377.383 50.849 377.305 50.5469C377.227 50.2396 377.104 49.974 376.938 49.75C376.771 49.5208 376.557 49.3438 376.297 49.2188C376.042 49.0885 375.734 49.0234 375.375 49.0234C375.01 49.0234 374.695 49.0885 374.43 49.2188C374.164 49.349 373.943 49.5286 373.766 49.7578C373.594 49.9818 373.466 50.2474 373.383 50.5547C373.299 50.862 373.258 51.1901 373.258 51.5391V51.6016C373.258 51.9505 373.299 52.2786 373.383 52.5859C373.466 52.888 373.594 53.1536 373.766 53.3828C373.943 53.6068 374.164 53.7839 374.43 53.9141C374.695 54.0443 375.01 54.1094 375.375 54.1094C375.734 54.1094 376.042 54.0469 376.297 53.9219C376.557 53.7917 376.771 53.6146 376.938 53.3906C377.104 53.1667 377.227 52.901 377.305 52.5938C377.383 52.2865 377.422 51.9557 377.422 51.6016V51.5391ZM323.602 65.1875H323.391C323.052 65.1875 322.729 65.2266 322.422 65.3047C322.115 65.3828 321.844 65.5234 321.609 65.7266C321.375 65.9297 321.188 66.2083 321.047 66.5625C320.906 66.9115 320.836 67.3594 320.836 67.9062V72H319.523V64.0156H320.836V65.2812C320.935 65.0469 321.068 64.8411 321.234 64.6641C321.401 64.487 321.589 64.3411 321.797 64.2266C322.01 64.1068 322.237 64.0182 322.477 63.9609C322.721 63.9036 322.969 63.875 323.219 63.875H323.602V65.1875ZM325.836 68.4141C325.862 68.7891 325.938 69.1354 326.062 69.4531C326.188 69.7708 326.357 70.0469 326.57 70.2812C326.789 70.5104 327.044 70.6901 327.336 70.8203C327.633 70.9453 327.961 71.0078 328.32 71.0078C328.763 71.0078 329.151 70.9349 329.484 70.7891C329.823 70.638 330.133 70.4505 330.414 70.2266L331.086 71.1719C330.727 71.4583 330.31 71.6953 329.836 71.8828C329.367 72.0651 328.841 72.1562 328.258 72.1562C327.68 72.1562 327.156 72.0547 326.688 71.8516C326.219 71.6432 325.818 71.3568 325.484 70.9922C325.156 70.6224 324.904 70.1849 324.727 69.6797C324.549 69.1693 324.461 68.6146 324.461 68.0156C324.461 67.4062 324.547 66.849 324.719 66.3438C324.896 65.8333 325.143 65.3958 325.461 65.0312C325.779 64.6615 326.159 64.375 326.602 64.1719C327.044 63.9635 327.536 63.8594 328.078 63.8594C328.604 63.8594 329.078 63.9635 329.5 64.1719C329.922 64.375 330.281 64.6615 330.578 65.0312C330.875 65.3958 331.102 65.8333 331.258 66.3438C331.419 66.849 331.5 67.401 331.5 68V68.4141H325.836ZM328.031 65.0078C327.698 65.0078 327.401 65.0729 327.141 65.2031C326.88 65.3333 326.656 65.5078 326.469 65.7266C326.286 65.9453 326.141 66.1979 326.031 66.4844C325.927 66.7656 325.867 67.0573 325.852 67.3594H330.078C330.068 67.0521 330.013 66.7578 329.914 66.4766C329.82 66.1901 329.685 65.9401 329.508 65.7266C329.336 65.5078 329.125 65.3333 328.875 65.2031C328.63 65.0729 328.349 65.0078 328.031 65.0078ZM338.68 69.7891C338.68 70.1641 338.596 70.5 338.43 70.7969C338.268 71.0885 338.052 71.3359 337.781 71.5391C337.51 71.7422 337.198 71.8958 336.844 72C336.495 72.1042 336.135 72.1562 335.766 72.1562C335.182 72.1562 334.62 72.0573 334.078 71.8594C333.542 71.6562 333.065 71.3672 332.648 70.9922L333.367 70.0625C333.492 70.1719 333.635 70.2865 333.797 70.4062C333.964 70.526 334.148 70.638 334.352 70.7422C334.555 70.8411 334.773 70.9245 335.008 70.9922C335.242 71.0547 335.49 71.0859 335.75 71.0859C335.964 71.0859 336.167 71.0599 336.359 71.0078C336.557 70.9505 336.729 70.8698 336.875 70.7656C337.021 70.6562 337.135 70.5286 337.219 70.3828C337.307 70.2318 337.352 70.0625 337.352 69.875C337.352 69.6667 337.305 69.4922 337.211 69.3516C337.122 69.2109 337 69.0911 336.844 68.9922C336.688 68.8932 336.505 68.8073 336.297 68.7344C336.089 68.6615 335.87 68.5885 335.641 68.5156L335.141 68.3516C334.859 68.2578 334.589 68.151 334.328 68.0312C334.068 67.9115 333.836 67.7656 333.633 67.5938C333.435 67.4167 333.276 67.2083 333.156 66.9688C333.042 66.7292 332.984 66.4427 332.984 66.1094C332.984 65.8385 333.042 65.5703 333.156 65.3047C333.271 65.0339 333.445 64.7917 333.68 64.5781C333.919 64.3646 334.221 64.1927 334.586 64.0625C334.951 63.9271 335.38 63.8594 335.875 63.8594C336.422 63.8594 336.927 63.9505 337.391 64.1328C337.859 64.3151 338.255 64.5417 338.578 64.8125L337.891 65.7578C337.776 65.6484 337.641 65.5443 337.484 65.4453C337.328 65.3464 337.161 65.2604 336.984 65.1875C336.807 65.1094 336.622 65.0469 336.43 65C336.237 64.9531 336.047 64.9297 335.859 64.9297C335.573 64.9297 335.331 64.9635 335.133 65.0312C334.935 65.0938 334.776 65.1771 334.656 65.2812C334.536 65.3854 334.448 65.5026 334.391 65.6328C334.339 65.763 334.312 65.8906 334.312 66.0156C334.312 66.1979 334.352 66.3516 334.43 66.4766C334.508 66.5964 334.609 66.7005 334.734 66.7891C334.865 66.8776 335.01 66.9531 335.172 67.0156C335.339 67.0781 335.51 67.1406 335.688 67.2031L336.344 67.4219C336.656 67.526 336.943 67.638 337.203 67.7578C337.464 67.8724 337.693 68.0052 337.891 68.1562C338.141 68.3542 338.333 68.5833 338.469 68.8438C338.609 69.1042 338.68 69.4193 338.68 69.7891ZM342.008 64.0156V64.9297C342.242 64.6016 342.56 64.3411 342.961 64.1484C343.362 63.9557 343.823 63.8594 344.344 63.8594C344.859 63.8594 345.326 63.9635 345.742 64.1719C346.159 64.375 346.516 64.6615 346.812 65.0312C347.109 65.401 347.336 65.8411 347.492 66.3516C347.654 66.8568 347.734 67.4115 347.734 68.0156C347.734 68.6198 347.654 69.1745 347.492 69.6797C347.336 70.1849 347.109 70.6224 346.812 70.9922C346.516 71.3568 346.159 71.6432 345.742 71.8516C345.326 72.0547 344.859 72.1562 344.344 72.1562C343.823 72.1562 343.362 72.0599 342.961 71.8672C342.56 71.6745 342.242 71.4141 342.008 71.0859V74.4297H340.695V64.0156H342.008ZM346.375 67.9688C346.375 67.5521 346.326 67.1641 346.227 66.8047C346.128 66.4453 345.982 66.1354 345.789 65.875C345.596 65.6094 345.357 65.401 345.07 65.25C344.789 65.099 344.466 65.0234 344.102 65.0234C343.753 65.0234 343.445 65.0833 343.18 65.2031C342.919 65.3229 342.701 65.487 342.523 65.6953C342.346 65.9036 342.211 66.151 342.117 66.4375C342.029 66.7188 341.984 67.026 341.984 67.3594V68.6562C341.984 68.9896 342.029 69.2995 342.117 69.5859C342.211 69.8672 342.346 70.112 342.523 70.3203C342.701 70.5286 342.919 70.6927 343.18 70.8125C343.445 70.9323 343.753 70.9922 344.102 70.9922C344.466 70.9922 344.789 70.9167 345.07 70.7656C345.357 70.6146 345.596 70.4089 345.789 70.1484C345.982 69.8828 346.128 69.5703 346.227 69.2109C346.326 68.8516 346.375 68.4635 346.375 68.0469V67.9688ZM352.875 63.8594C353.427 63.8594 353.93 63.9635 354.383 64.1719C354.836 64.375 355.221 64.6615 355.539 65.0312C355.862 65.3958 356.112 65.8333 356.289 66.3438C356.466 66.849 356.555 67.4062 356.555 68.0156C356.555 68.6146 356.466 69.1693 356.289 69.6797C356.112 70.1849 355.862 70.6224 355.539 70.9922C355.221 71.3568 354.836 71.6432 354.383 71.8516C353.93 72.0547 353.427 72.1562 352.875 72.1562C352.323 72.1562 351.82 72.0547 351.367 71.8516C350.919 71.6432 350.534 71.3568 350.211 70.9922C349.888 70.6224 349.638 70.1849 349.461 69.6797C349.284 69.1693 349.195 68.6146 349.195 68.0156C349.195 67.4062 349.284 66.849 349.461 66.3438C349.638 65.8333 349.888 65.3958 350.211 65.0312C350.534 64.6615 350.919 64.375 351.367 64.1719C351.82 63.9635 352.323 63.8594 352.875 63.8594ZM352.875 71.0078C353.255 71.0078 353.589 70.9297 353.875 70.7734C354.167 70.612 354.409 70.3958 354.602 70.125C354.799 69.8542 354.948 69.5417 355.047 69.1875C355.146 68.8281 355.195 68.4531 355.195 68.0625V67.9688C355.195 67.5677 355.146 67.1875 355.047 66.8281C354.948 66.4688 354.799 66.1562 354.602 65.8906C354.409 65.6198 354.167 65.4062 353.875 65.25C353.589 65.0885 353.255 65.0078 352.875 65.0078C352.495 65.0078 352.159 65.0885 351.867 65.25C351.581 65.4062 351.339 65.6198 351.141 65.8906C350.948 66.1562 350.802 66.4688 350.703 66.8281C350.604 67.1875 350.555 67.5677 350.555 67.9688V68.0625C350.555 68.4531 350.604 68.8281 350.703 69.1875C350.802 69.5417 350.948 69.8542 351.141 70.125C351.339 70.3958 351.581 70.612 351.867 70.7734C352.159 70.9297 352.495 71.0078 352.875 71.0078ZM358.477 64.0156H359.789V64.9297C360.06 64.5599 360.393 64.2891 360.789 64.1172C361.19 63.9453 361.635 63.8594 362.125 63.8594C362.568 63.8594 362.956 63.9323 363.289 64.0781C363.622 64.224 363.901 64.4219 364.125 64.6719C364.349 64.9219 364.516 65.2109 364.625 65.5391C364.74 65.8672 364.797 66.2135 364.797 66.5781V72H363.484V66.9922C363.484 66.6432 363.44 66.3464 363.352 66.1016C363.268 65.8516 363.151 65.651 363 65.5C362.854 65.3438 362.68 65.2318 362.477 65.1641C362.279 65.0911 362.065 65.0547 361.836 65.0547C361.586 65.0547 361.339 65.1016 361.094 65.1953C360.854 65.2839 360.635 65.4193 360.438 65.6016C360.245 65.7839 360.089 66.013 359.969 66.2891C359.849 66.5651 359.789 66.8906 359.789 67.2656V72H358.477V64.0156ZM372.477 69.7891C372.477 70.1641 372.393 70.5 372.227 70.7969C372.065 71.0885 371.849 71.3359 371.578 71.5391C371.307 71.7422 370.995 71.8958 370.641 72C370.292 72.1042 369.932 72.1562 369.562 72.1562C368.979 72.1562 368.417 72.0573 367.875 71.8594C367.339 71.6562 366.862 71.3672 366.445 70.9922L367.164 70.0625C367.289 70.1719 367.432 70.2865 367.594 70.4062C367.76 70.526 367.945 70.638 368.148 70.7422C368.352 70.8411 368.57 70.9245 368.805 70.9922C369.039 71.0547 369.286 71.0859 369.547 71.0859C369.76 71.0859 369.964 71.0599 370.156 71.0078C370.354 70.9505 370.526 70.8698 370.672 70.7656C370.818 70.6562 370.932 70.5286 371.016 70.3828C371.104 70.2318 371.148 70.0625 371.148 69.875C371.148 69.6667 371.102 69.4922 371.008 69.3516C370.919 69.2109 370.797 69.0911 370.641 68.9922C370.484 68.8932 370.302 68.8073 370.094 68.7344C369.885 68.6615 369.667 68.5885 369.438 68.5156L368.938 68.3516C368.656 68.2578 368.385 68.151 368.125 68.0312C367.865 67.9115 367.633 67.7656 367.43 67.5938C367.232 67.4167 367.073 67.2083 366.953 66.9688C366.839 66.7292 366.781 66.4427 366.781 66.1094C366.781 65.8385 366.839 65.5703 366.953 65.3047C367.068 65.0339 367.242 64.7917 367.477 64.5781C367.716 64.3646 368.018 64.1927 368.383 64.0625C368.747 63.9271 369.177 63.8594 369.672 63.8594C370.219 63.8594 370.724 63.9505 371.188 64.1328C371.656 64.3151 372.052 64.5417 372.375 64.8125L371.688 65.7578C371.573 65.6484 371.438 65.5443 371.281 65.4453C371.125 65.3464 370.958 65.2604 370.781 65.1875C370.604 65.1094 370.419 65.0469 370.227 65C370.034 64.9531 369.844 64.9297 369.656 64.9297C369.37 64.9297 369.128 64.9635 368.93 65.0312C368.732 65.0938 368.573 65.1771 368.453 65.2812C368.333 65.3854 368.245 65.5026 368.188 65.6328C368.135 65.763 368.109 65.8906 368.109 66.0156C368.109 66.1979 368.148 66.3516 368.227 66.4766C368.305 66.5964 368.406 66.7005 368.531 66.7891C368.661 66.8776 368.807 66.9531 368.969 67.0156C369.135 67.0781 369.307 67.1406 369.484 67.2031L370.141 67.4219C370.453 67.526 370.74 67.638 371 67.7578C371.26 67.8724 371.49 68.0052 371.688 68.1562C371.938 68.3542 372.13 68.5833 372.266 68.8438C372.406 69.1042 372.477 69.4193 372.477 69.7891ZM375.383 68.4141C375.409 68.7891 375.484 69.1354 375.609 69.4531C375.734 69.7708 375.904 70.0469 376.117 70.2812C376.336 70.5104 376.591 70.6901 376.883 70.8203C377.18 70.9453 377.508 71.0078 377.867 71.0078C378.31 71.0078 378.698 70.9349 379.031 70.7891C379.37 70.638 379.68 70.4505 379.961 70.2266L380.633 71.1719C380.273 71.4583 379.857 71.6953 379.383 71.8828C378.914 72.0651 378.388 72.1562 377.805 72.1562C377.227 72.1562 376.703 72.0547 376.234 71.8516C375.766 71.6432 375.365 71.3568 375.031 70.9922C374.703 70.6224 374.451 70.1849 374.273 69.6797C374.096 69.1693 374.008 68.6146 374.008 68.0156C374.008 67.4062 374.094 66.849 374.266 66.3438C374.443 65.8333 374.69 65.3958 375.008 65.0312C375.326 64.6615 375.706 64.375 376.148 64.1719C376.591 63.9635 377.083 63.8594 377.625 63.8594C378.151 63.8594 378.625 63.9635 379.047 64.1719C379.469 64.375 379.828 64.6615 380.125 65.0312C380.422 65.3958 380.648 65.8333 380.805 66.3438C380.966 66.849 381.047 67.401 381.047 68V68.4141H375.383ZM377.578 65.0078C377.245 65.0078 376.948 65.0729 376.688 65.2031C376.427 65.3333 376.203 65.5078 376.016 65.7266C375.833 65.9453 375.688 66.1979 375.578 66.4844C375.474 66.7656 375.414 67.0573 375.398 67.3594H379.625C379.615 67.0521 379.56 66.7578 379.461 66.4766C379.367 66.1901 379.232 65.9401 379.055 65.7266C378.883 65.5078 378.672 65.3333 378.422 65.2031C378.177 65.0729 377.896 65.0078 377.578 65.0078Z" fill="#0B0C0C"/>
<path d="M400 16H434" stroke="#00703C" stroke-width="6"/>
<path d="M434 16H450" stroke="#00703C" stroke-width="6"/>
<path d="M450 16H466" stroke="#00703C" stroke-width="6"/>
<circle cx="450" cy="16" r="13" fill="white" stroke="#00703C" stroke-width="6"/>
<path d="M466 16H500" stroke="#00703C" stroke-width="6"/>
<path d="M431.445 50.8516H425.547V56H424.172V44.7969H425.547V49.6641H431.445V44.7969H432.828V56H431.445V50.8516ZM436.273 52.4141C436.299 52.7891 436.375 53.1354 436.5 53.4531C436.625 53.7708 436.794 54.0469 437.008 54.2812C437.227 54.5104 437.482 54.6901 437.773 54.8203C438.07 54.9453 438.398 55.0078 438.758 55.0078C439.201 55.0078 439.589 54.9349 439.922 54.7891C440.26 54.638 440.57 54.4505 440.852 54.2266L441.523 55.1719C441.164 55.4583 440.747 55.6953 440.273 55.8828C439.805 56.0651 439.279 56.1562 438.695 56.1562C438.117 56.1562 437.594 56.0547 437.125 55.8516C436.656 55.6432 436.255 55.3568 435.922 54.9922C435.594 54.6224 435.341 54.1849 435.164 53.6797C434.987 53.1693 434.898 52.6146 434.898 52.0156C434.898 51.4062 434.984 50.849 435.156 50.3438C435.333 49.8333 435.581 49.3958 435.898 49.0312C436.216 48.6615 436.596 48.375 437.039 48.1719C437.482 47.9635 437.974 47.8594 438.516 47.8594C439.042 47.8594 439.516 47.9635 439.938 48.1719C440.359 48.375 440.719 48.6615 441.016 49.0312C441.312 49.3958 441.539 49.8333 441.695 50.3438C441.857 50.849 441.938 51.401 441.938 52V52.4141H436.273ZM438.469 49.0078C438.135 49.0078 437.839 49.0729 437.578 49.2031C437.318 49.3333 437.094 49.5078 436.906 49.7266C436.724 49.9453 436.578 50.1979 436.469 50.4844C436.365 50.7656 436.305 51.0573 436.289 51.3594H440.516C440.505 51.0521 440.451 50.7578 440.352 50.4766C440.258 50.1901 440.122 49.9401 439.945 49.7266C439.773 49.5078 439.562 49.3333 439.312 49.2031C439.068 49.0729 438.786 49.0078 438.469 49.0078ZM448.312 55.2031C448.078 55.474 447.76 55.7005 447.359 55.8828C446.964 56.0651 446.497 56.1562 445.961 56.1562C445.565 56.1562 445.198 56.1016 444.859 55.9922C444.521 55.8776 444.227 55.7161 443.977 55.5078C443.727 55.2995 443.531 55.0469 443.391 54.75C443.25 54.4531 443.18 54.1172 443.18 53.7422C443.18 53.4297 443.229 53.1458 443.328 52.8906C443.432 52.6302 443.576 52.4036 443.758 52.2109C443.945 52.0182 444.169 51.862 444.43 51.7422C444.69 51.6172 444.982 51.5312 445.305 51.4844L448.125 51.1016V50.5938C448.125 50.2917 448.078 50.0391 447.984 49.8359C447.891 49.6276 447.763 49.4635 447.602 49.3438C447.445 49.224 447.258 49.138 447.039 49.0859C446.826 49.0339 446.594 49.0078 446.344 49.0078C445.896 49.0078 445.477 49.0703 445.086 49.1953C444.701 49.3203 444.352 49.4661 444.039 49.6328L443.547 48.5938C444.005 48.3333 444.484 48.1458 444.984 48.0312C445.49 47.9167 445.987 47.8594 446.477 47.8594C447.451 47.8594 448.188 48.0807 448.688 48.5234C449.188 48.9609 449.438 49.6016 449.438 50.4453V54.125C449.438 54.3906 449.49 54.6146 449.594 54.7969C449.698 54.974 449.865 55.1146 450.094 55.2188L449.352 56.1562C449.102 56.0938 448.885 55.9844 448.703 55.8281C448.526 55.6667 448.401 55.474 448.328 55.25L448.312 55.2031ZM445.977 52.4453C445.758 52.4766 445.557 52.5208 445.375 52.5781C445.198 52.6354 445.047 52.7135 444.922 52.8125C444.797 52.9062 444.698 53.0234 444.625 53.1641C444.557 53.3047 444.523 53.4766 444.523 53.6797C444.523 53.9141 444.568 54.1224 444.656 54.3047C444.745 54.487 444.865 54.6406 445.016 54.7656C445.167 54.8906 445.341 54.987 445.539 55.0547C445.742 55.1172 445.953 55.1484 446.172 55.1484C446.417 55.1484 446.656 55.1146 446.891 55.0469C447.125 54.9792 447.333 54.8828 447.516 54.7578C447.698 54.6276 447.844 54.4714 447.953 54.2891C448.068 54.1068 448.125 53.8984 448.125 53.6641V52.125L445.977 52.4453ZM455.898 49.1875H455.688C455.349 49.1875 455.026 49.2266 454.719 49.3047C454.411 49.3828 454.141 49.5234 453.906 49.7266C453.672 49.9297 453.484 50.2083 453.344 50.5625C453.203 50.9115 453.133 51.3594 453.133 51.9062V56H451.82V48.0156H453.133V49.2812C453.232 49.0469 453.365 48.8411 453.531 48.6641C453.698 48.487 453.885 48.3411 454.094 48.2266C454.307 48.1068 454.534 48.0182 454.773 47.9609C455.018 47.9036 455.266 47.875 455.516 47.875H455.898V49.1875ZM458.758 56H457.445V48.0156H458.758V56ZM457.203 45.7109C457.203 45.5859 457.227 45.4688 457.273 45.3594C457.326 45.25 457.391 45.1536 457.469 45.0703C457.552 44.987 457.648 44.9219 457.758 44.875C457.872 44.8229 457.992 44.7969 458.117 44.7969C458.242 44.7969 458.359 44.8229 458.469 44.875C458.578 44.9219 458.672 44.987 458.75 45.0703C458.833 45.1536 458.898 45.25 458.945 45.3594C458.997 45.4688 459.023 45.5859 459.023 45.7109C459.023 45.8359 458.997 45.9557 458.945 46.0703C458.898 46.1797 458.833 46.276 458.75 46.3594C458.672 46.4375 458.578 46.5026 458.469 46.5547C458.359 46.6016 458.242 46.625 458.117 46.625C457.992 46.625 457.872 46.6016 457.758 46.5547C457.648 46.5026 457.552 46.4375 457.469 46.3594C457.391 46.276 457.326 46.1797 457.273 46.0703C457.227 45.9557 457.203 45.8359 457.203 45.7109ZM461.164 48.0156H462.477V48.9297C462.747 48.5599 463.081 48.2891 463.477 48.1172C463.878 47.9453 464.323 47.8594 464.812 47.8594C465.255 47.8594 465.643 47.9323 465.977 48.0781C466.31 48.224 466.589 48.4219 466.812 48.6719C467.036 48.9219 467.203 49.2109 467.312 49.5391C467.427 49.8672 467.484 50.2135 467.484 50.5781V56H466.172V50.9922C466.172 50.6432 466.128 50.3464 466.039 50.1016C465.956 49.8516 465.839 49.651 465.688 49.5C465.542 49.3438 465.367 49.2318 465.164 49.1641C464.966 49.0911 464.753 49.0547 464.523 49.0547C464.273 49.0547 464.026 49.1016 463.781 49.1953C463.542 49.2839 463.323 49.4193 463.125 49.6016C462.932 49.7839 462.776 50.013 462.656 50.2891C462.536 50.5651 462.477 50.8906 462.477 51.2656V56H461.164V48.0156ZM469.367 51.5703C469.367 51.0443 469.443 50.5547 469.594 50.1016C469.745 49.6484 469.961 49.2578 470.242 48.9297C470.523 48.5964 470.862 48.3359 471.258 48.1484C471.659 47.9557 472.107 47.8594 472.602 47.8594C473.039 47.8594 473.456 47.9453 473.852 48.1172C474.247 48.2839 474.583 48.5547 474.859 48.9297V48.0156H476.172V56C476.172 56.4948 476.07 56.9089 475.867 57.2422C475.669 57.5807 475.409 57.8516 475.086 58.0547C474.763 58.2578 474.396 58.4036 473.984 58.4922C473.578 58.5807 473.164 58.625 472.742 58.625C472.508 58.625 472.263 58.612 472.008 58.5859C471.758 58.5599 471.505 58.5208 471.25 58.4688C470.995 58.4167 470.742 58.349 470.492 58.2656C470.247 58.1875 470.013 58.0938 469.789 57.9844L470.266 56.8828C470.422 56.9557 470.586 57.026 470.758 57.0938C470.93 57.1667 471.115 57.2318 471.312 57.2891C471.516 57.3464 471.732 57.3932 471.961 57.4297C472.19 57.4661 472.44 57.4844 472.711 57.4844C473.044 57.4844 473.344 57.4505 473.609 57.3828C473.88 57.3151 474.107 57.2083 474.289 57.0625C474.471 56.9219 474.612 56.7396 474.711 56.5156C474.81 56.2969 474.859 56.0339 474.859 55.7266V54.2109C474.583 54.5859 474.247 54.8594 473.852 55.0312C473.456 55.1979 473.039 55.2812 472.602 55.2812C472.107 55.2812 471.659 55.1875 471.258 55C470.862 54.8073 470.523 54.5443 470.242 54.2109C469.961 53.8776 469.745 53.487 469.594 53.0391C469.443 52.5859 469.367 52.0964 469.367 51.5703ZM474.891 51.5391C474.891 51.1797 474.852 50.849 474.773 50.5469C474.695 50.2396 474.573 49.974 474.406 49.75C474.24 49.5208 474.026 49.3438 473.766 49.2188C473.51 49.0885 473.203 49.0234 472.844 49.0234C472.479 49.0234 472.164 49.0885 471.898 49.2188C471.633 49.349 471.411 49.5286 471.234 49.7578C471.062 49.9818 470.935 50.2474 470.852 50.5547C470.768 50.862 470.727 51.1901 470.727 51.5391V51.6016C470.727 51.9505 470.768 52.2786 470.852 52.5859C470.935 52.888 471.062 53.1536 471.234 53.3828C471.411 53.6068 471.633 53.7839 471.898 53.9141C472.164 54.0443 472.479 54.1094 472.844 54.1094C473.203 54.1094 473.51 54.0469 473.766 53.9219C474.026 53.7917 474.24 53.6146 474.406 53.3906C474.573 53.1667 474.695 52.901 474.773 52.5938C474.852 52.2865 474.891 51.9557 474.891 51.6016V51.5391Z" fill="#0B0C0C"/>
<path d="M500 16H534" stroke="#00703C" stroke-width="6"/>
<path d="M534 16H550" stroke="#00703C" stroke-width="6"/>
<path d="M550 16H566" stroke="white" stroke-width="6"/>
<circle cx="550" cy="16" r="13" fill="white" stroke="#00703C" stroke-width="6"/>
<path d="M531.344 50.3984C531.344 51.237 531.24 52.0026 531.031 52.6953C530.823 53.3828 530.505 53.9714 530.078 54.4609C529.651 54.9505 529.115 55.3307 528.469 55.6016C527.828 55.8672 527.073 56 526.203 56H522.609V44.7969H526.203C527.073 44.7969 527.828 44.9323 528.469 45.2031C529.115 45.4688 529.651 45.8464 530.078 46.3359C530.505 46.8255 530.823 47.4167 531.031 48.1094C531.24 48.7969 531.344 49.5599 531.344 50.3984ZM529.867 50.1797C529.867 49.5964 529.794 49.0495 529.648 48.5391C529.503 48.0286 529.279 47.5859 528.977 47.2109C528.68 46.8307 528.297 46.5312 527.828 46.3125C527.365 46.0938 526.812 45.9844 526.172 45.9844H523.984V54.8125H526.172C526.812 54.8125 527.365 54.7057 527.828 54.4922C528.297 54.2734 528.68 53.9766 528.977 53.6016C529.279 53.2214 529.503 52.776 529.648 52.2656C529.794 51.7552 529.867 51.2083 529.867 50.625V50.1797ZM534.367 52.4141C534.393 52.7891 534.469 53.1354 534.594 53.4531C534.719 53.7708 534.888 54.0469 535.102 54.2812C535.32 54.5104 535.576 54.6901 535.867 54.8203C536.164 54.9453 536.492 55.0078 536.852 55.0078C537.294 55.0078 537.682 54.9349 538.016 54.7891C538.354 54.638 538.664 54.4505 538.945 54.2266L539.617 55.1719C539.258 55.4583 538.841 55.6953 538.367 55.8828C537.898 56.0651 537.372 56.1562 536.789 56.1562C536.211 56.1562 535.688 56.0547 535.219 55.8516C534.75 55.6432 534.349 55.3568 534.016 54.9922C533.688 54.6224 533.435 54.1849 533.258 53.6797C533.081 53.1693 532.992 52.6146 532.992 52.0156C532.992 51.4062 533.078 50.849 533.25 50.3438C533.427 49.8333 533.674 49.3958 533.992 49.0312C534.31 48.6615 534.69 48.375 535.133 48.1719C535.576 47.9635 536.068 47.8594 536.609 47.8594C537.135 47.8594 537.609 47.9635 538.031 48.1719C538.453 48.375 538.812 48.6615 539.109 49.0312C539.406 49.3958 539.633 49.8333 539.789 50.3438C539.951 50.849 540.031 51.401 540.031 52V52.4141H534.367ZM536.562 49.0078C536.229 49.0078 535.932 49.0729 535.672 49.2031C535.411 49.3333 535.188 49.5078 535 49.7266C534.818 49.9453 534.672 50.1979 534.562 50.4844C534.458 50.7656 534.398 51.0573 534.383 51.3594H538.609C538.599 51.0521 538.544 50.7578 538.445 50.4766C538.352 50.1901 538.216 49.9401 538.039 49.7266C537.867 49.5078 537.656 49.3333 537.406 49.2031C537.161 49.0729 536.88 49.0078 536.562 49.0078ZM542.742 52.0469C542.742 52.4479 542.792 52.8281 542.891 53.1875C542.99 53.5469 543.135 53.862 543.328 54.1328C543.521 54.3984 543.76 54.612 544.047 54.7734C544.339 54.9297 544.677 55.0078 545.062 55.0078C545.312 55.0078 545.542 54.974 545.75 54.9062C545.964 54.8333 546.154 54.737 546.32 54.6172C546.492 54.4974 546.643 54.3568 546.773 54.1953C546.909 54.0286 547.026 53.8516 547.125 53.6641L548.219 54.2891C548.083 54.5703 547.909 54.8281 547.695 55.0625C547.487 55.2917 547.247 55.487 546.977 55.6484C546.706 55.8099 546.409 55.9349 546.086 56.0234C545.763 56.112 545.422 56.1562 545.062 56.1562C544.51 56.1562 544.008 56.0547 543.555 55.8516C543.107 55.6432 542.721 55.3568 542.398 54.9922C542.076 54.6224 541.826 54.1849 541.648 53.6797C541.471 53.1745 541.383 52.6198 541.383 52.0156C541.383 51.4062 541.471 50.849 541.648 50.3438C541.826 49.8333 542.076 49.3958 542.398 49.0312C542.721 48.6615 543.107 48.375 543.555 48.1719C544.008 47.9635 544.51 47.8594 545.062 47.8594C545.422 47.8594 545.763 47.9036 546.086 47.9922C546.409 48.0807 546.706 48.2057 546.977 48.3672C547.247 48.5286 547.487 48.7266 547.695 48.9609C547.909 49.1901 548.083 49.4453 548.219 49.7266L547.125 50.3516C547.026 50.1641 546.909 49.9896 546.773 49.8281C546.643 49.6615 546.492 49.5182 546.32 49.3984C546.154 49.2786 545.964 49.1849 545.75 49.1172C545.542 49.0443 545.312 49.0078 545.062 49.0078C544.677 49.0078 544.339 49.0885 544.047 49.25C543.76 49.4062 543.521 49.6198 543.328 49.8906C543.135 50.1562 542.99 50.4688 542.891 50.8281C542.792 51.1875 542.742 51.5677 542.742 51.9688V52.0469ZM551.367 56H550.055V48.0156H551.367V56ZM549.812 45.7109C549.812 45.5859 549.836 45.4688 549.883 45.3594C549.935 45.25 550 45.1536 550.078 45.0703C550.161 44.987 550.258 44.9219 550.367 44.875C550.482 44.8229 550.602 44.7969 550.727 44.7969C550.852 44.7969 550.969 44.8229 551.078 44.875C551.188 44.9219 551.281 44.987 551.359 45.0703C551.443 45.1536 551.508 45.25 551.555 45.3594C551.607 45.4688 551.633 45.5859 551.633 45.7109C551.633 45.8359 551.607 45.9557 551.555 46.0703C551.508 46.1797 551.443 46.276 551.359 46.3594C551.281 46.4375 551.188 46.5026 551.078 46.5547C550.969 46.6016 550.852 46.625 550.727 46.625C550.602 46.625 550.482 46.6016 550.367 46.5547C550.258 46.5026 550.161 46.4375 550.078 46.3594C550 46.276 549.935 46.1797 549.883 46.0703C549.836 45.9557 549.812 45.8359 549.812 45.7109ZM559.031 55.0859C558.797 55.4141 558.477 55.6745 558.07 55.8672C557.669 56.0599 557.211 56.1562 556.695 56.1562C556.18 56.1562 555.714 56.0547 555.297 55.8516C554.88 55.6432 554.523 55.3568 554.227 54.9922C553.93 54.6224 553.701 54.1849 553.539 53.6797C553.383 53.1745 553.305 52.6198 553.305 52.0156C553.305 51.4115 553.383 50.8568 553.539 50.3516C553.701 49.8411 553.93 49.401 554.227 49.0312C554.523 48.6615 554.88 48.375 555.297 48.1719C555.714 47.9635 556.18 47.8594 556.695 47.8594C557.211 47.8594 557.669 47.9557 558.07 48.1484C558.477 48.3411 558.797 48.6016 559.031 48.9297V44.7969H560.344V56H559.031V55.0859ZM554.664 52.0469C554.664 52.4635 554.714 52.8516 554.812 53.2109C554.911 53.5703 555.057 53.8828 555.25 54.1484C555.443 54.4089 555.68 54.6146 555.961 54.7656C556.242 54.9167 556.568 54.9922 556.938 54.9922C557.286 54.9922 557.591 54.9323 557.852 54.8125C558.117 54.6927 558.339 54.5286 558.516 54.3203C558.693 54.112 558.826 53.8672 558.914 53.5859C559.003 53.2995 559.047 52.9896 559.047 52.6562V51.3594C559.047 51.026 559.003 50.7188 558.914 50.4375C558.826 50.151 558.693 49.9036 558.516 49.6953C558.339 49.487 558.117 49.3229 557.852 49.2031C557.591 49.0833 557.286 49.0234 556.938 49.0234C556.568 49.0234 556.242 49.099 555.961 49.25C555.68 49.401 555.443 49.6094 555.25 49.875C555.057 50.1354 554.911 50.4453 554.812 50.8047C554.714 51.1641 554.664 51.5521 554.664 51.9688V52.0469ZM563.648 52.4141C563.674 52.7891 563.75 53.1354 563.875 53.4531C564 53.7708 564.169 54.0469 564.383 54.2812C564.602 54.5104 564.857 54.6901 565.148 54.8203C565.445 54.9453 565.773 55.0078 566.133 55.0078C566.576 55.0078 566.964 54.9349 567.297 54.7891C567.635 54.638 567.945 54.4505 568.227 54.2266L568.898 55.1719C568.539 55.4583 568.122 55.6953 567.648 55.8828C567.18 56.0651 566.654 56.1562 566.07 56.1562C565.492 56.1562 564.969 56.0547 564.5 55.8516C564.031 55.6432 563.63 55.3568 563.297 54.9922C562.969 54.6224 562.716 54.1849 562.539 53.6797C562.362 53.1693 562.273 52.6146 562.273 52.0156C562.273 51.4062 562.359 50.849 562.531 50.3438C562.708 49.8333 562.956 49.3958 563.273 49.0312C563.591 48.6615 563.971 48.375 564.414 48.1719C564.857 47.9635 565.349 47.8594 565.891 47.8594C566.417 47.8594 566.891 47.9635 567.312 48.1719C567.734 48.375 568.094 48.6615 568.391 49.0312C568.688 49.3958 568.914 49.8333 569.07 50.3438C569.232 50.849 569.312 51.401 569.312 52V52.4141H563.648ZM565.844 49.0078C565.51 49.0078 565.214 49.0729 564.953 49.2031C564.693 49.3333 564.469 49.5078 564.281 49.7266C564.099 49.9453 563.953 50.1979 563.844 50.4844C563.74 50.7656 563.68 51.0573 563.664 51.3594H567.891C567.88 51.0521 567.826 50.7578 567.727 50.4766C567.633 50.1901 567.497 49.9401 567.32 49.7266C567.148 49.5078 566.938 49.3333 566.688 49.2031C566.443 49.0729 566.161 49.0078 565.844 49.0078ZM576.406 55.0859C576.172 55.4141 575.852 55.6745 575.445 55.8672C575.044 56.0599 574.586 56.1562 574.07 56.1562C573.555 56.1562 573.089 56.0547 572.672 55.8516C572.255 55.6432 571.898 55.3568 571.602 54.9922C571.305 54.6224 571.076 54.1849 570.914 53.6797C570.758 53.1745 570.68 52.6198 570.68 52.0156C570.68 51.4115 570.758 50.8568 570.914 50.3516C571.076 49.8411 571.305 49.401 571.602 49.0312C571.898 48.6615 572.255 48.375 572.672 48.1719C573.089 47.9635 573.555 47.8594 574.07 47.8594C574.586 47.8594 575.044 47.9557 575.445 48.1484C575.852 48.3411 576.172 48.6016 576.406 48.9297V44.7969H577.719V56H576.406V55.0859ZM572.039 52.0469C572.039 52.4635 572.089 52.8516 572.188 53.2109C572.286 53.5703 572.432 53.8828 572.625 54.1484C572.818 54.4089 573.055 54.6146 573.336 54.7656C573.617 54.9167 573.943 54.9922 574.312 54.9922C574.661 54.9922 574.966 54.9323 575.227 54.8125C575.492 54.6927 575.714 54.5286 575.891 54.3203C576.068 54.112 576.201 53.8672 576.289 53.5859C576.378 53.2995 576.422 52.9896 576.422 52.6562V51.3594C576.422 51.026 576.378 50.7188 576.289 50.4375C576.201 50.151 576.068 49.9036 575.891 49.6953C575.714 49.487 575.492 49.3229 575.227 49.2031C574.966 49.0833 574.661 49.0234 574.312 49.0234C573.943 49.0234 573.617 49.099 573.336 49.25C573.055 49.401 572.818 49.6094 572.625 49.875C572.432 50.1354 572.286 50.4453 572.188 50.8047C572.089 51.1641 572.039 51.5521 572.039 51.9688V52.0469Z" fill="#0B0C0C"/>
</svg>
